<?xml version="1.0" encoding="UTF-8" standalone="no"?>
<!DOCTYPE svg PUBLIC "-//W3C//DTD SVG 1.1//EN"
 "http://www.w3.org/Graphics/SVG/1.1/DTD/svg11.dtd">
<!-- Generated by graphviz version 2.42.4 (0)
 -->
<!-- Pages: 1 -->
<svg width="875pt" height="254pt"
 viewBox="0.00 0.00 875.00 254.00" xmlns="http://www.w3.org/2000/svg" xmlns:xlink="http://www.w3.org/1999/xlink">
<g id="graph0" class="graph" transform="scale(1 1) rotate(0) translate(4 250)">
<polygon fill="white" stroke="transparent" points="-4,4 -4,-250 871,-250 871,4 -4,4"/>
<!-- db.experiments -->
<g id="node1" class="node">
<title>db.experiments</title>
<polygon fill="none" stroke="black" points="12,-127 12,-219 164,-219 164,-127 12,-127"/>
<text text-anchor="middle" x="88" y="-203.8" font-family="Times,serif" font-size="14.00">experimentsexp_id</text>
<polyline fill="none" stroke="black" points="12,-196 164,-196 "/>
<text text-anchor="middle" x="88" y="-180.8" font-family="Times,serif" font-size="14.00">name</text>
<polyline fill="none" stroke="black" points="12,-173 164,-173 "/>
<text text-anchor="middle" x="88" y="-157.8" font-family="Times,serif" font-size="14.00">group_id</text>
<polyline fill="none" stroke="black" points="12,-150 164,-150 "/>
<text text-anchor="middle" x="88" y="-134.8" font-family="Times,serif" font-size="14.00">status</text>
</g>
<!-- db.runs -->
<g id="node3" class="node">
<title>db.runs</title>
<polygon fill="none" stroke="black" points="258,-77 258,-169 419,-169 419,-77 258,-77"/>
<text text-anchor="middle" x="338.5" y="-153.8" font-family="Times,serif" font-size="14.00">runsrun_id</text>
<polyline fill="none" stroke="black" points="258,-146 419,-146 "/>
<text text-anchor="middle" x="338.5" y="-130.8" font-family="Times,serif" font-size="14.00">exp_id</text>
<polyline fill="none" stroke="black" points="258,-123 419,-123 "/>
<text text-anchor="middle" x="338.5" y="-107.8" font-family="Times,serif" font-size="14.00">hw_idworkflow_type</text>
<polyline fill="none" stroke="black" points="258,-100 419,-100 "/>
<text text-anchor="middle" x="338.5" y="-84.8" font-family="Times,serif" font-size="14.00">dynamic_energy_uj</text>
</g>
<!-- db.experiments&#45;&gt;db.runs -->
<g id="edge1" class="edge">
<title>db.experiments&#45;&gt;db.runs</title>
<path fill="none" stroke="#7f7f7f" stroke-dasharray="1,5" d="M164.18,-148C164.18,-148 247.9,-148 247.9,-148"/>
<polygon fill="#7f7f7f" stroke="#7f7f7f" points="247.9,-148 257.9,-152.5 252.9,-148 257.9,-148 257.9,-148 257.9,-148 252.9,-148 257.9,-143.5 247.9,-148 247.9,-148"/>
<text text-anchor="middle" x="217" y="-176.8" font-family="Times,serif" font-size="14.00">exp_id</text>
</g>
<!-- db.hardware -->
<g id="node2" class="node">
<title>db.hardware</title>
<polygon fill="none" stroke="black" points="0,-38.5 0,-107.5 176,-107.5 176,-38.5 0,-38.5"/>
<text text-anchor="middle" x="88" y="-92.3" font-family="Times,serif" font-size="14.00">hardware_confighw_id</text>
<polyline fill="none" stroke="black" points="0,-84.5 176,-84.5 "/>
<text text-anchor="middle" x="88" y="-69.3" font-family="Times,serif" font-size="14.00">cpu_model</text>
<polyline fill="none" stroke="black" points="0,-61.5 176,-61.5 "/>
<text text-anchor="middle" x="88" y="-46.3" font-family="Times,serif" font-size="14.00">hardware_hash</text>
</g>
<!-- db.hardware&#45;&gt;db.runs -->
<g id="edge2" class="edge">
<title>db.hardware&#45;&gt;db.runs</title>
<path fill="none" stroke="#7f7f7f" stroke-dasharray="1,5" d="M176.32,-92.25C176.32,-92.25 247.67,-92.25 247.67,-92.25"/>
<polygon fill="#7f7f7f" stroke="#7f7f7f" points="247.67,-92.25 257.67,-96.75 252.67,-92.25 257.67,-92.25 257.67,-92.25 257.67,-92.25 252.67,-92.25 257.67,-87.75 247.67,-92.25 247.67,-92.25"/>
<text text-anchor="middle" x="217" y="-76.8" font-family="Times,serif" font-size="14.00">hw_id</text>
</g>
<!-- db.energy -->
<g id="node4" class="node">
<title>db.energy</title>
<polygon fill="none" stroke="black" points="606.5,-176.5 606.5,-245.5 809.5,-245.5 809.5,-176.5 606.5,-176.5"/>
<text text-anchor="middle" x="708" y="-230.3" font-family="Times,serif" font-size="14.00">energy_samplessample_id</text>
<polyline fill="none" stroke="black" points="606.5,-222.5 809.5,-222.5 "/>
<text text-anchor="middle" x="708" y="-207.3" font-family="Times,serif" font-size="14.00">run_idtimestamp_ns</text>
<polyline fill="none" stroke="black" points="606.5,-199.5 809.5,-199.5 "/>
<text text-anchor="middle" x="708" y="-184.3" font-family="Times,serif" font-size="14.00">pkg_energy</text>
</g>
<!-- db.runs&#45;&gt;db.energy -->
<g id="edge3" class="edge">
<title>db.runs&#45;&gt;db.energy</title>
<path fill="none" stroke="#7f7f7f" stroke-dasharray="1,5" d="M339,-169.06C339,-184.45 339,-197.75 339,-197.75 339,-197.75 596.19,-197.75 596.19,-197.75"/>
<polygon fill="#7f7f7f" stroke="#7f7f7f" points="596.19,-197.75 606.19,-202.25 601.19,-197.75 606.19,-197.75 606.19,-197.75 606.19,-197.75 601.19,-197.75 606.19,-193.25 596.19,-197.75 596.19,-197.75"/>
<text text-anchor="middle" x="484" y="-214.8" font-family="Times,serif" font-size="14.00">run_id</text>
</g>
<!-- db.events -->
<g id="node5" class="node">
<title>db.events</title>
<polygon fill="none" stroke="black" points="594.5,-88.5 594.5,-157.5 821.5,-157.5 821.5,-88.5 594.5,-88.5"/>
<text text-anchor="middle" x="708" y="-142.3" font-family="Times,serif" font-size="14.00">orchestration_eventsevent_id</text>
<polyline fill="none" stroke="black" points="594.5,-134.5 821.5,-134.5 "/>
<text text-anchor="middle" x="708" y="-119.3" font-family="Times,serif" font-size="14.00">run_idphase</text>
<polyline fill="none" stroke="black" points="594.5,-111.5 821.5,-111.5 "/>
<text text-anchor="middle" x="708" y="-96.3" font-family="Times,serif" font-size="14.00">duration_ns</text>
</g>
<!-- db.runs&#45;&gt;db.events -->
<g id="edge4" class="edge">
<title>db.runs&#45;&gt;db.events</title>
<path fill="none" stroke="#7f7f7f" stroke-dasharray="1,5" d="M419.13,-123C419.13,-123 584.25,-123 584.25,-123"/>
<polygon fill="#7f7f7f" stroke="#7f7f7f" points="584.25,-123 594.25,-127.5 589.25,-123 594.25,-123 594.25,-123 594.25,-123 589.25,-123 594.25,-118.5 584.25,-123 584.25,-123"/>
<text text-anchor="middle" x="484" y="-126.8" font-family="Times,serif" font-size="14.00">run_id</text>
</g>
<!-- db.tax -->
<g id="node6" class="node">
<title>db.tax</title>
<polygon fill="none" stroke="black" points="549,-0.5 549,-69.5 867,-69.5 867,-0.5 549,-0.5"/>
<text text-anchor="middle" x="708" y="-54.3" font-family="Times,serif" font-size="14.00">orchestration_tax_summarycomparison_id</text>
<polyline fill="none" stroke="black" points="549,-46.5 867,-46.5 "/>
<text text-anchor="middle" x="708" y="-31.3" font-family="Times,serif" font-size="14.00">linear_run_idagentic_run_id</text>
<polyline fill="none" stroke="black" points="549,-23.5 867,-23.5 "/>
<text text-anchor="middle" x="708" y="-8.3" font-family="Times,serif" font-size="14.00">tax_percent</text>
</g>
<!-- db.runs&#45;&gt;db.tax -->
<g id="edge5" class="edge">
<title>db.runs&#45;&gt;db.tax</title>
<path fill="none" stroke="#7f7f7f" stroke-dasharray="1,5" d="M419.18,-82.25C486.68,-82.25 572,-82.25 572,-82.25 572,-82.25 572,-79.84 572,-79.84"/>
<polygon fill="#7f7f7f" stroke="#7f7f7f" points="572,-79.84 576.5,-69.84 572,-74.84 572,-69.84 572,-69.84 572,-69.84 572,-74.84 567.5,-69.84 572,-79.84 572,-79.84"/>
<text text-anchor="middle" x="484" y="-38.8" font-family="Times,serif" font-size="14.00">linear_run_id</text>
</g>
</g>
</svg>
