<?xml version="1.0" encoding="UTF-8" standalone="no"?>
<!DOCTYPE svg PUBLIC "-//W3C//DTD SVG 1.1//EN"
 "http://www.w3.org/Graphics/SVG/1.1/DTD/svg11.dtd">
<!-- Generated by graphviz version 2.42.4 (0)
 -->
<!-- Pages: 1 -->
<svg width="857pt" height="390pt"
 viewBox="0.00 0.00 857.00 390.25" xmlns="http://www.w3.org/2000/svg" xmlns:xlink="http://www.w3.org/1999/xlink">
<g id="graph0" class="graph" transform="scale(1 1) rotate(0) translate(4 386.25)">
<polygon fill="white" stroke="transparent" points="-4,4 -4,-386.25 853,-386.25 853,4 -4,4"/>
<!-- config.loader -->
<g id="node1" class="node">
<title>config.loader</title>
<polygon fill="none" stroke="lightblue" points="112,-381.75 0,-381.75 0,-345.75 112,-345.75 112,-381.75"/>
<text text-anchor="middle" x="56" y="-360.05" font-family="Times,serif" font-size="14.00">ConfigLoader</text>
</g>
<!-- exec.harness -->
<g id="node6" class="node">
<title>exec.harness</title>
<polygon fill="none" stroke="lightyellow" points="493,-161.25 333,-161.25 333,-125.25 493,-125.25 493,-161.25"/>
<text text-anchor="middle" x="413" y="-139.55" font-family="Times,serif" font-size="14.00">ExperimentHarness</text>
</g>
<!-- config.loader&#45;&gt;exec.harness -->
<g id="edge1" class="edge">
<title>config.loader&#45;&gt;exec.harness</title>
<path fill="none" stroke="black" stroke-dasharray="5,2" d="M73,-345.69C73,-292.96 73,-143 73,-143 73,-143 322.86,-143 322.86,-143"/>
<polygon fill="black" stroke="black" points="322.86,-146.5 332.86,-143 322.86,-139.5 322.86,-146.5"/>
<text text-anchor="middle" x="45" y="-249.55" font-family="Times,serif" font-size="14.00">loads</text>
</g>
<!-- exec.runner -->
<g id="node9" class="node">
<title>exec.runner</title>
<polygon fill="none" stroke="lightyellow" points="253.5,-271.25 100.5,-271.25 100.5,-235.25 253.5,-235.25 253.5,-271.25"/>
<text text-anchor="middle" x="177" y="-249.55" font-family="Times,serif" font-size="14.00">ExperimentRunner</text>
</g>
<!-- config.loader&#45;&gt;exec.runner -->
<g id="edge2" class="edge">
<title>config.loader&#45;&gt;exec.runner</title>
<path fill="none" stroke="black" stroke-dasharray="5,2" d="M106.25,-345.5C106.25,-345.5 106.25,-281.52 106.25,-281.52"/>
<polygon fill="black" stroke="black" points="109.75,-281.52 106.25,-271.52 102.75,-281.52 109.75,-281.52"/>
<text text-anchor="middle" x="150" y="-305.05" font-family="Times,serif" font-size="14.00">loads</text>
</g>
<!-- hw.rapl -->
<g id="node2" class="node">
<title>hw.rapl</title>
<polygon fill="none" stroke="lightgreen" points="396.5,-272.25 289.5,-272.25 289.5,-234.25 396.5,-234.25 396.5,-272.25"/>
<text text-anchor="middle" x="343" y="-257.05" font-family="Times,serif" font-size="14.00">RAPLReader</text>
<text text-anchor="middle" x="343" y="-242.05" font-family="Times,serif" font-size="14.00">(energy µJ)</text>
</g>
<!-- hw.rapl&#45;&gt;exec.harness -->
<g id="edge3" class="edge">
<title>hw.rapl&#45;&gt;exec.harness</title>
<path fill="none" stroke="blue" d="M364.75,-234.09C364.75,-234.09 364.75,-171.46 364.75,-171.46"/>
<polygon fill="blue" stroke="blue" points="368.25,-171.46 364.75,-161.46 361.25,-171.46 368.25,-171.46"/>
<text text-anchor="middle" x="368" y="-194.05" font-family="Times,serif" font-size="14.00">energy</text>
</g>
<!-- hw.msr -->
<g id="node3" class="node">
<title>hw.msr</title>
<polygon fill="none" stroke="lightgreen" points="535,-272.25 433,-272.25 433,-234.25 535,-234.25 535,-272.25"/>
<text text-anchor="middle" x="484" y="-257.05" font-family="Times,serif" font-size="14.00">MSRReader</text>
<text text-anchor="middle" x="484" y="-242.05" font-family="Times,serif" font-size="14.00">(C&#45;states)</text>
</g>
<!-- hw.msr&#45;&gt;exec.harness -->
<g id="edge4" class="edge">
<title>hw.msr&#45;&gt;exec.harness</title>
<path fill="none" stroke="blue" d="M463,-234.09C463,-234.09 463,-171.46 463,-171.46"/>
<polygon fill="blue" stroke="blue" points="466.5,-171.46 463,-161.46 459.5,-171.46 466.5,-171.46"/>
<text text-anchor="middle" x="513.5" y="-194.05" font-family="Times,serif" font-size="14.00">C&#45;states</text>
</g>
<!-- hw.perf -->
<g id="node4" class="node">
<title>hw.perf</title>
<polygon fill="none" stroke="lightgreen" points="673,-272.25 571,-272.25 571,-234.25 673,-234.25 673,-272.25"/>
<text text-anchor="middle" x="622" y="-257.05" font-family="Times,serif" font-size="14.00">PerfReader</text>
<text text-anchor="middle" x="622" y="-242.05" font-family="Times,serif" font-size="14.00">(IPC, cache)</text>
</g>
<!-- hw.perf&#45;&gt;exec.harness -->
<g id="edge5" class="edge">
<title>hw.perf&#45;&gt;exec.harness</title>
<path fill="none" stroke="blue" d="M583.75,-234.11C583.75,-205.27 583.75,-154 583.75,-154 583.75,-154 503.38,-154 503.38,-154"/>
<polygon fill="blue" stroke="blue" points="503.38,-150.5 493.38,-154 503.38,-157.5 503.38,-150.5"/>
<text text-anchor="middle" x="653.5" y="-194.05" font-family="Times,serif" font-size="14.00">counters</text>
</g>
<!-- hw.turbostat -->
<g id="node5" class="node">
<title>hw.turbostat</title>
<polygon fill="none" stroke="lightgreen" points="846.5,-272.25 709.5,-272.25 709.5,-234.25 846.5,-234.25 846.5,-272.25"/>
<text text-anchor="middle" x="778" y="-257.05" font-family="Times,serif" font-size="14.00">TurbostatReader</text>
<text text-anchor="middle" x="778" y="-242.05" font-family="Times,serif" font-size="14.00">(freq, temp)</text>
</g>
<!-- hw.turbostat&#45;&gt;exec.harness -->
<g id="edge6" class="edge">
<title>hw.turbostat&#45;&gt;exec.harness</title>
<path fill="none" stroke="blue" d="M718.5,-234.08C718.5,-203.23 718.5,-146 718.5,-146 718.5,-146 503.27,-146 503.27,-146"/>
<polygon fill="blue" stroke="blue" points="503.27,-142.5 493.27,-146 503.27,-149.5 503.27,-142.5"/>
<text text-anchor="middle" x="813.5" y="-194.05" font-family="Times,serif" font-size="14.00">freq/temp</text>
</g>
<!-- exec.linear -->
<g id="node7" class="node">
<title>exec.linear</title>
<polygon fill="none" stroke="lightyellow" points="172.5,-44.12 45.5,-44.12 45.5,-8.12 172.5,-8.12 172.5,-44.12"/>
<text text-anchor="middle" x="109" y="-22.43" font-family="Times,serif" font-size="14.00">LinearExecutor</text>
</g>
<!-- exec.harness&#45;&gt;exec.linear -->
<g id="edge10" class="edge">
<title>exec.harness&#45;&gt;exec.linear</title>
<path fill="none" stroke="black" stroke-dasharray="5,2" d="M332.65,-134C251.02,-134 136.5,-134 136.5,-134 136.5,-134 136.5,-54.42 136.5,-54.42"/>
<polygon fill="black" stroke="black" points="140,-54.42 136.5,-44.42 133,-54.42 140,-54.42"/>
<text text-anchor="middle" x="125.5" y="-85.05" font-family="Times,serif" font-size="14.00">calls</text>
</g>
<!-- exec.agentic -->
<g id="node8" class="node">
<title>exec.agentic</title>
<polygon fill="none" stroke="lightyellow" points="343.5,-44.12 208.5,-44.12 208.5,-8.12 343.5,-8.12 343.5,-44.12"/>
<text text-anchor="middle" x="276" y="-22.43" font-family="Times,serif" font-size="14.00">AgenticExecutor</text>
</g>
<!-- exec.harness&#45;&gt;exec.agentic -->
<g id="edge11" class="edge">
<title>exec.harness&#45;&gt;exec.agentic</title>
<path fill="none" stroke="black" stroke-dasharray="5,2" d="M338.25,-125.21C338.25,-125.21 338.25,-54.38 338.25,-54.38"/>
<polygon fill="black" stroke="black" points="341.75,-54.38 338.25,-44.38 334.75,-54.38 341.75,-54.38"/>
<text text-anchor="middle" x="292.5" y="-85.05" font-family="Times,serif" font-size="14.00">calls</text>
</g>
<!-- db.main -->
<g id="node10" class="node">
<title>db.main</title>
<path fill="none" stroke="lightcoral" d="M462.5,-47.6C462.5,-50.24 443.9,-52.38 421,-52.38 398.1,-52.38 379.5,-50.24 379.5,-47.6 379.5,-47.6 379.5,-4.65 379.5,-4.65 379.5,-2.01 398.1,0.13 421,0.13 443.9,0.13 462.5,-2.01 462.5,-4.65 462.5,-4.65 462.5,-47.6 462.5,-47.6"/>
<path fill="none" stroke="lightcoral" d="M462.5,-47.6C462.5,-44.97 443.9,-42.83 421,-42.83 398.1,-42.83 379.5,-44.97 379.5,-47.6"/>
<text text-anchor="middle" x="421" y="-29.93" font-family="Times,serif" font-size="14.00">Database</text>
<text text-anchor="middle" x="421" y="-14.93" font-family="Times,serif" font-size="14.00">(SQLite)</text>
</g>
<!-- exec.harness&#45;&gt;db.main -->
<g id="edge7" class="edge">
<title>exec.harness&#45;&gt;db.main</title>
<path fill="none" stroke="blue" d="M421,-125.21C421,-125.21 421,-62.68 421,-62.68"/>
<polygon fill="blue" stroke="blue" points="424.5,-62.68 421,-52.68 417.5,-62.68 424.5,-62.68"/>
<text text-anchor="middle" x="452.5" y="-85.05" font-family="Times,serif" font-size="14.00">insert runs</text>
</g>
<!-- db.runs -->
<g id="node11" class="node">
<title>db.runs</title>
<polygon fill="none" stroke="lightgrey" points="506,-8.12 506,-44.12 560,-44.12 560,-8.12 506,-8.12"/>
<text text-anchor="middle" x="533" y="-22.43" font-family="Times,serif" font-size="14.00">runs</text>
</g>
<!-- exec.harness&#45;&gt;db.runs -->
<g id="edge8" class="edge">
<title>exec.harness&#45;&gt;db.runs</title>
<path fill="none" stroke="blue" d="M493.1,-132C508.79,-132 520.5,-132 520.5,-132 520.5,-132 520.5,-54.57 520.5,-54.57"/>
<polygon fill="blue" stroke="blue" points="524,-54.57 520.5,-44.57 517,-54.57 524,-54.57"/>
<text text-anchor="middle" x="554.5" y="-85.05" font-family="Times,serif" font-size="14.00">insert</text>
</g>
<!-- db.energy -->
<g id="node13" class="node">
<title>db.energy</title>
<polygon fill="none" stroke="lightgrey" points="596.5,-8.12 596.5,-44.12 727.5,-44.12 727.5,-8.12 596.5,-8.12"/>
<text text-anchor="middle" x="662" y="-22.43" font-family="Times,serif" font-size="14.00">energy_samples</text>
</g>
<!-- exec.harness&#45;&gt;db.energy -->
<g id="edge9" class="edge">
<title>exec.harness&#45;&gt;db.energy</title>
<path fill="none" stroke="blue" d="M493.06,-139C556.57,-139 634.75,-139 634.75,-139 634.75,-139 634.75,-54.26 634.75,-54.26"/>
<polygon fill="blue" stroke="blue" points="638.25,-54.26 634.75,-44.26 631.25,-54.26 638.25,-54.26"/>
<text text-anchor="middle" x="691.5" y="-85.05" font-family="Times,serif" font-size="14.00">samples</text>
</g>
<!-- exec.runner&#45;&gt;exec.harness -->
<g id="edge12" class="edge">
<title>exec.runner&#45;&gt;exec.harness</title>
<path fill="none" stroke="black" stroke-dasharray="5,2" d="M231,-235.15C231,-206.03 231,-152 231,-152 231,-152 322.91,-152 322.91,-152"/>
<polygon fill="black" stroke="black" points="322.91,-155.5 332.91,-152 322.91,-148.5 322.91,-155.5"/>
<text text-anchor="middle" x="239.5" y="-194.05" font-family="Times,serif" font-size="14.00">uses</text>
</g>
<!-- db.experiments -->
<g id="node12" class="node">
<title>db.experiments</title>
<polygon fill="none" stroke="lightgrey" points="148,-345.75 148,-381.75 254,-381.75 254,-345.75 148,-345.75"/>
<text text-anchor="middle" x="201" y="-360.05" font-family="Times,serif" font-size="14.00">experiments</text>
</g>
</g>
</svg>
