<?xml version="1.0" encoding="UTF-8" standalone="no"?>
<!DOCTYPE svg PUBLIC "-//W3C//DTD SVG 1.1//EN"
 "http://www.w3.org/Graphics/SVG/1.1/DTD/svg11.dtd">
<!-- Generated by graphviz version 2.43.0 (0)
 -->
<!-- Title: %3 Pages: 1 -->
<svg width="957pt" height="421pt"
 viewBox="0.00 0.00 957.00 421.00" xmlns="http://www.w3.org/2000/svg" xmlns:xlink="http://www.w3.org/1999/xlink">
<g id="graph0" class="graph" transform="scale(1 1) rotate(0) translate(4 417)">
<title>%3</title>
<polygon fill="white" stroke="transparent" points="-4,4 -4,-417 953,-417 953,4 -4,4"/>
<!-- engine.start -->
<g id="node1" class="node">
<title>engine.start</title>
<polygon fill="lightblue" stroke="lightblue" points="143,-272 0,-272 0,-236 143,-236 143,-272"/>
<text text-anchor="middle" x="71.5" y="-250.3" font-family="Helvetica,sans-Serif" font-size="14.00">start_measurement()</text>
</g>
<!-- engine.thread -->
<g id="node2" class="node">
<title>engine.thread</title>
<polygon fill="lightblue" stroke="lightblue" points="329,-233 208,-233 208,-195 329,-195 329,-233"/>
<text text-anchor="middle" x="268.5" y="-217.8" font-family="Helvetica,sans-Serif" font-size="14.00">_sampling_loop()</text>
<text text-anchor="middle" x="268.5" y="-202.8" font-family="Helvetica,sans-Serif" font-size="14.00">100Hz</text>
</g>
<!-- engine.start&#45;&gt;engine.thread -->
<g id="edge1" class="edge">
<title>engine.start&#45;&gt;engine.thread</title>
<path fill="none" stroke="blue" d="M143.28,-236.79C157.01,-234.04 173.94,-230.9 197.9,-226.59"/>
<polygon fill="blue" stroke="blue" points="198.59,-230.02 207.82,-224.81 197.36,-223.13 198.59,-230.02"/>
<text text-anchor="middle" x="175.5" y="-257.8" font-family="Times,serif" font-size="14.00">starts</text>
</g>
<!-- engine.rapl -->
<g id="node3" class="node">
<title>engine.rapl</title>
<polygon fill="lightgreen" stroke="lightgreen" points="509,-272 413,-272 413,-234 509,-234 509,-272"/>
<text text-anchor="middle" x="461" y="-256.8" font-family="Helvetica,sans-Serif" font-size="14.00">RAPLReader</text>
<text text-anchor="middle" x="461" y="-241.8" font-family="Helvetica,sans-Serif" font-size="14.00">(energy µJ)</text>
</g>
<!-- engine.thread&#45;&gt;engine.rapl -->
<g id="edge2" class="edge">
<title>engine.thread&#45;&gt;engine.rapl</title>
<path fill="none" stroke="blue" d="M306.5,-233.04C329.61,-242.82 350.3,-246 402.7,-249.49"/>
<polygon fill="blue" stroke="blue" points="402.66,-253 412.86,-250.15 403.11,-246.01 402.66,-253"/>
<text text-anchor="middle" x="365.5" y="-251.8" font-family="Times,serif" font-size="14.00">100Hz</text>
</g>
<!-- engine.msr -->
<g id="node4" class="node">
<title>engine.msr</title>
<polygon fill="lightgreen" stroke="lightgreen" points="507,-365 415,-365 415,-327 507,-327 507,-365"/>
<text text-anchor="middle" x="461" y="-349.8" font-family="Helvetica,sans-Serif" font-size="14.00">MSRReader</text>
<text text-anchor="middle" x="461" y="-334.8" font-family="Helvetica,sans-Serif" font-size="14.00">(C&#45;states)</text>
</g>
<!-- engine.thread&#45;&gt;engine.msr -->
<g id="edge3" class="edge">
<title>engine.thread&#45;&gt;engine.msr</title>
<path fill="none" stroke="blue" d="M280.68,-233.37C319.57,-294.75 332.68,-307.38 405.2,-329.7"/>
<polygon fill="blue" stroke="blue" points="404.26,-333.07 414.84,-332.62 406.29,-326.37 404.26,-333.07"/>
<text text-anchor="middle" x="365.5" y="-331.8" font-family="Times,serif" font-size="14.00">100Hz</text>
</g>
<!-- engine.perf -->
<g id="node5" class="node">
<title>engine.perf</title>
<polygon fill="lightgreen" stroke="lightgreen" points="507,-71 415,-71 415,-33 507,-33 507,-71"/>
<text text-anchor="middle" x="461" y="-55.8" font-family="Helvetica,sans-Serif" font-size="14.00">PerfReader</text>
<text text-anchor="middle" x="461" y="-40.8" font-family="Helvetica,sans-Serif" font-size="14.00">(IPC, cache)</text>
</g>
<!-- engine.thread&#45;&gt;engine.perf -->
<g id="edge4" class="edge">
<title>engine.thread&#45;&gt;engine.perf</title>
<path fill="none" stroke="blue" d="M278.02,-194.89C314.86,-121.46 326.74,-106.99 405.4,-74.29"/>
<polygon fill="blue" stroke="blue" points="406.88,-77.47 414.8,-70.42 404.22,-70.99 406.88,-77.47"/>
<text text-anchor="middle" x="365.5" y="-93.8" font-family="Times,serif" font-size="14.00">100Hz</text>
</g>
<!-- engine.turbostat -->
<g id="node6" class="node">
<title>engine.turbostat</title>
<polygon fill="lightgreen" stroke="lightgreen" points="520,-191 402,-191 402,-153 520,-153 520,-191"/>
<text text-anchor="middle" x="461" y="-175.8" font-family="Helvetica,sans-Serif" font-size="14.00">TurbostatReader</text>
<text text-anchor="middle" x="461" y="-160.8" font-family="Helvetica,sans-Serif" font-size="14.00">(10Hz)</text>
</g>
<!-- engine.thread&#45;&gt;engine.turbostat -->
<g id="edge5" class="edge">
<title>engine.thread&#45;&gt;engine.turbostat</title>
<path fill="none" stroke="blue" d="M320.61,-194.96C337.31,-190.38 356.92,-186.88 391.7,-181.77"/>
<polygon fill="blue" stroke="blue" points="392.53,-185.19 401.92,-180.29 391.52,-178.26 392.53,-185.19"/>
<text text-anchor="middle" x="365.5" y="-184.8" font-family="Times,serif" font-size="14.00">10Hz</text>
</g>
<!-- engine.samples -->
<g id="node7" class="node">
<title>engine.samples</title>
<path fill="lightyellow" stroke="lightyellow" d="M681,-206.48C681,-209.11 653.21,-211.25 619,-211.25 584.79,-211.25 557,-209.11 557,-206.48 557,-206.48 557,-163.52 557,-163.52 557,-160.89 584.79,-158.75 619,-158.75 653.21,-158.75 681,-160.89 681,-163.52 681,-163.52 681,-206.48 681,-206.48"/>
<path fill="none" stroke="lightyellow" d="M681,-206.48C681,-203.84 653.21,-201.7 619,-201.7 584.79,-201.7 557,-203.84 557,-206.48"/>
<text text-anchor="middle" x="619" y="-188.8" font-family="Helvetica,sans-Serif" font-size="14.00">_sampling_queue</text>
<text text-anchor="middle" x="619" y="-173.8" font-family="Helvetica,sans-Serif" font-size="14.00">(100Hz samples)</text>
</g>
<!-- engine.rapl&#45;&gt;engine.samples -->
<g id="edge6" class="edge">
<title>engine.rapl&#45;&gt;engine.samples</title>
<path fill="none" stroke="blue" d="M509.13,-242.53C547.46,-233.84 565.48,-228.12 581.62,-217.41"/>
<polygon fill="blue" stroke="blue" points="583.97,-220.04 589.99,-211.32 579.85,-214.38 583.97,-220.04"/>
</g>
<!-- engine.raw -->
<g id="node9" class="node">
<title>engine.raw</title>
<polygon fill="lightyellow" stroke="lightyellow" points="949,-203 779,-203 779,-167 949,-167 949,-203"/>
<text text-anchor="middle" x="864" y="-181.3" font-family="Helvetica,sans-Serif" font-size="14.00">RawEnergyMeasurement</text>
</g>
<!-- engine.rapl&#45;&gt;engine.raw -->
<g id="edge12" class="edge">
<title>engine.rapl&#45;&gt;engine.raw</title>
<path fill="none" stroke="blue" d="M509.34,-248.66C693.64,-232.05 737.54,-226.98 802.46,-206.21"/>
<polygon fill="blue" stroke="blue" points="803.79,-209.46 812.21,-203.03 801.62,-202.8 803.79,-209.46"/>
<text text-anchor="middle" x="619" y="-300.8" font-family="Times,serif" font-size="14.00">final</text>
</g>
<!-- engine.msr&#45;&gt;engine.samples -->
<g id="edge7" class="edge">
<title>engine.msr&#45;&gt;engine.samples</title>
<path fill="none" stroke="blue" d="M503.96,-326.92C563.1,-299.55 575.85,-285.08 603.84,-220.7"/>
<polygon fill="blue" stroke="blue" points="607.16,-221.84 607.9,-211.28 600.73,-219.08 607.16,-221.84"/>
</g>
<!-- engine.msr&#45;&gt;engine.raw -->
<g id="edge13" class="edge">
<title>engine.msr&#45;&gt;engine.raw</title>
<path fill="none" stroke="blue" d="M507.23,-337.57C723.79,-297.91 748.28,-289.48 836.43,-210.1"/>
<polygon fill="blue" stroke="blue" points="838.95,-212.54 844.02,-203.23 834.25,-207.34 838.95,-212.54"/>
<text text-anchor="middle" x="619" y="-401.8" font-family="Times,serif" font-size="14.00">final</text>
</g>
<!-- engine.perf&#45;&gt;engine.samples -->
<g id="edge8" class="edge">
<title>engine.perf&#45;&gt;engine.samples</title>
<path fill="none" stroke="blue" d="M507.1,-67.55C557.64,-85.81 571.3,-98.69 599.84,-149.75"/>
<polygon fill="blue" stroke="blue" points="596.86,-151.58 604.76,-158.64 602.98,-148.19 596.86,-151.58"/>
</g>
<!-- engine.perf&#45;&gt;engine.raw -->
<g id="edge14" class="edge">
<title>engine.perf&#45;&gt;engine.raw</title>
<path fill="none" stroke="blue" d="M507.34,-57.5C718.81,-82.79 744.43,-89.7 833.62,-160.56"/>
<polygon fill="blue" stroke="blue" points="831.59,-163.41 841.59,-166.92 835.96,-157.94 831.59,-163.41"/>
<text text-anchor="middle" x="619" y="-3.8" font-family="Times,serif" font-size="14.00">final</text>
</g>
<!-- engine.turbostat&#45;&gt;engine.samples -->
<g id="edge9" class="edge">
<title>engine.turbostat&#45;&gt;engine.samples</title>
<path fill="none" stroke="blue" d="M520.27,-170.59C530.61,-170.44 539.23,-170.44 546.72,-170.61"/>
<polygon fill="blue" stroke="blue" points="546.8,-174.12 556.93,-171 547.07,-167.12 546.8,-174.12"/>
</g>
<!-- engine.turbostat&#45;&gt;engine.raw -->
<g id="edge15" class="edge">
<title>engine.turbostat&#45;&gt;engine.raw</title>
<path fill="none" stroke="blue" d="M520.29,-171.54C663.25,-170.45 718.08,-170.5 768.54,-174.38"/>
<polygon fill="blue" stroke="blue" points="768.34,-177.88 778.6,-175.21 768.92,-170.9 768.34,-177.88"/>
<text text-anchor="middle" x="619" y="-104.8" font-family="Times,serif" font-size="14.00">final</text>
</g>
<!-- engine.samples&#45;&gt;engine.raw -->
<g id="edge11" class="edge">
<title>engine.samples&#45;&gt;engine.raw</title>
<path fill="none" stroke="blue" d="M681.08,-184.08C721.24,-183.5 748,-183.17 768.81,-183.09"/>
<polygon fill="blue" stroke="blue" points="768.89,-186.59 778.88,-183.08 768.88,-179.59 768.89,-186.59"/>
<text text-anchor="middle" x="730" y="-188.8" font-family="Times,serif" font-size="14.00">all samples</text>
</g>
<!-- engine.stop -->
<g id="node8" class="node">
<title>engine.stop</title>
<polygon fill="lightblue" stroke="lightblue" points="143,-193 0,-193 0,-157 143,-157 143,-193"/>
<text text-anchor="middle" x="71.5" y="-171.3" font-family="Helvetica,sans-Serif" font-size="14.00">stop_measurement()</text>
</g>
<!-- engine.stop&#45;&gt;engine.thread -->
<g id="edge10" class="edge">
<title>engine.stop&#45;&gt;engine.thread</title>
<path fill="none" stroke="blue" d="M134.83,-193.03C149.99,-196.2 168.66,-199.29 197.6,-203.63"/>
<polygon fill="blue" stroke="blue" points="197.41,-207.14 207.82,-205.15 198.44,-200.22 197.41,-207.14"/>
<text text-anchor="middle" x="175.5" y="-178.8" font-family="Times,serif" font-size="14.00">stops</text>
</g>
</g>
</svg>
