<?xml version="1.0" encoding="UTF-8" standalone="no"?>
<!DOCTYPE svg PUBLIC "-//W3C//DTD SVG 1.1//EN"
 "http://www.w3.org/Graphics/SVG/1.1/DTD/svg11.dtd">
<!-- Generated by graphviz version 2.42.4 (0)
 -->
<!-- Pages: 1 -->
<svg width="218pt" height="864pt"
 viewBox="0.00 0.00 217.58 864.39" xmlns="http://www.w3.org/2000/svg" xmlns:xlink="http://www.w3.org/1999/xlink">
<g id="graph0" class="graph" transform="scale(1 1) rotate(0) translate(4 860.39)">
<polygon fill="white" stroke="transparent" points="-4,4 -4,-860.39 213.58,-860.39 213.58,4 -4,4"/>
<!-- lifecycle.start -->
<g id="node1" class="node">
<title>lifecycle.start</title>
<ellipse fill="none" stroke="black" cx="116.5" cy="-821.94" rx="34.39" ry="34.39"/>
<text text-anchor="middle" x="116.5" y="-818.24" font-family="Times,serif" font-size="14.00">Start</text>
</g>
<!-- lifecycle.warmup -->
<g id="node2" class="node">
<title>lifecycle.warmup</title>
<polygon fill="none" stroke="black" points="157,-742.49 76,-742.49 76,-704.49 157,-704.49 157,-742.49"/>
<text text-anchor="middle" x="116.5" y="-727.29" font-family="Times,serif" font-size="14.00">Warm&#45;up</text>
<text text-anchor="middle" x="116.5" y="-712.29" font-family="Times,serif" font-size="14.00">(5s)</text>
</g>
<!-- lifecycle.start&#45;&gt;lifecycle.warmup -->
<g id="edge1" class="edge">
<title>lifecycle.start&#45;&gt;lifecycle.warmup</title>
<path fill="none" stroke="black" d="M116.5,-787.48C116.5,-776.22 116.5,-763.77 116.5,-752.93"/>
<polygon fill="black" stroke="black" points="120,-752.73 116.5,-742.73 113,-752.73 120,-752.73"/>
</g>
<!-- lifecycle.baseline -->
<g id="node3" class="node">
<title>lifecycle.baseline</title>
<polygon fill="none" stroke="black" points="119,-659.49 0,-659.49 0,-621.49 119,-621.49 119,-659.49"/>
<text text-anchor="middle" x="59.5" y="-644.29" font-family="Times,serif" font-size="14.00">Baseline</text>
<text text-anchor="middle" x="59.5" y="-629.29" font-family="Times,serif" font-size="14.00">(measure idle)</text>
</g>
<!-- lifecycle.warmup&#45;&gt;lifecycle.baseline -->
<g id="edge2" class="edge">
<title>lifecycle.warmup&#45;&gt;lifecycle.baseline</title>
<path fill="none" stroke="black" d="M103.57,-704.11C96.01,-693.37 86.34,-679.64 77.99,-667.77"/>
<polygon fill="black" stroke="black" points="80.8,-665.69 72.19,-659.52 75.08,-669.72 80.8,-665.69"/>
</g>
<!-- lifecycle.linear -->
<g id="node4" class="node">
<title>lifecycle.linear</title>
<polygon fill="none" stroke="black" points="107,-576.49 12,-576.49 12,-540.49 107,-540.49 107,-576.49"/>
<text text-anchor="middle" x="59.5" y="-554.79" font-family="Times,serif" font-size="14.00">Linear Run</text>
</g>
<!-- lifecycle.baseline&#45;&gt;lifecycle.linear -->
<g id="edge3" class="edge">
<title>lifecycle.baseline&#45;&gt;lifecycle.linear</title>
<path fill="none" stroke="black" d="M59.5,-621.34C59.5,-611.21 59.5,-598.38 59.5,-587.04"/>
<polygon fill="black" stroke="black" points="63,-586.75 59.5,-576.75 56,-586.75 63,-586.75"/>
</g>
<!-- lifecycle.cooldown1 -->
<g id="node5" class="node">
<title>lifecycle.cooldown1</title>
<polygon fill="none" stroke="black" points="105,-495.49 14,-495.49 14,-457.49 105,-457.49 105,-495.49"/>
<text text-anchor="middle" x="59.5" y="-480.29" font-family="Times,serif" font-size="14.00">Cool&#45;down</text>
<text text-anchor="middle" x="59.5" y="-465.29" font-family="Times,serif" font-size="14.00">(2s)</text>
</g>
<!-- lifecycle.linear&#45;&gt;lifecycle.cooldown1 -->
<g id="edge4" class="edge">
<title>lifecycle.linear&#45;&gt;lifecycle.cooldown1</title>
<path fill="none" stroke="black" d="M59.5,-540.14C59.5,-530.07 59.5,-517.16 59.5,-505.68"/>
<polygon fill="black" stroke="black" points="63,-505.65 59.5,-495.65 56,-505.65 63,-505.65"/>
</g>
<!-- lifecycle.agentic -->
<g id="node6" class="node">
<title>lifecycle.agentic</title>
<polygon fill="none" stroke="black" points="111.5,-398.49 7.5,-398.49 7.5,-362.49 111.5,-362.49 111.5,-398.49"/>
<text text-anchor="middle" x="59.5" y="-376.79" font-family="Times,serif" font-size="14.00">Agentic Run</text>
</g>
<!-- lifecycle.cooldown1&#45;&gt;lifecycle.agentic -->
<g id="edge5" class="edge">
<title>lifecycle.cooldown1&#45;&gt;lifecycle.agentic</title>
<path fill="none" stroke="black" d="M59.5,-457.37C59.5,-443.59 59.5,-424.39 59.5,-408.76"/>
<polygon fill="black" stroke="black" points="63,-408.61 59.5,-398.61 56,-408.61 63,-408.61"/>
</g>
<!-- lifecycle.cooldown2 -->
<g id="node7" class="node">
<title>lifecycle.cooldown2</title>
<polygon fill="none" stroke="black" points="107,-317.49 16,-317.49 16,-279.49 107,-279.49 107,-317.49"/>
<text text-anchor="middle" x="61.5" y="-302.29" font-family="Times,serif" font-size="14.00">Cool&#45;down</text>
<text text-anchor="middle" x="61.5" y="-287.29" font-family="Times,serif" font-size="14.00">(2s)</text>
</g>
<!-- lifecycle.agentic&#45;&gt;lifecycle.cooldown2 -->
<g id="edge6" class="edge">
<title>lifecycle.agentic&#45;&gt;lifecycle.cooldown2</title>
<path fill="none" stroke="black" d="M59.93,-362.14C60.19,-352.07 60.51,-339.16 60.8,-327.68"/>
<polygon fill="black" stroke="black" points="64.29,-327.74 61.05,-317.65 57.3,-327.56 64.29,-327.74"/>
</g>
<!-- lifecycle.store -->
<g id="node8" class="node">
<title>lifecycle.store</title>
<polygon fill="none" stroke="black" points="119,-234.49 10,-234.49 10,-198.49 119,-198.49 119,-234.49"/>
<text text-anchor="middle" x="64.5" y="-212.79" font-family="Times,serif" font-size="14.00">Save Results</text>
</g>
<!-- lifecycle.cooldown2&#45;&gt;lifecycle.store -->
<g id="edge7" class="edge">
<title>lifecycle.cooldown2&#45;&gt;lifecycle.store</title>
<path fill="none" stroke="black" d="M62.18,-279.34C62.56,-269.21 63.04,-256.38 63.47,-245.04"/>
<polygon fill="black" stroke="black" points="66.98,-244.88 63.85,-234.75 59.98,-244.62 66.98,-244.88"/>
</g>
<!-- lifecycle.decision -->
<g id="node9" class="node">
<title>lifecycle.decision</title>
<polygon fill="none" stroke="black" points="119.5,-153.49 29.35,-135.49 119.5,-117.49 209.65,-135.49 119.5,-153.49"/>
<text text-anchor="middle" x="119.5" y="-131.79" font-family="Times,serif" font-size="14.00">More reps?</text>
</g>
<!-- lifecycle.store&#45;&gt;lifecycle.decision -->
<g id="edge8" class="edge">
<title>lifecycle.store&#45;&gt;lifecycle.decision</title>
<path fill="none" stroke="black" d="M76.43,-198.35C84.26,-187.11 94.61,-172.25 103.19,-159.92"/>
<polygon fill="black" stroke="black" points="106.23,-161.68 109.07,-151.47 100.49,-157.68 106.23,-161.68"/>
</g>
<!-- lifecycle.decision&#45;&gt;lifecycle.warmup -->
<g id="edge9" class="edge">
<title>lifecycle.decision&#45;&gt;lifecycle.warmup</title>
<path fill="none" stroke="black" d="M136.9,-150.21C153.02,-164.58 174.5,-188.76 174.5,-215.49 174.5,-641.49 174.5,-641.49 174.5,-641.49 174.5,-663 160.82,-682.72 146.75,-697.32"/>
<polygon fill="black" stroke="black" points="144.13,-694.98 139.42,-704.47 149.02,-699.99 144.13,-694.98"/>
<text text-anchor="middle" x="187" y="-424.29" font-family="Times,serif" font-size="14.00">yes</text>
</g>
<!-- lifecycle.end -->
<g id="node10" class="node">
<title>lifecycle.end</title>
<ellipse fill="none" stroke="black" cx="119.5" cy="-29.25" rx="29.5" ry="29.5"/>
<text text-anchor="middle" x="119.5" y="-25.55" font-family="Times,serif" font-size="14.00">End</text>
</g>
<!-- lifecycle.decision&#45;&gt;lifecycle.end -->
<g id="edge10" class="edge">
<title>lifecycle.decision&#45;&gt;lifecycle.end</title>
<path fill="none" stroke="black" d="M119.5,-117.28C119.5,-104.06 119.5,-85.3 119.5,-68.58"/>
<polygon fill="black" stroke="black" points="123,-68.5 119.5,-58.5 116,-68.5 123,-68.5"/>
<text text-anchor="middle" x="128.5" y="-84.29" font-family="Times,serif" font-size="14.00">no</text>
</g>
</g>
</svg>
