<?xml version="1.0" encoding="UTF-8" standalone="no"?>
<!DOCTYPE svg PUBLIC "-//W3C//DTD SVG 1.1//EN"
 "http://www.w3.org/Graphics/SVG/1.1/DTD/svg11.dtd">
<!-- Generated by graphviz version 2.42.4 (0)
 -->
<!-- Pages: 1 -->
<svg width="1750pt" height="44pt"
 viewBox="0.00 0.00 1750.00 44.00" xmlns="http://www.w3.org/2000/svg" xmlns:xlink="http://www.w3.org/1999/xlink">
<g id="graph0" class="graph" transform="scale(1 1) rotate(0) translate(4 40)">
<polygon fill="white" stroke="transparent" points="-4,4 -4,-40 1746,-40 1746,4 -4,4"/>
<!-- harness.start -->
<g id="node1" class="node">
<title>harness.start</title>
<polygon fill="none" stroke="lightyellow" points="199,-36 0,-36 0,0 199,0 199,-36"/>
<text text-anchor="middle" x="99.5" y="-14.3" font-family="Times,serif" font-size="14.00">run_linear()/run_agentic()</text>
</g>
<!-- harness.measure -->
<g id="node2" class="node">
<title>harness.measure</title>
<polygon fill="none" stroke="lightyellow" points="520,-36 245,-36 245,0 520,0 520,-36"/>
<text text-anchor="middle" x="382.5" y="-14.3" font-family="Times,serif" font-size="14.00">energy_engine.start_measurement()</text>
</g>
<!-- harness.start&#45;&gt;harness.measure -->
<g id="edge1" class="edge">
<title>harness.start&#45;&gt;harness.measure</title>
<path fill="none" stroke="black" d="M199.38,-18C209.65,-18 221.12,-18 234.64,-18"/>
<polygon fill="black" stroke="black" points="234.86,-21.5 244.86,-18 234.86,-14.5 234.86,-21.5"/>
<text text-anchor="middle" x="222" y="-21.8" font-family="Times,serif" font-size="14.00">1</text>
</g>
<!-- harness.execute -->
<g id="node3" class="node">
<title>harness.execute</title>
<polygon fill="none" stroke="lightyellow" points="714,-36 566,-36 566,0 714,0 714,-36"/>
<text text-anchor="middle" x="640" y="-14.3" font-family="Times,serif" font-size="14.00">executor.execute()</text>
</g>
<!-- harness.measure&#45;&gt;harness.execute -->
<g id="edge2" class="edge">
<title>harness.measure&#45;&gt;harness.execute</title>
<path fill="none" stroke="black" d="M520.11,-18C530.49,-18 542.09,-18 555.24,-18"/>
<polygon fill="black" stroke="black" points="555.6,-21.5 565.6,-18 555.6,-14.5 555.6,-21.5"/>
<text text-anchor="middle" x="543" y="-21.8" font-family="Times,serif" font-size="14.00">2</text>
</g>
<!-- harness.stop -->
<g id="node4" class="node">
<title>harness.stop</title>
<polygon fill="none" stroke="lightyellow" points="1032,-36 760,-36 760,0 1032,0 1032,-36"/>
<text text-anchor="middle" x="896" y="-14.3" font-family="Times,serif" font-size="14.00">energy_engine.stop_measurement()</text>
</g>
<!-- harness.execute&#45;&gt;harness.stop -->
<g id="edge3" class="edge">
<title>harness.execute&#45;&gt;harness.stop</title>
<path fill="none" stroke="black" d="M714.07,-18C724.48,-18 735.85,-18 749.74,-18"/>
<polygon fill="black" stroke="black" points="749.79,-21.5 759.79,-18 749.79,-14.5 749.79,-21.5"/>
<text text-anchor="middle" x="737" y="-21.8" font-family="Times,serif" font-size="14.00">3</text>
</g>
<!-- harness.analyze -->
<g id="node5" class="node">
<title>harness.analyze</title>
<polygon fill="none" stroke="lightyellow" points="1287,-36 1078,-36 1078,0 1287,0 1287,-36"/>
<text text-anchor="middle" x="1182.5" y="-14.3" font-family="Times,serif" font-size="14.00">energy_analyzer.compute()</text>
</g>
<!-- harness.stop&#45;&gt;harness.analyze -->
<g id="edge4" class="edge">
<title>harness.stop&#45;&gt;harness.analyze</title>
<path fill="none" stroke="black" d="M1032.18,-18C1045.76,-18 1057.44,-18 1067.85,-18"/>
<polygon fill="black" stroke="black" points="1067.85,-21.5 1077.85,-18 1067.85,-14.5 1067.85,-21.5"/>
<text text-anchor="middle" x="1055" y="-21.8" font-family="Times,serif" font-size="14.00">4</text>
</g>
<!-- harness.sustain -->
<g id="node6" class="node">
<title>harness.sustain</title>
<polygon fill="none" stroke="lightyellow" points="1523,-36 1333,-36 1333,0 1523,0 1523,-36"/>
<text text-anchor="middle" x="1428" y="-14.3" font-family="Times,serif" font-size="14.00">sustainability.calculate()</text>
</g>
<!-- harness.analyze&#45;&gt;harness.sustain -->
<g id="edge5" class="edge">
<title>harness.analyze&#45;&gt;harness.sustain</title>
<path fill="none" stroke="black" d="M1287.09,-18C1300.84,-18 1312.49,-18 1322.71,-18"/>
<polygon fill="black" stroke="black" points="1322.88,-21.5 1332.88,-18 1322.88,-14.5 1322.88,-21.5"/>
<text text-anchor="middle" x="1310" y="-21.8" font-family="Times,serif" font-size="14.00">5</text>
</g>
<!-- harness.ml -->
<g id="node7" class="node">
<title>harness.ml</title>
<polygon fill="none" stroke="lightyellow" points="1742,-36 1569,-36 1569,0 1742,0 1742,-36"/>
<text text-anchor="middle" x="1655.5" y="-14.3" font-family="Times,serif" font-size="14.00">build ml_features dict</text>
</g>
<!-- harness.sustain&#45;&gt;harness.ml -->
<g id="edge6" class="edge">
<title>harness.sustain&#45;&gt;harness.ml</title>
<path fill="none" stroke="black" d="M1523.04,-18C1536.99,-18 1548.64,-18 1558.78,-18"/>
<polygon fill="black" stroke="black" points="1558.83,-21.5 1568.83,-18 1558.83,-14.5 1558.83,-21.5"/>
<text text-anchor="middle" x="1546" y="-21.8" font-family="Times,serif" font-size="14.00">6</text>
</g>
</g>
</svg>
