<?xml version="1.0" encoding="UTF-8" standalone="no"?>
<!DOCTYPE svg PUBLIC "-//W3C//DTD SVG 1.1//EN"
 "http://www.w3.org/Graphics/SVG/1.1/DTD/svg11.dtd">
<!-- Generated by graphviz version 2.42.4 (0)
 -->
<!-- Pages: 1 -->
<svg width="1444pt" height="503pt"
 viewBox="0.00 0.00 1444.00 503.00" xmlns="http://www.w3.org/2000/svg" xmlns:xlink="http://www.w3.org/1999/xlink">
<g id="graph0" class="graph" transform="scale(1 1) rotate(0) translate(4 499)">
<polygon fill="white" stroke="transparent" points="-4,4 -4,-499 1440,-499 1440,4 -4,4"/>
<!-- tax.linear -->
<g id="node1" class="node">
<title>tax.linear</title>
<polygon fill="none" stroke="lightgreen" points="897.5,-485 764.5,-485 764.5,-447 897.5,-447 897.5,-485"/>
<text text-anchor="middle" x="831" y="-469.8" font-family="Times,serif" font-size="14.00">Linear Workflow</text>
<text text-anchor="middle" x="831" y="-454.8" font-family="Times,serif" font-size="14.00">Single LLM Call</text>
</g>
<!-- tax.core -->
<g id="node6" class="node">
<title>tax.core</title>
<polygon fill="none" stroke="lightblue" points="1177,-347 1061,-347 1061,-309 1177,-309 1177,-347"/>
<text text-anchor="middle" x="1119" y="-331.8" font-family="Times,serif" font-size="14.00">Core Energy</text>
<text text-anchor="middle" x="1119" y="-316.8" font-family="Times,serif" font-size="14.00">(computation)</text>
</g>
<!-- tax.linear&#45;&gt;tax.core -->
<g id="edge1" class="edge">
<title>tax.linear&#45;&gt;tax.core</title>
<path fill="none" stroke="blue" d="M857.34,-446.89C907.99,-410.72 931.14,-399.86 1059.73,-350.62"/>
<polygon fill="blue" stroke="blue" points="1061.09,-353.85 1069.18,-347 1058.59,-347.31 1061.09,-353.85"/>
<text text-anchor="middle" x="960" y="-441.8" font-family="Times,serif" font-size="14.00">core_energy</text>
</g>
<!-- tax.agentic -->
<g id="node2" class="node">
<title>tax.agentic</title>
<polygon fill="none" stroke="lightcoral" points="228,-203 0,-203 0,-165 228,-165 228,-203"/>
<text text-anchor="middle" x="114" y="-187.8" font-family="Times,serif" font-size="14.00">Agentic Workflow</text>
<text text-anchor="middle" x="114" y="-172.8" font-family="Times,serif" font-size="14.00">Planning + Tools + Synthesis</text>
</g>
<!-- tax.planning -->
<g id="node3" class="node">
<title>tax.planning</title>
<polygon fill="none" stroke="lightyellow" points="447,-202 320,-202 320,-166 447,-166 447,-202"/>
<text text-anchor="middle" x="383.5" y="-180.3" font-family="Times,serif" font-size="14.00">Planning Phase</text>
</g>
<!-- tax.agentic&#45;&gt;tax.planning -->
<g id="edge3" class="edge">
<title>tax.agentic&#45;&gt;tax.planning</title>
<path fill="none" stroke="black" d="M228.3,-174.2C248.69,-174.81 274.17,-176.32 309.51,-178.74"/>
<polygon fill="black" stroke="black" points="309.52,-182.25 319.74,-179.45 310,-175.27 309.52,-182.25"/>
<text text-anchor="middle" x="274" y="-187.8" font-family="Times,serif" font-size="14.00">phase 1</text>
</g>
<!-- tax.execution -->
<g id="node4" class="node">
<title>tax.execution</title>
<polygon fill="none" stroke="lightyellow" points="661,-202 539,-202 539,-166 661,-166 661,-202"/>
<text text-anchor="middle" x="600" y="-180.3" font-family="Times,serif" font-size="14.00">Tool Execution</text>
</g>
<!-- tax.planning&#45;&gt;tax.execution -->
<g id="edge4" class="edge">
<title>tax.planning&#45;&gt;tax.execution</title>
<path fill="none" stroke="black" d="M447.01,-169.37C466.76,-167.61 489.07,-169.25 528.57,-174.27"/>
<polygon fill="black" stroke="black" points="528.33,-177.77 538.7,-175.59 529.23,-170.83 528.33,-177.77"/>
<text text-anchor="middle" x="493" y="-187.8" font-family="Times,serif" font-size="14.00">phase 2</text>
</g>
<!-- tax.planning&#45;&gt;tax.core -->
<g id="edge6" class="edge">
<title>tax.planning&#45;&gt;tax.core</title>
<path fill="none" stroke="blue" d="M447.22,-185.51C858.97,-195.45 895.38,-200.94 1076.77,-303.87"/>
<polygon fill="blue" stroke="blue" points="1075.1,-306.94 1085.52,-308.84 1078.56,-300.86 1075.1,-306.94"/>
<text text-anchor="middle" x="712.5" y="-371.8" font-family="Times,serif" font-size="14.00">core</text>
</g>
<!-- tax.uncore -->
<g id="node7" class="node">
<title>tax.uncore</title>
<polygon fill="none" stroke="lightcoral" points="1216,-163 1022,-163 1022,-125 1216,-125 1216,-163"/>
<text text-anchor="middle" x="1119" y="-147.8" font-family="Times,serif" font-size="14.00">Uncore Energy</text>
<text text-anchor="middle" x="1119" y="-132.8" font-family="Times,serif" font-size="14.00">(orchestration overhead)</text>
</g>
<!-- tax.planning&#45;&gt;tax.uncore -->
<g id="edge9" class="edge">
<title>tax.planning&#45;&gt;tax.uncore</title>
<path fill="none" stroke="blue" d="M428.17,-165.99C763.09,-31.16 796.55,-25.9 1057.79,-121.42"/>
<polygon fill="blue" stroke="blue" points="1056.59,-124.71 1067.18,-124.87 1059,-118.14 1056.59,-124.71"/>
<text text-anchor="middle" x="712.5" y="-3.8" font-family="Times,serif" font-size="14.00">overhead</text>
</g>
<!-- tax.synthesis -->
<g id="node5" class="node">
<title>tax.synthesis</title>
<polygon fill="none" stroke="lightyellow" points="898,-202 764,-202 764,-166 898,-166 898,-202"/>
<text text-anchor="middle" x="831" y="-180.3" font-family="Times,serif" font-size="14.00">Synthesis Phase</text>
</g>
<!-- tax.execution&#45;&gt;tax.synthesis -->
<g id="edge5" class="edge">
<title>tax.execution&#45;&gt;tax.synthesis</title>
<path fill="none" stroke="black" d="M645.69,-165.92C701.1,-145.02 722.74,-143.9 775.3,-162.55"/>
<polygon fill="black" stroke="black" points="774.15,-165.85 784.74,-165.98 776.54,-159.28 774.15,-165.85"/>
<text text-anchor="middle" x="712.5" y="-187.8" font-family="Times,serif" font-size="14.00">phase 3</text>
</g>
<!-- tax.execution&#45;&gt;tax.core -->
<g id="edge7" class="edge">
<title>tax.execution&#45;&gt;tax.core</title>
<path fill="none" stroke="blue" d="M661.13,-191.15C935.19,-223.38 968.12,-231.08 1080.96,-303.34"/>
<polygon fill="blue" stroke="blue" points="1079.28,-306.42 1089.58,-308.89 1083.07,-300.53 1079.28,-306.42"/>
<text text-anchor="middle" x="831" y="-291.8" font-family="Times,serif" font-size="14.00">core</text>
</g>
<!-- tax.execution&#45;&gt;tax.uncore -->
<g id="edge10" class="edge">
<title>tax.execution&#45;&gt;tax.uncore</title>
<path fill="none" stroke="blue" d="M661.28,-166.84C886.75,-103.94 933.6,-95.27 1041.12,-122.38"/>
<polygon fill="blue" stroke="blue" points="1040.48,-125.83 1051.03,-124.94 1042.22,-119.05 1040.48,-125.83"/>
<text text-anchor="middle" x="831" y="-111.8" font-family="Times,serif" font-size="14.00">overhead</text>
</g>
<!-- tax.synthesis&#45;&gt;tax.core -->
<g id="edge8" class="edge">
<title>tax.synthesis&#45;&gt;tax.core</title>
<path fill="none" stroke="blue" d="M893.39,-202.13C1019.66,-239.23 1042.67,-250.5 1093.05,-301.25"/>
<polygon fill="blue" stroke="blue" points="1090.85,-304 1100.35,-308.68 1095.84,-299.09 1090.85,-304"/>
<text text-anchor="middle" x="960" y="-248.8" font-family="Times,serif" font-size="14.00">core</text>
</g>
<!-- tax.synthesis&#45;&gt;tax.uncore -->
<g id="edge11" class="edge">
<title>tax.synthesis&#45;&gt;tax.uncore</title>
<path fill="none" stroke="blue" d="M898.17,-167.54C952.17,-154.45 985.48,-146.98 1011.83,-143.22"/>
<polygon fill="blue" stroke="blue" points="1012.52,-146.66 1021.99,-141.91 1011.63,-139.72 1012.52,-146.66"/>
<text text-anchor="middle" x="960" y="-183.8" font-family="Times,serif" font-size="14.00">overhead</text>
</g>
<!-- tax.total -->
<g id="node8" class="node">
<title>tax.total</title>
<polygon fill="none" stroke="lightblue" points="1436,-356 1265,-356 1265,-320 1436,-320 1436,-356"/>
<text text-anchor="middle" x="1350.5" y="-334.3" font-family="Times,serif" font-size="14.00">Total Package Energy</text>
</g>
<!-- tax.core&#45;&gt;tax.total -->
<g id="edge2" class="edge">
<title>tax.core&#45;&gt;tax.total</title>
<path fill="none" stroke="blue" d="M1177.22,-324.6C1212,-322.67 1236.01,-321.66 1254.94,-321.81"/>
<polygon fill="blue" stroke="blue" points="1254.9,-325.31 1264.97,-322.02 1255.05,-318.31 1254.9,-325.31"/>
<text text-anchor="middle" x="1240.5" y="-310.8" font-family="Times,serif" font-size="14.00">+</text>
</g>
<!-- tax.core&#45;&gt;tax.total -->
<g id="edge12" class="edge">
<title>tax.core&#45;&gt;tax.total</title>
<path fill="none" stroke="blue" d="M1177.22,-324.6C1212,-322.67 1236.01,-321.66 1254.94,-321.81"/>
<polygon fill="blue" stroke="blue" points="1254.9,-325.31 1264.97,-322.02 1255.05,-318.31 1254.9,-325.31"/>
<text text-anchor="middle" x="1240.5" y="-373.8" font-family="Times,serif" font-size="14.00">+</text>
</g>
<!-- tax.uncore&#45;&gt;tax.total -->
<g id="edge13" class="edge">
<title>tax.uncore&#45;&gt;tax.total</title>
<path fill="none" stroke="blue" d="M1156.63,-163.22C1280.79,-226.9 1296.76,-239.43 1335.92,-310.92"/>
<polygon fill="blue" stroke="blue" points="1332.97,-312.82 1340.82,-319.93 1339.12,-309.48 1332.97,-312.82"/>
<text text-anchor="middle" x="1240.5" y="-237.8" font-family="Times,serif" font-size="14.00">+</text>
</g>
<!-- tax.total&#45;&gt;tax.linear -->
<g id="edge14" class="edge">
<title>tax.total&#45;&gt;tax.linear</title>
<path fill="none" stroke="blue" d="M897.73,-476.54C1047.58,-498.63 1082.24,-485.31 1308.89,-360.88"/>
<polygon fill="blue" stroke="blue" points="1310.65,-363.91 1317.73,-356.03 1307.28,-357.78 1310.65,-363.91"/>
<text text-anchor="middle" x="1119" y="-483.8" font-family="Times,serif" font-size="14.00">ratio</text>
</g>
</g>
</svg>
