<?xml version="1.0" encoding="UTF-8" standalone="no"?>
<!DOCTYPE svg PUBLIC "-//W3C//DTD SVG 1.1//EN"
 "http://www.w3.org/Graphics/SVG/1.1/DTD/svg11.dtd">
<!-- Generated by graphviz version 2.42.4 (0)
 -->
<!-- Pages: 1 -->
<svg width="230pt" height="523pt"
 viewBox="0.00 0.00 229.50 523.00" xmlns="http://www.w3.org/2000/svg" xmlns:xlink="http://www.w3.org/1999/xlink">
<g id="graph0" class="graph" transform="scale(1 1) rotate(0) translate(4 519)">
<polygon fill="white" stroke="transparent" points="-4,4 -4,-519 225.5,-519 225.5,4 -4,4"/>
<!-- thermal.idle -->
<g id="node1" class="node">
<title>thermal.idle</title>
<polygon fill="none" stroke="lightblue" points="152.5,-515 66.5,-515 66.5,-477 152.5,-477 152.5,-515"/>
<text text-anchor="middle" x="109.5" y="-499.8" font-family="Times,serif" font-size="14.00">Idle</text>
<text text-anchor="middle" x="109.5" y="-484.8" font-family="Times,serif" font-size="14.00">(baseline)</text>
</g>
<!-- thermal.warmup -->
<g id="node2" class="node">
<title>thermal.warmup</title>
<polygon fill="none" stroke="lightyellow" points="150,-418 69,-418 69,-382 150,-382 150,-418"/>
<text text-anchor="middle" x="109.5" y="-396.3" font-family="Times,serif" font-size="14.00">Warm&#45;up</text>
</g>
<!-- thermal.idle&#45;&gt;thermal.warmup -->
<g id="edge1" class="edge">
<title>thermal.idle&#45;&gt;thermal.warmup</title>
<path fill="none" stroke="black" d="M109.5,-476.88C109.5,-463.09 109.5,-443.9 109.5,-428.26"/>
<polygon fill="black" stroke="black" points="113,-428.12 109.5,-418.12 106,-428.12 113,-428.12"/>
<text text-anchor="middle" x="149.5" y="-443.8" font-family="Times,serif" font-size="14.00">temp +2°C</text>
</g>
<!-- thermal.linear -->
<g id="node3" class="node">
<title>thermal.linear</title>
<polygon fill="none" stroke="lightgreen" points="157,-323 62,-323 62,-287 157,-287 157,-323"/>
<text text-anchor="middle" x="109.5" y="-301.3" font-family="Times,serif" font-size="14.00">Linear Run</text>
</g>
<!-- thermal.warmup&#45;&gt;thermal.linear -->
<g id="edge2" class="edge">
<title>thermal.warmup&#45;&gt;thermal.linear</title>
<path fill="none" stroke="black" d="M109.5,-381.94C109.5,-368.39 109.5,-349.18 109.5,-333.47"/>
<polygon fill="black" stroke="black" points="113,-333.26 109.5,-323.26 106,-333.26 113,-333.26"/>
<text text-anchor="middle" x="149.5" y="-348.8" font-family="Times,serif" font-size="14.00">temp +5°C</text>
</g>
<!-- thermal.cooldown1 -->
<g id="node4" class="node">
<title>thermal.cooldown1</title>
<polygon fill="none" stroke="lightblue" points="155,-228 64,-228 64,-192 155,-192 155,-228"/>
<text text-anchor="middle" x="109.5" y="-206.3" font-family="Times,serif" font-size="14.00">Cool&#45;down</text>
</g>
<!-- thermal.linear&#45;&gt;thermal.cooldown1 -->
<g id="edge3" class="edge">
<title>thermal.linear&#45;&gt;thermal.cooldown1</title>
<path fill="none" stroke="black" d="M109.5,-286.94C109.5,-273.39 109.5,-254.18 109.5,-238.47"/>
<polygon fill="black" stroke="black" points="113,-238.26 109.5,-228.26 106,-238.26 113,-238.26"/>
<text text-anchor="middle" x="146" y="-253.8" font-family="Times,serif" font-size="14.00">temp &#45;3°C</text>
</g>
<!-- thermal.agentic -->
<g id="node5" class="node">
<title>thermal.agentic</title>
<polygon fill="none" stroke="lightcoral" points="161.5,-133 57.5,-133 57.5,-97 161.5,-97 161.5,-133"/>
<text text-anchor="middle" x="109.5" y="-111.3" font-family="Times,serif" font-size="14.00">Agentic Run</text>
</g>
<!-- thermal.cooldown1&#45;&gt;thermal.agentic -->
<g id="edge4" class="edge">
<title>thermal.cooldown1&#45;&gt;thermal.agentic</title>
<path fill="none" stroke="black" d="M109.5,-191.94C109.5,-178.39 109.5,-159.18 109.5,-143.47"/>
<polygon fill="black" stroke="black" points="113,-143.26 109.5,-133.26 106,-143.26 113,-143.26"/>
<text text-anchor="middle" x="154" y="-158.8" font-family="Times,serif" font-size="14.00">temp +12°C</text>
</g>
<!-- thermal.cooldown2 -->
<g id="node6" class="node">
<title>thermal.cooldown2</title>
<polygon fill="none" stroke="lightblue" points="91,-37 0,-37 0,-1 91,-1 91,-37"/>
<text text-anchor="middle" x="45.5" y="-15.3" font-family="Times,serif" font-size="14.00">Cool&#45;down</text>
</g>
<!-- thermal.agentic&#45;&gt;thermal.cooldown2 -->
<g id="edge6" class="edge">
<title>thermal.agentic&#45;&gt;thermal.cooldown2</title>
<path fill="none" stroke="black" d="M69.72,-96.96C60.94,-91.28 52.71,-84.03 47.5,-75 42.72,-66.7 41.37,-56.46 41.51,-47.08"/>
<polygon fill="black" stroke="black" points="45.01,-47.21 42.19,-37 38.02,-46.74 45.01,-47.21"/>
<text text-anchor="middle" x="88.5" y="-63.8" font-family="Times,serif" font-size="14.00">temp &#45;10°C</text>
</g>
<!-- thermal.peak -->
<g id="node7" class="node">
<title>thermal.peak</title>
<polygon fill="none" stroke="red" points="221.5,-38 127.5,-38 127.5,0 221.5,0 221.5,-38"/>
<text text-anchor="middle" x="174.5" y="-22.8" font-family="Times,serif" font-size="14.00">Peak Temp</text>
<text text-anchor="middle" x="174.5" y="-7.8" font-family="Times,serif" font-size="14.00">(agentic)</text>
</g>
<!-- thermal.agentic&#45;&gt;thermal.peak -->
<g id="edge5" class="edge">
<title>thermal.agentic&#45;&gt;thermal.peak</title>
<path fill="none" stroke="black" d="M121.42,-96.76C131.13,-82.72 145.01,-62.65 156.13,-46.56"/>
<polygon fill="black" stroke="black" points="159.18,-48.31 161.99,-38.09 153.42,-44.33 159.18,-48.31"/>
<text text-anchor="middle" x="181.5" y="-63.8" font-family="Times,serif" font-size="14.00">max temp</text>
</g>
</g>
</svg>
