<?xml version="1.0" encoding="UTF-8" standalone="no"?>
<!DOCTYPE svg PUBLIC "-//W3C//DTD SVG 1.1//EN"
 "http://www.w3.org/Graphics/SVG/1.1/DTD/svg11.dtd">
<!-- Generated by graphviz version 2.42.4 (0)
 -->
<!-- Pages: 1 -->
<svg width="1763pt" height="248pt"
 viewBox="0.00 0.00 1762.50 248.00" xmlns="http://www.w3.org/2000/svg" xmlns:xlink="http://www.w3.org/1999/xlink">
<g id="graph0" class="graph" transform="scale(1 1) rotate(0) translate(4 244)">
<polygon fill="white" stroke="transparent" points="-4,4 -4,-244 1758.5,-244 1758.5,4 -4,4"/>
<!-- tool.llm -->
<g id="node1" class="node">
<title>tool.llm</title>
<polygon fill="none" stroke="lightgray" points="809,-36 688,-36 688,0 809,0 809,-36"/>
<text text-anchor="middle" x="748.5" y="-14.3" font-family="Times,serif" font-size="14.00">llm_context.py</text>
</g>
<!-- tool.sphinx -->
<g id="node2" class="node">
<title>tool.sphinx</title>
<polygon fill="none" stroke="lightgray" points="652,-36 527,-36 527,0 652,0 652,-36"/>
<text text-anchor="middle" x="589.5" y="-14.3" font-family="Times,serif" font-size="14.00">sphinx_docs.py</text>
</g>
<!-- tool.mkdocs -->
<g id="node3" class="node">
<title>tool.mkdocs</title>
<polygon fill="none" stroke="lightgray" points="131,-36 0,-36 0,0 131,0 131,-36"/>
<text text-anchor="middle" x="65.5" y="-14.3" font-family="Times,serif" font-size="14.00">mkdocs_docs.py</text>
</g>
<!-- tool.quality -->
<g id="node4" class="node">
<title>tool.quality</title>
<polygon fill="none" stroke="lightgray" points="302,-36 167,-36 167,0 302,0 302,-36"/>
<text text-anchor="middle" x="234.5" y="-14.3" font-family="Times,serif" font-size="14.00">quality_check.py</text>
</g>
<!-- tool.refactor -->
<g id="node5" class="node">
<title>tool.refactor</title>
<polygon fill="none" stroke="lightgray" points="491,-36 338,-36 338,0 491,0 491,-36"/>
<text text-anchor="middle" x="414.5" y="-14.3" font-family="Times,serif" font-size="14.00">refactor_advisor.py</text>
</g>
<!-- tool.team -->
<g id="node6" class="node">
<title>tool.team</title>
<polygon fill="none" stroke="lightgray" points="1161.5,-36 1005.5,-36 1005.5,0 1161.5,0 1161.5,-36"/>
<text text-anchor="middle" x="1083.5" y="-14.3" font-family="Times,serif" font-size="14.00">team_dashboard.py</text>
</g>
<!-- tool.web -->
<g id="node7" class="node">
<title>tool.web</title>
<polygon fill="none" stroke="lightgray" points="921,-145 778,-145 778,-109 921,-109 921,-145"/>
<text text-anchor="middle" x="849.5" y="-123.3" font-family="Times,serif" font-size="14.00">web_controller.py</text>
</g>
<!-- tool.web&#45;&gt;tool.llm -->
<g id="edge12" class="edge">
<title>tool.web&#45;&gt;tool.llm</title>
<path fill="none" stroke="black" stroke-dasharray="5,2" d="M793.5,-108.51C793.5,-108.51 793.5,-46.22 793.5,-46.22"/>
<polygon fill="black" stroke="black" points="797,-46.22 793.5,-36.22 790,-46.22 797,-46.22"/>
<text text-anchor="middle" x="829" y="-68.8" font-family="Times,serif" font-size="14.00">calls</text>
</g>
<!-- tool.web&#45;&gt;tool.sphinx -->
<g id="edge13" class="edge">
<title>tool.web&#45;&gt;tool.sphinx</title>
<path fill="none" stroke="black" stroke-dasharray="5,2" d="M777.74,-116C707.29,-116 610.33,-116 610.33,-116 610.33,-116 610.33,-46.43 610.33,-46.43"/>
<polygon fill="black" stroke="black" points="613.83,-46.43 610.33,-36.43 606.83,-46.43 613.83,-46.43"/>
<text text-anchor="middle" x="755" y="-68.8" font-family="Times,serif" font-size="14.00">calls</text>
</g>
<!-- tool.web&#45;&gt;tool.mkdocs -->
<g id="edge14" class="edge">
<title>tool.web&#45;&gt;tool.mkdocs</title>
<path fill="none" stroke="black" stroke-dasharray="5,2" d="M777.8,-137C588.07,-137 87.33,-137 87.33,-137 87.33,-137 87.33,-46.07 87.33,-46.07"/>
<polygon fill="black" stroke="black" points="90.83,-46.07 87.33,-36.07 83.83,-46.07 90.83,-46.07"/>
<text text-anchor="middle" x="344" y="-68.8" font-family="Times,serif" font-size="14.00">calls</text>
</g>
<!-- tool.web&#45;&gt;tool.quality -->
<g id="edge15" class="edge">
<title>tool.web&#45;&gt;tool.quality</title>
<path fill="none" stroke="black" stroke-dasharray="5,2" d="M777.74,-130C619.99,-130 257,-130 257,-130 257,-130 257,-46.49 257,-46.49"/>
<polygon fill="black" stroke="black" points="260.5,-46.49 257,-36.49 253.5,-46.49 260.5,-46.49"/>
<text text-anchor="middle" x="511" y="-68.8" font-family="Times,serif" font-size="14.00">calls</text>
</g>
<!-- tool.web&#45;&gt;tool.refactor -->
<g id="edge16" class="edge">
<title>tool.web&#45;&gt;tool.refactor</title>
<path fill="none" stroke="black" stroke-dasharray="5,2" d="M777.7,-123C660.26,-123 440,-123 440,-123 440,-123 440,-46.29 440,-46.29"/>
<polygon fill="black" stroke="black" points="443.5,-46.29 440,-36.29 436.5,-46.29 443.5,-46.29"/>
<text text-anchor="middle" x="638" y="-68.8" font-family="Times,serif" font-size="14.00">calls</text>
</g>
<!-- tool.web&#45;&gt;tool.team -->
<g id="edge17" class="edge">
<title>tool.web&#45;&gt;tool.team</title>
<path fill="none" stroke="black" stroke-dasharray="5,2" d="M921.08,-116C981.25,-116 1057.5,-116 1057.5,-116 1057.5,-116 1057.5,-46.43 1057.5,-46.43"/>
<polygon fill="black" stroke="black" points="1061,-46.43 1057.5,-36.43 1054,-46.43 1061,-46.43"/>
<text text-anchor="middle" x="977" y="-68.8" font-family="Times,serif" font-size="14.00">calls</text>
</g>
<!-- tool.verify -->
<g id="node8" class="node">
<title>tool.verify</title>
<polygon fill="none" stroke="lightgray" points="1542,-36 1359,-36 1359,0 1542,0 1542,-36"/>
<text text-anchor="middle" x="1450.5" y="-14.3" font-family="Times,serif" font-size="14.00">verify_requirements.py</text>
</g>
<!-- tool.web&#45;&gt;tool.verify -->
<g id="edge18" class="edge">
<title>tool.web&#45;&gt;tool.verify</title>
<path fill="none" stroke="black" stroke-dasharray="5,2" d="M921.18,-130C1074.4,-130 1420,-130 1420,-130 1420,-130 1420,-46.49 1420,-46.49"/>
<polygon fill="black" stroke="black" points="1423.5,-46.49 1420,-36.49 1416.5,-46.49 1423.5,-46.49"/>
<text text-anchor="middle" x="1216" y="-68.8" font-family="Times,serif" font-size="14.00">calls</text>
</g>
<!-- tool.column -->
<g id="node9" class="node">
<title>tool.column</title>
<polygon fill="none" stroke="lightgray" points="1323,-36 1198,-36 1198,0 1323,0 1323,-36"/>
<text text-anchor="middle" x="1260.5" y="-14.3" font-family="Times,serif" font-size="14.00">column_flow.py</text>
</g>
<!-- tool.web&#45;&gt;tool.column -->
<g id="edge19" class="edge">
<title>tool.web&#45;&gt;tool.column</title>
<path fill="none" stroke="black" stroke-dasharray="5,2" d="M921.06,-123C1033.7,-123 1239.67,-123 1239.67,-123 1239.67,-123 1239.67,-46.29 1239.67,-46.29"/>
<polygon fill="black" stroke="black" points="1243.17,-46.29 1239.67,-36.29 1236.17,-46.29 1243.17,-46.29"/>
<text text-anchor="middle" x="1094" y="-68.8" font-family="Times,serif" font-size="14.00">calls</text>
</g>
<!-- tool.diagram -->
<g id="node10" class="node">
<title>tool.diagram</title>
<polygon fill="none" stroke="lightgray" points="1754.5,-36 1578.5,-36 1578.5,0 1754.5,0 1754.5,-36"/>
<text text-anchor="middle" x="1666.5" y="-14.3" font-family="Times,serif" font-size="14.00">generate_diagrams.py</text>
</g>
<!-- tool.web&#45;&gt;tool.diagram -->
<g id="edge20" class="edge">
<title>tool.web&#45;&gt;tool.diagram</title>
<path fill="none" stroke="black" stroke-dasharray="5,2" d="M921.14,-137C1115.31,-137 1637.17,-137 1637.17,-137 1637.17,-137 1637.17,-46.07 1637.17,-46.07"/>
<polygon fill="black" stroke="black" points="1640.67,-46.07 1637.17,-36.07 1633.67,-46.07 1640.67,-46.07"/>
<text text-anchor="middle" x="1373" y="-68.8" font-family="Times,serif" font-size="14.00">calls</text>
</g>
<!-- tool.issue -->
<g id="node11" class="node">
<title>tool.issue</title>
<polygon fill="none" stroke="lightgray" points="969.5,-36 845.5,-36 845.5,0 969.5,0 969.5,-36"/>
<text text-anchor="middle" x="907.5" y="-14.3" font-family="Times,serif" font-size="14.00">issue_tracer.py</text>
</g>
<!-- tool.web&#45;&gt;tool.issue -->
<g id="edge21" class="edge">
<title>tool.web&#45;&gt;tool.issue</title>
<path fill="none" stroke="black" stroke-dasharray="5,2" d="M883.25,-108.51C883.25,-108.51 883.25,-46.22 883.25,-46.22"/>
<polygon fill="black" stroke="black" points="886.75,-46.22 883.25,-36.22 879.75,-46.22 886.75,-46.22"/>
<text text-anchor="middle" x="903" y="-68.8" font-family="Times,serif" font-size="14.00">calls</text>
</g>
<!-- tool.path -->
<g id="node12" class="node">
<title>tool.path</title>
<polygon fill="none" stroke="lightblue" points="910,-240 789,-240 789,-204 910,-204 910,-240"/>
<text text-anchor="middle" x="849.5" y="-218.3" font-family="Times,serif" font-size="14.00">path_loader.py</text>
</g>
<!-- tool.path&#45;&gt;tool.llm -->
<g id="edge1" class="edge">
<title>tool.path&#45;&gt;tool.llm</title>
<path fill="none" stroke="blue" d="M788.86,-210C760.55,-210 733,-210 733,-210 733,-210 733,-46.06 733,-46.06"/>
<polygon fill="blue" stroke="blue" points="736.5,-46.06 733,-36.06 729.5,-46.06 736.5,-46.06"/>
</g>
<!-- tool.path&#45;&gt;tool.sphinx -->
<g id="edge2" class="edge">
<title>tool.path&#45;&gt;tool.sphinx</title>
<path fill="none" stroke="blue" d="M788.91,-216C706.35,-216 568.67,-216 568.67,-216 568.67,-216 568.67,-46.27 568.67,-46.27"/>
<polygon fill="blue" stroke="blue" points="572.17,-46.27 568.67,-36.27 565.17,-46.27 572.17,-46.27"/>
</g>
<!-- tool.path&#45;&gt;tool.mkdocs -->
<g id="edge3" class="edge">
<title>tool.path&#45;&gt;tool.mkdocs</title>
<path fill="none" stroke="blue" d="M788.93,-234C601.53,-234 43.67,-234 43.67,-234 43.67,-234 43.67,-46.04 43.67,-46.04"/>
<polygon fill="blue" stroke="blue" points="47.17,-46.04 43.67,-36.04 40.17,-46.04 47.17,-46.04"/>
</g>
<!-- tool.path&#45;&gt;tool.quality -->
<g id="edge4" class="edge">
<title>tool.path&#45;&gt;tool.quality</title>
<path fill="none" stroke="blue" d="M788.95,-228C629.82,-228 212,-228 212,-228 212,-228 212,-46.27 212,-46.27"/>
<polygon fill="blue" stroke="blue" points="215.5,-46.27 212,-36.27 208.5,-46.27 215.5,-46.27"/>
</g>
<!-- tool.path&#45;&gt;tool.refactor -->
<g id="edge5" class="edge">
<title>tool.path&#45;&gt;tool.refactor</title>
<path fill="none" stroke="blue" d="M788.82,-222C663.78,-222 389,-222 389,-222 389,-222 389,-46.1 389,-46.1"/>
<polygon fill="blue" stroke="blue" points="392.5,-46.1 389,-36.1 385.5,-46.1 392.5,-46.1"/>
</g>
<!-- tool.path&#45;&gt;tool.team -->
<g id="edge6" class="edge">
<title>tool.path&#45;&gt;tool.team</title>
<path fill="none" stroke="blue" d="M910.13,-216C986.96,-216 1109.5,-216 1109.5,-216 1109.5,-216 1109.5,-46.27 1109.5,-46.27"/>
<polygon fill="blue" stroke="blue" points="1113,-46.27 1109.5,-36.27 1106,-46.27 1113,-46.27"/>
</g>
<!-- tool.path&#45;&gt;tool.web -->
<g id="edge7" class="edge">
<title>tool.path&#45;&gt;tool.web</title>
<path fill="none" stroke="blue" d="M849.5,-203.68C849.5,-203.68 849.5,-155.26 849.5,-155.26"/>
<polygon fill="blue" stroke="blue" points="853,-155.26 849.5,-145.26 846,-155.26 853,-155.26"/>
</g>
<!-- tool.path&#45;&gt;tool.verify -->
<g id="edge8" class="edge">
<title>tool.path&#45;&gt;tool.verify</title>
<path fill="none" stroke="blue" d="M910.05,-228C1068.11,-228 1481,-228 1481,-228 1481,-228 1481,-46.27 1481,-46.27"/>
<polygon fill="blue" stroke="blue" points="1484.5,-46.27 1481,-36.27 1477.5,-46.27 1484.5,-46.27"/>
</g>
<!-- tool.path&#45;&gt;tool.column -->
<g id="edge9" class="edge">
<title>tool.path&#45;&gt;tool.column</title>
<path fill="none" stroke="blue" d="M910.46,-222C1029.49,-222 1281.33,-222 1281.33,-222 1281.33,-222 1281.33,-46.1 1281.33,-46.1"/>
<polygon fill="blue" stroke="blue" points="1284.83,-46.1 1281.33,-36.1 1277.83,-46.1 1284.83,-46.1"/>
</g>
<!-- tool.path&#45;&gt;tool.diagram -->
<g id="edge10" class="edge">
<title>tool.path&#45;&gt;tool.diagram</title>
<path fill="none" stroke="blue" d="M910.03,-234C1103.73,-234 1695.83,-234 1695.83,-234 1695.83,-234 1695.83,-46.04 1695.83,-46.04"/>
<polygon fill="blue" stroke="blue" points="1699.33,-46.04 1695.83,-36.04 1692.33,-46.04 1699.33,-46.04"/>
</g>
<!-- tool.path&#45;&gt;tool.issue -->
<g id="edge11" class="edge">
<title>tool.path&#45;&gt;tool.issue</title>
<path fill="none" stroke="blue" d="M910.14,-210C929.14,-210 945.25,-210 945.25,-210 945.25,-210 945.25,-46.06 945.25,-46.06"/>
<polygon fill="blue" stroke="blue" points="948.75,-46.06 945.25,-36.06 941.75,-46.06 948.75,-46.06"/>
</g>
</g>
</svg>
