<?xml version="1.0" encoding="UTF-8" standalone="no"?>
<!DOCTYPE svg PUBLIC "-//W3C//DTD SVG 1.1//EN"
 "http://www.w3.org/Graphics/SVG/1.1/DTD/svg11.dtd">
<!-- Generated by graphviz version 2.42.4 (0)
 -->
<!-- Pages: 1 -->
<svg width="593pt" height="389pt"
 viewBox="0.00 0.00 593.00 389.25" xmlns="http://www.w3.org/2000/svg" xmlns:xlink="http://www.w3.org/1999/xlink">
<g id="graph0" class="graph" transform="scale(1 1) rotate(0) translate(4 385.25)">
<polygon fill="white" stroke="transparent" points="-4,4 -4,-385.25 589,-385.25 589,4 -4,4"/>
<!-- config.loader -->
<g id="node1" class="node">
<title>config.loader</title>
<polygon fill="none" stroke="lightblue" points="250.5,-381.25 138.5,-381.25 138.5,-345.25 250.5,-345.25 250.5,-381.25"/>
<text text-anchor="middle" x="194.5" y="-359.55" font-family="Times,serif" font-size="14.00">ConfigLoader</text>
</g>
<!-- exec.harness -->
<g id="node5" class="node">
<title>exec.harness</title>
<polygon fill="none" stroke="lightyellow" points="274.5,-272.25 114.5,-272.25 114.5,-236.25 274.5,-236.25 274.5,-272.25"/>
<text text-anchor="middle" x="194.5" y="-250.55" font-family="Times,serif" font-size="14.00">ExperimentHarness</text>
</g>
<!-- config.loader&#45;&gt;exec.harness -->
<g id="edge1" class="edge">
<title>config.loader&#45;&gt;exec.harness</title>
<path fill="none" stroke="black" stroke-dasharray="5,2" d="M194.5,-344.76C194.5,-344.76 194.5,-282.47 194.5,-282.47"/>
<polygon fill="black" stroke="black" points="198,-282.47 194.5,-272.47 191,-282.47 198,-282.47"/>
<text text-anchor="middle" x="237" y="-305.05" font-family="Times,serif" font-size="14.00">loads config</text>
</g>
<!-- hw.rapl -->
<g id="node2" class="node">
<title>hw.rapl</title>
<polygon fill="none" stroke="lightgreen" points="107,-163.25 0,-163.25 0,-125.25 107,-125.25 107,-163.25"/>
<text text-anchor="middle" x="53.5" y="-148.05" font-family="Times,serif" font-size="14.00">RAPLReader</text>
<text text-anchor="middle" x="53.5" y="-133.05" font-family="Times,serif" font-size="14.00">(energy µJ)</text>
</g>
<!-- db.main -->
<g id="node8" class="node">
<title>db.main</title>
<path fill="none" stroke="lightcoral" d="M249,-47.6C249,-50.24 230.4,-52.38 207.5,-52.38 184.6,-52.38 166,-50.24 166,-47.6 166,-47.6 166,-4.65 166,-4.65 166,-2.01 184.6,0.13 207.5,0.13 230.4,0.13 249,-2.01 249,-4.65 249,-4.65 249,-47.6 249,-47.6"/>
<path fill="none" stroke="lightcoral" d="M249,-47.6C249,-44.97 230.4,-42.83 207.5,-42.83 184.6,-42.83 166,-44.97 166,-47.6"/>
<text text-anchor="middle" x="207.5" y="-29.93" font-family="Times,serif" font-size="14.00">Database</text>
<text text-anchor="middle" x="207.5" y="-14.93" font-family="Times,serif" font-size="14.00">(SQLite)</text>
</g>
<!-- hw.rapl&#45;&gt;db.main -->
<g id="edge5" class="edge">
<title>hw.rapl&#45;&gt;db.main</title>
<path fill="none" stroke="blue" d="M53.5,-124.99C53.5,-91.48 53.5,-26 53.5,-26 53.5,-26 155.83,-26 155.83,-26"/>
<polygon fill="blue" stroke="blue" points="155.83,-29.5 165.83,-26 155.83,-22.5 155.83,-29.5"/>
<text text-anchor="middle" x="110" y="-85.05" font-family="Times,serif" font-size="14.00">energy samples</text>
</g>
<!-- hw.msr -->
<g id="node3" class="node">
<title>hw.msr</title>
<polygon fill="none" stroke="lightgreen" points="245.5,-163.25 143.5,-163.25 143.5,-125.25 245.5,-125.25 245.5,-163.25"/>
<text text-anchor="middle" x="194.5" y="-148.05" font-family="Times,serif" font-size="14.00">MSRReader</text>
<text text-anchor="middle" x="194.5" y="-133.05" font-family="Times,serif" font-size="14.00">(C&#45;states)</text>
</g>
<!-- hw.msr&#45;&gt;db.main -->
<g id="edge6" class="edge">
<title>hw.msr&#45;&gt;db.main</title>
<path fill="none" stroke="blue" d="M205.75,-125.01C205.75,-125.01 205.75,-62.42 205.75,-62.42"/>
<polygon fill="blue" stroke="blue" points="209.25,-62.42 205.75,-52.42 202.25,-62.42 209.25,-62.42"/>
<text text-anchor="middle" x="237" y="-85.05" font-family="Times,serif" font-size="14.00">C&#45;states</text>
</g>
<!-- hw.perf -->
<g id="node4" class="node">
<title>hw.perf</title>
<polygon fill="none" stroke="lightgreen" points="383.5,-163.25 281.5,-163.25 281.5,-125.25 383.5,-125.25 383.5,-163.25"/>
<text text-anchor="middle" x="332.5" y="-148.05" font-family="Times,serif" font-size="14.00">PerfReader</text>
<text text-anchor="middle" x="332.5" y="-133.05" font-family="Times,serif" font-size="14.00">(IPC, cache)</text>
</g>
<!-- hw.perf&#45;&gt;db.main -->
<g id="edge7" class="edge">
<title>hw.perf&#45;&gt;db.main</title>
<path fill="none" stroke="blue" d="M332.5,-124.99C332.5,-91.48 332.5,-26 332.5,-26 332.5,-26 259.12,-26 259.12,-26"/>
<polygon fill="blue" stroke="blue" points="259.12,-22.5 249.12,-26 259.12,-29.5 259.12,-22.5"/>
<text text-anchor="middle" x="357.5" y="-85.05" font-family="Times,serif" font-size="14.00">IPC, cache</text>
</g>
<!-- exec.harness&#45;&gt;hw.rapl -->
<g id="edge2" class="edge">
<title>exec.harness&#45;&gt;hw.rapl</title>
<path fill="none" stroke="black" stroke-dasharray="5,2" d="M129,-236.04C129,-204.73 129,-144 129,-144 129,-144 117.16,-144 117.16,-144"/>
<polygon fill="black" stroke="black" points="117.16,-140.5 107.16,-144 117.16,-147.5 117.16,-140.5"/>
<text text-anchor="middle" x="112" y="-196.05" font-family="Times,serif" font-size="14.00">starts</text>
</g>
<!-- exec.harness&#45;&gt;hw.msr -->
<g id="edge3" class="edge">
<title>exec.harness&#45;&gt;hw.msr</title>
<path fill="none" stroke="black" stroke-dasharray="5,2" d="M194.5,-236.09C194.5,-236.09 194.5,-173.55 194.5,-173.55"/>
<polygon fill="black" stroke="black" points="198,-173.55 194.5,-163.55 191,-173.55 198,-173.55"/>
</g>
<!-- exec.harness&#45;&gt;hw.perf -->
<g id="edge4" class="edge">
<title>exec.harness&#45;&gt;hw.perf</title>
<path fill="none" stroke="black" stroke-dasharray="5,2" d="M261.75,-236.04C261.75,-204.73 261.75,-144 261.75,-144 261.75,-144 271.46,-144 271.46,-144"/>
<polygon fill="black" stroke="black" points="271.46,-147.5 281.46,-144 271.46,-140.5 271.46,-147.5"/>
</g>
<!-- exec.linear -->
<g id="node6" class="node">
<title>exec.linear</title>
<polygon fill="none" stroke="lightyellow" points="414,-381.25 287,-381.25 287,-345.25 414,-345.25 414,-381.25"/>
<text text-anchor="middle" x="350.5" y="-359.55" font-family="Times,serif" font-size="14.00">LinearExecutor</text>
</g>
<!-- exec.agentic -->
<g id="node7" class="node">
<title>exec.agentic</title>
<polygon fill="none" stroke="lightyellow" points="585,-381.25 450,-381.25 450,-345.25 585,-345.25 585,-381.25"/>
<text text-anchor="middle" x="517.5" y="-359.55" font-family="Times,serif" font-size="14.00">AgenticExecutor</text>
</g>
</g>
</svg>
