<?xml version="1.0" encoding="UTF-8" standalone="no"?>
<!DOCTYPE svg PUBLIC "-//W3C//DTD SVG 1.1//EN"
 "http://www.w3.org/Graphics/SVG/1.1/DTD/svg11.dtd">
<!-- Generated by graphviz version 2.42.4 (0)
 -->
<!-- Pages: 1 -->
<svg width="807pt" height="46pt"
 viewBox="0.00 0.00 807.00 46.00" xmlns="http://www.w3.org/2000/svg" xmlns:xlink="http://www.w3.org/1999/xlink">
<g id="graph0" class="graph" transform="scale(1 1) rotate(0) translate(4 42)">
<polygon fill="white" stroke="transparent" points="-4,4 -4,-42 803,-42 803,4 -4,4"/>
<!-- hw.source -->
<g id="node1" class="node">
<title>hw.source</title>
<polygon fill="none" stroke="black" points="98,-38 0,-38 0,0 98,0 98,-38"/>
<text text-anchor="middle" x="49" y="-22.8" font-family="Times,serif" font-size="14.00">Hardware</text>
<text text-anchor="middle" x="49" y="-7.8" font-family="Times,serif" font-size="14.00">(/sys, MSR)</text>
</g>
<!-- hw.readers -->
<g id="node2" class="node">
<title>hw.readers</title>
<polygon fill="none" stroke="black" points="209,-37 134,-37 134,-1 209,-1 209,-37"/>
<text text-anchor="middle" x="171.5" y="-15.3" font-family="Times,serif" font-size="14.00">Readers</text>
</g>
<!-- hw.source&#45;&gt;hw.readers -->
<g id="edge1" class="edge">
<title>hw.source&#45;&gt;hw.readers</title>
<path fill="none" stroke="blue" d="M98.34,-19C105.16,-19 113.28,-19 123.63,-19"/>
<polygon fill="blue" stroke="blue" points="123.8,-22.5 133.8,-19 123.8,-15.5 123.8,-22.5"/>
</g>
<!-- exec.engine -->
<g id="node3" class="node">
<title>exec.engine</title>
<polygon fill="none" stroke="black" points="364,-38 245,-38 245,0 364,0 364,-38"/>
<text text-anchor="middle" x="304.5" y="-22.8" font-family="Times,serif" font-size="14.00">EnergyEngine</text>
<text text-anchor="middle" x="304.5" y="-7.8" font-family="Times,serif" font-size="14.00">(100Hz)</text>
</g>
<!-- hw.readers&#45;&gt;exec.engine -->
<g id="edge2" class="edge">
<title>hw.readers&#45;&gt;exec.engine</title>
<path fill="none" stroke="blue" d="M209.29,-19C216.36,-19 224.26,-19 234.81,-19"/>
<polygon fill="blue" stroke="blue" points="234.82,-22.5 244.82,-19 234.82,-15.5 234.82,-22.5"/>
</g>
<!-- exec.samples -->
<g id="node4" class="node">
<title>exec.samples</title>
<polygon fill="none" stroke="black" points="513,-38 400,-38 400,0 513,0 513,-38"/>
<text text-anchor="middle" x="456.5" y="-22.8" font-family="Times,serif" font-size="14.00">Raw Samples</text>
<text text-anchor="middle" x="456.5" y="-7.8" font-family="Times,serif" font-size="14.00">(Layer 1)</text>
</g>
<!-- exec.engine&#45;&gt;exec.samples -->
<g id="edge3" class="edge">
<title>exec.engine&#45;&gt;exec.samples</title>
<path fill="none" stroke="blue" d="M364.23,-19C371.34,-19 379.56,-19 389.65,-19"/>
<polygon fill="blue" stroke="blue" points="389.92,-22.5 399.92,-19 389.92,-15.5 389.92,-22.5"/>
</g>
<!-- exec.analyzer -->
<g id="node5" class="node">
<title>exec.analyzer</title>
<polygon fill="none" stroke="black" points="680,-38 549,-38 549,0 680,0 680,-38"/>
<text text-anchor="middle" x="614.5" y="-22.8" font-family="Times,serif" font-size="14.00">EnergyAnalyzer</text>
<text text-anchor="middle" x="614.5" y="-7.8" font-family="Times,serif" font-size="14.00">(Layers 2/3)</text>
</g>
<!-- exec.samples&#45;&gt;exec.analyzer -->
<g id="edge4" class="edge">
<title>exec.samples&#45;&gt;exec.analyzer</title>
<path fill="none" stroke="blue" d="M513.21,-19C522.94,-19 531.22,-19 538.45,-19"/>
<polygon fill="blue" stroke="blue" points="538.68,-22.5 548.68,-19 538.68,-15.5 538.68,-22.5"/>
</g>
<!-- db.main -->
<g id="node6" class="node">
<title>db.main</title>
<path fill="none" stroke="black" d="M799,-33.73C799,-35.53 780.4,-37 757.5,-37 734.6,-37 716,-35.53 716,-33.73 716,-33.73 716,-4.27 716,-4.27 716,-2.47 734.6,-1 757.5,-1 780.4,-1 799,-2.47 799,-4.27 799,-4.27 799,-33.73 799,-33.73"/>
<path fill="none" stroke="black" d="M799,-33.73C799,-31.92 780.4,-30.45 757.5,-30.45 734.6,-30.45 716,-31.92 716,-33.73"/>
<text text-anchor="middle" x="757.5" y="-15.3" font-family="Times,serif" font-size="14.00">Database</text>
</g>
<!-- exec.analyzer&#45;&gt;db.main -->
<g id="edge5" class="edge">
<title>exec.analyzer&#45;&gt;db.main</title>
<path fill="none" stroke="blue" d="M680.3,-19C690.52,-19 698.64,-19 705.63,-19"/>
<polygon fill="blue" stroke="blue" points="705.84,-22.5 715.84,-19 705.84,-15.5 705.84,-22.5"/>
</g>
</g>
</svg>
