<?xml version="1.0" encoding="UTF-8" standalone="no"?>
<!DOCTYPE svg PUBLIC "-//W3C//DTD SVG 1.1//EN"
 "http://www.w3.org/Graphics/SVG/1.1/DTD/svg11.dtd">
<!-- Generated by graphviz version 2.42.4 (0)
 -->
<!-- Pages: 1 -->
<svg width="1101pt" height="421pt"
 viewBox="0.00 0.00 1101.00 421.00" xmlns="http://www.w3.org/2000/svg" xmlns:xlink="http://www.w3.org/1999/xlink">
<g id="graph0" class="graph" transform="scale(1 1) rotate(0) translate(4 417)">
<polygon fill="white" stroke="transparent" points="-4,4 -4,-417 1097,-417 1097,4 -4,4"/>
<!-- engine.start -->
<g id="node1" class="node">
<title>engine.start</title>
<polygon fill="none" stroke="lightblue" points="167,-272 0,-272 0,-236 167,-236 167,-272"/>
<text text-anchor="middle" x="83.5" y="-250.3" font-family="Times,serif" font-size="14.00">start_measurement()</text>
</g>
<!-- engine.thread -->
<g id="node2" class="node">
<title>engine.thread</title>
<polygon fill="none" stroke="lightblue" points="382,-233 246,-233 246,-195 382,-195 382,-233"/>
<text text-anchor="middle" x="314" y="-217.8" font-family="Times,serif" font-size="14.00">_sampling_loop()</text>
<text text-anchor="middle" x="314" y="-202.8" font-family="Times,serif" font-size="14.00">100Hz</text>
</g>
<!-- engine.start&#45;&gt;engine.thread -->
<g id="edge1" class="edge">
<title>engine.start&#45;&gt;engine.thread</title>
<path fill="none" stroke="black" d="M167.27,-236.92C184.15,-234.03 205.15,-230.7 235.51,-226.01"/>
<polygon fill="black" stroke="black" points="236.36,-229.42 245.71,-224.44 235.29,-222.5 236.36,-229.42"/>
<text text-anchor="middle" x="206.5" y="-257.8" font-family="Times,serif" font-size="14.00">starts</text>
</g>
<!-- engine.rapl -->
<g id="node3" class="node">
<title>engine.rapl</title>
<polygon fill="none" stroke="lightgreen" points="587,-272 480,-272 480,-234 587,-234 587,-272"/>
<text text-anchor="middle" x="533.5" y="-256.8" font-family="Times,serif" font-size="14.00">RAPLReader</text>
<text text-anchor="middle" x="533.5" y="-241.8" font-family="Times,serif" font-size="14.00">(energy µJ)</text>
</g>
<!-- engine.thread&#45;&gt;engine.rapl -->
<g id="edge2" class="edge">
<title>engine.thread&#45;&gt;engine.rapl</title>
<path fill="none" stroke="blue" d="M356.95,-233.1C383.74,-243.18 407.61,-246.31 469.62,-249.76"/>
<polygon fill="blue" stroke="blue" points="469.73,-253.27 479.91,-250.32 470.11,-246.28 469.73,-253.27"/>
<text text-anchor="middle" x="423.5" y="-251.8" font-family="Times,serif" font-size="14.00">100Hz</text>
</g>
<!-- engine.msr -->
<g id="node4" class="node">
<title>engine.msr</title>
<polygon fill="none" stroke="lightgreen" points="584.5,-365 482.5,-365 482.5,-327 584.5,-327 584.5,-365"/>
<text text-anchor="middle" x="533.5" y="-349.8" font-family="Times,serif" font-size="14.00">MSRReader</text>
<text text-anchor="middle" x="533.5" y="-334.8" font-family="Times,serif" font-size="14.00">(C&#45;states)</text>
</g>
<!-- engine.thread&#45;&gt;engine.msr -->
<g id="edge3" class="edge">
<title>engine.thread&#45;&gt;engine.msr</title>
<path fill="none" stroke="blue" d="M327.9,-233.47C372.78,-295.84 387.57,-308.11 472.61,-330.62"/>
<polygon fill="blue" stroke="blue" points="471.92,-334.06 482.48,-333.2 473.69,-327.29 471.92,-334.06"/>
<text text-anchor="middle" x="423.5" y="-331.8" font-family="Times,serif" font-size="14.00">100Hz</text>
</g>
<!-- engine.perf -->
<g id="node5" class="node">
<title>engine.perf</title>
<polygon fill="none" stroke="lightgreen" points="584.5,-71 482.5,-71 482.5,-33 584.5,-33 584.5,-71"/>
<text text-anchor="middle" x="533.5" y="-55.8" font-family="Times,serif" font-size="14.00">PerfReader</text>
<text text-anchor="middle" x="533.5" y="-40.8" font-family="Times,serif" font-size="14.00">(IPC, cache)</text>
</g>
<!-- engine.thread&#45;&gt;engine.perf -->
<g id="edge4" class="edge">
<title>engine.thread&#45;&gt;engine.perf</title>
<path fill="none" stroke="blue" d="M325.06,-194.9C368.14,-120.99 381.65,-106.87 472.54,-73.59"/>
<polygon fill="blue" stroke="blue" points="473.98,-76.79 482.19,-70.09 471.59,-70.21 473.98,-76.79"/>
<text text-anchor="middle" x="423.5" y="-93.8" font-family="Times,serif" font-size="14.00">100Hz</text>
</g>
<!-- engine.turbostat -->
<g id="node6" class="node">
<title>engine.turbostat</title>
<polygon fill="none" stroke="lightgreen" points="602,-191 465,-191 465,-153 602,-153 602,-191"/>
<text text-anchor="middle" x="533.5" y="-175.8" font-family="Times,serif" font-size="14.00">TurbostatReader</text>
<text text-anchor="middle" x="533.5" y="-160.8" font-family="Times,serif" font-size="14.00">(10Hz)</text>
</g>
<!-- engine.thread&#45;&gt;engine.turbostat -->
<g id="edge5" class="edge">
<title>engine.thread&#45;&gt;engine.turbostat</title>
<path fill="none" stroke="blue" d="M373.58,-194.94C392.63,-190.36 414.97,-186.86 454.55,-181.76"/>
<polygon fill="blue" stroke="blue" points="455.23,-185.21 464.7,-180.47 454.34,-178.26 455.23,-185.21"/>
<text text-anchor="middle" x="423.5" y="-184.8" font-family="Times,serif" font-size="14.00">10Hz</text>
</g>
<!-- engine.samples -->
<g id="node7" class="node">
<title>engine.samples</title>
<path fill="none" stroke="lightyellow" d="M778,-206.48C778,-209.11 746.85,-211.25 708.5,-211.25 670.15,-211.25 639,-209.11 639,-206.48 639,-206.48 639,-163.52 639,-163.52 639,-160.89 670.15,-158.75 708.5,-158.75 746.85,-158.75 778,-160.89 778,-163.52 778,-163.52 778,-206.48 778,-206.48"/>
<path fill="none" stroke="lightyellow" d="M778,-206.48C778,-203.84 746.85,-201.7 708.5,-201.7 670.15,-201.7 639,-203.84 639,-206.48"/>
<text text-anchor="middle" x="708.5" y="-188.8" font-family="Times,serif" font-size="14.00">_sampling_queue</text>
<text text-anchor="middle" x="708.5" y="-173.8" font-family="Times,serif" font-size="14.00">(100Hz samples)</text>
</g>
<!-- engine.rapl&#45;&gt;engine.samples -->
<g id="edge6" class="edge">
<title>engine.rapl&#45;&gt;engine.samples</title>
<path fill="none" stroke="blue" d="M587.24,-242.29C629.51,-233.52 649.35,-227.76 667.26,-217.04"/>
<polygon fill="blue" stroke="blue" points="669.52,-219.74 675.98,-211.35 665.7,-213.88 669.52,-219.74"/>
</g>
<!-- engine.raw -->
<g id="node9" class="node">
<title>engine.raw</title>
<polygon fill="none" stroke="lightyellow" points="1093,-203 895,-203 895,-167 1093,-167 1093,-203"/>
<text text-anchor="middle" x="994" y="-181.3" font-family="Times,serif" font-size="14.00">RawEnergyMeasurement</text>
</g>
<!-- engine.rapl&#45;&gt;engine.raw -->
<g id="edge12" class="edge">
<title>engine.rapl&#45;&gt;engine.raw</title>
<path fill="none" stroke="blue" d="M587.04,-248.77C800.11,-231.89 849.7,-226.87 924.84,-205.81"/>
<polygon fill="blue" stroke="blue" points="925.98,-209.12 934.64,-203.01 924.07,-202.39 925.98,-209.12"/>
<text text-anchor="middle" x="708.5" y="-300.8" font-family="Times,serif" font-size="14.00">final</text>
</g>
<!-- engine.msr&#45;&gt;engine.samples -->
<g id="edge7" class="edge">
<title>engine.msr&#45;&gt;engine.samples</title>
<path fill="none" stroke="blue" d="M580.71,-326.96C646.85,-299.22 660.98,-284.85 691.81,-220.62"/>
<polygon fill="blue" stroke="blue" points="695.15,-221.76 696.28,-211.22 688.82,-218.75 695.15,-221.76"/>
</g>
<!-- engine.msr&#45;&gt;engine.raw -->
<g id="edge13" class="edge">
<title>engine.msr&#45;&gt;engine.raw</title>
<path fill="none" stroke="blue" d="M584.6,-337.78C833.92,-297.52 861.45,-289.26 962.99,-209.58"/>
<polygon fill="blue" stroke="blue" points="965.4,-212.14 971.09,-203.2 961.07,-206.64 965.4,-212.14"/>
<text text-anchor="middle" x="708.5" y="-401.8" font-family="Times,serif" font-size="14.00">final</text>
</g>
<!-- engine.perf&#45;&gt;engine.samples -->
<g id="edge8" class="edge">
<title>engine.perf&#45;&gt;engine.samples</title>
<path fill="none" stroke="blue" d="M584.5,-67.29C641.41,-85.57 656.47,-98.39 687.78,-149.92"/>
<polygon fill="blue" stroke="blue" points="684.8,-151.76 692.95,-158.52 690.8,-148.15 684.8,-151.76"/>
</g>
<!-- engine.perf&#45;&gt;engine.raw -->
<g id="edge14" class="edge">
<title>engine.perf&#45;&gt;engine.raw</title>
<path fill="none" stroke="blue" d="M584.9,-57.34C829.08,-82.89 857.94,-89.66 960.01,-160.96"/>
<polygon fill="blue" stroke="blue" points="958.28,-164.02 968.47,-166.9 962.3,-158.29 958.28,-164.02"/>
<text text-anchor="middle" x="708.5" y="-3.8" font-family="Times,serif" font-size="14.00">final</text>
</g>
<!-- engine.turbostat&#45;&gt;engine.samples -->
<g id="edge9" class="edge">
<title>engine.turbostat&#45;&gt;engine.samples</title>
<path fill="none" stroke="blue" d="M602.37,-170.64C612.55,-170.54 621.19,-170.56 628.77,-170.72"/>
<polygon fill="blue" stroke="blue" points="628.71,-174.22 638.83,-171.06 628.95,-167.23 628.71,-174.22"/>
</g>
<!-- engine.turbostat&#45;&gt;engine.raw -->
<g id="edge15" class="edge">
<title>engine.turbostat&#45;&gt;engine.raw</title>
<path fill="none" stroke="blue" d="M602.08,-171.55C764.38,-170.52 827.05,-170.58 884.44,-174.4"/>
<polygon fill="blue" stroke="blue" points="884.52,-177.92 894.75,-175.13 885.02,-170.94 884.52,-177.92"/>
<text text-anchor="middle" x="708.5" y="-104.8" font-family="Times,serif" font-size="14.00">final</text>
</g>
<!-- engine.samples&#45;&gt;engine.raw -->
<g id="edge11" class="edge">
<title>engine.samples&#45;&gt;engine.raw</title>
<path fill="none" stroke="blue" d="M778.2,-184.09C827.45,-183.47 859.66,-183.12 884.57,-183.05"/>
<polygon fill="blue" stroke="blue" points="884.83,-186.55 894.83,-183.03 884.82,-179.55 884.83,-186.55"/>
<text text-anchor="middle" x="836.5" y="-188.8" font-family="Times,serif" font-size="14.00">all samples</text>
</g>
<!-- engine.stop -->
<g id="node8" class="node">
<title>engine.stop</title>
<polygon fill="none" stroke="lightblue" points="165,-193 2,-193 2,-157 165,-157 165,-193"/>
<text text-anchor="middle" x="83.5" y="-171.3" font-family="Times,serif" font-size="14.00">stop_measurement()</text>
</g>
<!-- engine.stop&#45;&gt;engine.thread -->
<g id="edge10" class="edge">
<title>engine.stop&#45;&gt;engine.thread</title>
<path fill="none" stroke="black" d="M157.77,-193.02C176.33,-196.33 199.34,-199.56 235.84,-204.22"/>
<polygon fill="black" stroke="black" points="235.59,-207.72 245.96,-205.51 236.48,-200.78 235.59,-207.72"/>
<text text-anchor="middle" x="206.5" y="-178.8" font-family="Times,serif" font-size="14.00">stops</text>
</g>
</g>
</svg>
