<?xml version="1.0" encoding="UTF-8" standalone="no"?>
<!DOCTYPE svg PUBLIC "-//W3C//DTD SVG 1.1//EN"
 "http://www.w3.org/Graphics/SVG/1.1/DTD/svg11.dtd">
<!-- Generated by graphviz version 2.42.4 (0)
 -->
<!-- Pages: 1 -->
<svg width="769pt" height="389pt"
 viewBox="0.00 0.00 769.00 389.25" xmlns="http://www.w3.org/2000/svg" xmlns:xlink="http://www.w3.org/1999/xlink">
<g id="graph0" class="graph" transform="scale(1 1) rotate(0) translate(4 385.25)">
<polygon fill="white" stroke="transparent" points="-4,4 -4,-385.25 765,-385.25 765,4 -4,4"/>
<!-- gui.app -->
<g id="node1" class="node">
<title>gui.app</title>
<polygon fill="none" stroke="lightpink" points="419,-381.25 324,-381.25 324,-343.25 419,-343.25 419,-381.25"/>
<text text-anchor="middle" x="371.5" y="-366.05" font-family="Times,serif" font-size="14.00">app.py</text>
<text text-anchor="middle" x="371.5" y="-351.05" font-family="Times,serif" font-size="14.00">(Streamlit)</text>
</g>
<!-- gui.sidebar -->
<g id="node2" class="node">
<title>gui.sidebar</title>
<polygon fill="none" stroke="lightpink" points="416.5,-270.25 326.5,-270.25 326.5,-234.25 416.5,-234.25 416.5,-270.25"/>
<text text-anchor="middle" x="371.5" y="-248.55" font-family="Times,serif" font-size="14.00">sidebar.py</text>
</g>
<!-- gui.app&#45;&gt;gui.sidebar -->
<g id="edge1" class="edge">
<title>gui.app&#45;&gt;gui.sidebar</title>
<path fill="none" stroke="black" stroke-dasharray="5,2" d="M371.5,-343.09C371.5,-343.09 371.5,-280.46 371.5,-280.46"/>
<polygon fill="black" stroke="black" points="375,-280.46 371.5,-270.46 368,-280.46 375,-280.46"/>
<text text-anchor="middle" x="401.5" y="-303.05" font-family="Times,serif" font-size="14.00">includes</text>
</g>
<!-- gui.session -->
<g id="node3" class="node">
<title>gui.session</title>
<polygon fill="none" stroke="lightpink" points="135,-161.25 0,-161.25 0,-125.25 135,-125.25 135,-161.25"/>
<text text-anchor="middle" x="67.5" y="-139.55" font-family="Times,serif" font-size="14.00">Session Analysis</text>
</g>
<!-- gui.sidebar&#45;&gt;gui.session -->
<g id="edge2" class="edge">
<title>gui.sidebar&#45;&gt;gui.session</title>
<path fill="none" stroke="black" stroke-dasharray="5,2" d="M326.32,-258C241.63,-258 67.5,-258 67.5,-258 67.5,-258 67.5,-171.43 67.5,-171.43"/>
<polygon fill="black" stroke="black" points="71,-171.43 67.5,-161.43 64,-171.43 71,-171.43"/>
<text text-anchor="middle" x="125.5" y="-194.05" font-family="Times,serif" font-size="14.00">navigates</text>
</g>
<!-- gui.energy -->
<g id="node4" class="node">
<title>gui.energy</title>
<polygon fill="none" stroke="lightpink" points="278,-161.25 171,-161.25 171,-125.25 278,-125.25 278,-161.25"/>
<text text-anchor="middle" x="224.5" y="-139.55" font-family="Times,serif" font-size="14.00">Energy Page</text>
</g>
<!-- gui.sidebar&#45;&gt;gui.energy -->
<g id="edge3" class="edge">
<title>gui.sidebar&#45;&gt;gui.energy</title>
<path fill="none" stroke="black" stroke-dasharray="5,2" d="M326.2,-246C283,-246 224.5,-246 224.5,-246 224.5,-246 224.5,-171.62 224.5,-171.62"/>
<polygon fill="black" stroke="black" points="228,-171.62 224.5,-161.62 221,-171.62 228,-171.62"/>
<text text-anchor="middle" x="277.5" y="-194.05" font-family="Times,serif" font-size="14.00">navigates</text>
</g>
<!-- gui.thermal -->
<g id="node5" class="node">
<title>gui.thermal</title>
<polygon fill="none" stroke="lightpink" points="429,-161.25 314,-161.25 314,-125.25 429,-125.25 429,-161.25"/>
<text text-anchor="middle" x="371.5" y="-139.55" font-family="Times,serif" font-size="14.00">Thermal Page</text>
</g>
<!-- gui.sidebar&#45;&gt;gui.thermal -->
<g id="edge4" class="edge">
<title>gui.sidebar&#45;&gt;gui.thermal</title>
<path fill="none" stroke="black" stroke-dasharray="5,2" d="M371.5,-233.76C371.5,-233.76 371.5,-171.47 371.5,-171.47"/>
<polygon fill="black" stroke="black" points="375,-171.47 371.5,-161.47 368,-171.47 375,-171.47"/>
<text text-anchor="middle" x="406.5" y="-194.05" font-family="Times,serif" font-size="14.00">navigates</text>
</g>
<!-- gui.sustain -->
<g id="node6" class="node">
<title>gui.sustain</title>
<polygon fill="none" stroke="lightpink" points="620,-161.25 465,-161.25 465,-125.25 620,-125.25 620,-161.25"/>
<text text-anchor="middle" x="542.5" y="-139.55" font-family="Times,serif" font-size="14.00">Sustainability Page</text>
</g>
<!-- gui.sidebar&#45;&gt;gui.sustain -->
<g id="edge5" class="edge">
<title>gui.sidebar&#45;&gt;gui.sustain</title>
<path fill="none" stroke="black" stroke-dasharray="5,2" d="M416.88,-246C467.54,-246 542.5,-246 542.5,-246 542.5,-246 542.5,-171.62 542.5,-171.62"/>
<polygon fill="black" stroke="black" points="546,-171.62 542.5,-161.62 539,-171.62 546,-171.62"/>
<text text-anchor="middle" x="547.5" y="-194.05" font-family="Times,serif" font-size="14.00">navigates</text>
</g>
<!-- gui.tax -->
<g id="node7" class="node">
<title>gui.tax</title>
<polygon fill="none" stroke="lightpink" points="761,-161.25 656,-161.25 656,-125.25 761,-125.25 761,-161.25"/>
<text text-anchor="middle" x="708.5" y="-139.55" font-family="Times,serif" font-size="14.00">Tax Analysis</text>
</g>
<!-- gui.sidebar&#45;&gt;gui.tax -->
<g id="edge6" class="edge">
<title>gui.sidebar&#45;&gt;gui.tax</title>
<path fill="none" stroke="black" stroke-dasharray="5,2" d="M416.6,-258C508.43,-258 708.5,-258 708.5,-258 708.5,-258 708.5,-171.43 708.5,-171.43"/>
<polygon fill="black" stroke="black" points="712,-171.43 708.5,-161.43 705,-171.43 712,-171.43"/>
<text text-anchor="middle" x="700.5" y="-194.05" font-family="Times,serif" font-size="14.00">navigates</text>
</g>
<!-- gui.db -->
<g id="node8" class="node">
<title>gui.db</title>
<path fill="none" stroke="lightcoral" d="M420,-47.6C420,-50.24 398.26,-52.38 371.5,-52.38 344.74,-52.38 323,-50.24 323,-47.6 323,-47.6 323,-4.65 323,-4.65 323,-2.01 344.74,0.13 371.5,0.13 398.26,0.13 420,-2.01 420,-4.65 420,-4.65 420,-47.6 420,-47.6"/>
<path fill="none" stroke="lightcoral" d="M420,-47.6C420,-44.97 398.26,-42.83 371.5,-42.83 344.74,-42.83 323,-44.97 323,-47.6"/>
<text text-anchor="middle" x="371.5" y="-29.93" font-family="Times,serif" font-size="14.00">Database</text>
<text text-anchor="middle" x="371.5" y="-14.93" font-family="Times,serif" font-size="14.00">Connection</text>
</g>
<!-- gui.session&#45;&gt;gui.db -->
<g id="edge7" class="edge">
<title>gui.session&#45;&gt;gui.db</title>
<path fill="none" stroke="blue" d="M88.33,-124.96C88.33,-96.79 88.33,-46 88.33,-46 88.33,-46 312.82,-46 312.82,-46"/>
<polygon fill="blue" stroke="blue" points="312.82,-49.5 322.82,-46 312.82,-42.5 312.82,-49.5"/>
<text text-anchor="middle" x="208.5" y="-85.05" font-family="Times,serif" font-size="14.00">queries</text>
</g>
<!-- gui.report -->
<g id="node9" class="node">
<title>gui.report</title>
<polygon fill="none" stroke="lightpink" points="130,-44.12 5,-44.12 5,-8.12 130,-8.12 130,-44.12"/>
<text text-anchor="middle" x="67.5" y="-22.43" font-family="Times,serif" font-size="14.00">PDF Generator</text>
</g>
<!-- gui.session&#45;&gt;gui.report -->
<g id="edge12" class="edge">
<title>gui.session&#45;&gt;gui.report</title>
<path fill="none" stroke="black" stroke-dasharray="5,2" d="M46.67,-125.21C46.67,-125.21 46.67,-54.38 46.67,-54.38"/>
<polygon fill="black" stroke="black" points="50.17,-54.38 46.67,-44.38 43.17,-54.38 50.17,-54.38"/>
<text text-anchor="middle" x="103.5" y="-85.05" font-family="Times,serif" font-size="14.00">generates</text>
</g>
<!-- gui.energy&#45;&gt;gui.db -->
<g id="edge8" class="edge">
<title>gui.energy&#45;&gt;gui.db</title>
<path fill="none" stroke="blue" d="M224.5,-125.08C224.5,-97.69 224.5,-49 224.5,-49 224.5,-49 312.96,-49 312.96,-49"/>
<polygon fill="blue" stroke="blue" points="312.96,-52.5 322.96,-49 312.96,-45.5 312.96,-52.5"/>
<text text-anchor="middle" x="303.5" y="-85.05" font-family="Times,serif" font-size="14.00">queries</text>
</g>
<!-- gui.thermal&#45;&gt;gui.db -->
<g id="edge9" class="edge">
<title>gui.thermal&#45;&gt;gui.db</title>
<path fill="none" stroke="blue" d="M371.5,-125.21C371.5,-125.21 371.5,-62.68 371.5,-62.68"/>
<polygon fill="blue" stroke="blue" points="375,-62.68 371.5,-52.68 368,-62.68 375,-62.68"/>
<text text-anchor="middle" x="398.5" y="-85.05" font-family="Times,serif" font-size="14.00">queries</text>
</g>
<!-- gui.sustain&#45;&gt;gui.db -->
<g id="edge10" class="edge">
<title>gui.sustain&#45;&gt;gui.db</title>
<path fill="none" stroke="blue" d="M542.5,-125.21C542.5,-94.18 542.5,-34 542.5,-34 542.5,-34 430.04,-34 430.04,-34"/>
<polygon fill="blue" stroke="blue" points="430.04,-30.5 420.04,-34 430.04,-37.5 430.04,-30.5"/>
<text text-anchor="middle" x="531.5" y="-85.05" font-family="Times,serif" font-size="14.00">queries</text>
</g>
<!-- gui.tax&#45;&gt;gui.db -->
<g id="edge11" class="edge">
<title>gui.tax&#45;&gt;gui.db</title>
<path fill="none" stroke="blue" d="M708.5,-125.16C708.5,-90.25 708.5,-17 708.5,-17 708.5,-17 430.14,-17 430.14,-17"/>
<polygon fill="blue" stroke="blue" points="430.14,-13.5 420.14,-17 430.14,-20.5 430.14,-13.5"/>
<text text-anchor="middle" x="680.5" y="-85.05" font-family="Times,serif" font-size="14.00">queries</text>
</g>
</g>
</svg>
