<?xml version="1.0" encoding="UTF-8" standalone="no"?>
<!DOCTYPE svg PUBLIC "-//W3C//DTD SVG 1.1//EN"
 "http://www.w3.org/Graphics/SVG/1.1/DTD/svg11.dtd">
<!-- Generated by graphviz version 2.42.4 (0)
 -->
<!-- Pages: 1 -->
<svg width="1051pt" height="242pt"
 viewBox="0.00 0.00 1051.00 241.98" xmlns="http://www.w3.org/2000/svg" xmlns:xlink="http://www.w3.org/1999/xlink">
<g id="graph0" class="graph" transform="scale(1 1) rotate(0) translate(4 237.98)">
<polygon fill="white" stroke="transparent" points="-4,4 -4,-237.98 1047,-237.98 1047,4 -4,4"/>
<!-- ms.topbar -->
<g id="node1" class="node">
<title>ms.topbar</title>
<polygon fill="none" stroke="lightyellow" points="119,-89 0,-89 0,-51 119,-51 119,-89"/>
<text text-anchor="middle" x="59.5" y="-73.8" font-family="Times,serif" font-size="14.00">TopBar</text>
<text text-anchor="middle" x="59.5" y="-58.8" font-family="Times,serif" font-size="14.00">(music toggle)</text>
</g>
<!-- ms.store -->
<g id="node2" class="node">
<title>ms.store</title>
<polygon fill="none" stroke="#c8e6c9" points="374,-152 276,-152 276,-114 374,-114 374,-152"/>
<text text-anchor="middle" x="325" y="-136.8" font-family="Times,serif" font-size="14.00">musicStore</text>
<text text-anchor="middle" x="325" y="-121.8" font-family="Times,serif" font-size="14.00">(singleton)</text>
</g>
<!-- ms.topbar&#45;&gt;ms.store -->
<g id="edge2" class="edge">
<title>ms.topbar&#45;&gt;ms.store</title>
<path fill="none" stroke="blue" d="M108.6,-89.05C143.34,-101.25 174.07,-107.43 265.73,-123"/>
<polygon fill="blue" stroke="blue" points="265.25,-126.47 275.69,-124.69 266.42,-119.57 265.25,-126.47"/>
<text text-anchor="middle" x="197.5" y="-166.8" font-family="Times,serif" font-size="14.00">setAudio()</text>
<text text-anchor="middle" x="197.5" y="-151.8" font-family="Times,serif" font-size="14.00">notify(true/false)</text>
</g>
<!-- ms.topbar&#45;&gt;ms.store -->
<g id="edge7" class="edge">
<title>ms.topbar&#45;&gt;ms.store</title>
<path fill="none" stroke="black" d="M108.6,-89.05C143.34,-101.25 174.07,-107.43 265.73,-123"/>
<polygon fill="black" stroke="black" points="265.25,-126.47 275.69,-124.69 266.42,-119.57 265.25,-126.47"/>
<text text-anchor="middle" x="197.5" y="-88.8" font-family="Times,serif" font-size="14.00">stop() on</text>
<text text-anchor="middle" x="197.5" y="-73.8" font-family="Times,serif" font-size="14.00">page change</text>
</g>
<!-- ms.audio -->
<g id="node4" class="node">
<title>ms.audio</title>
<polygon fill="none" stroke="lightblue" points="689,-45 528,-45 528,-7 689,-7 689,-45"/>
<text text-anchor="middle" x="608.5" y="-29.8" font-family="Times,serif" font-size="14.00">HTMLAudioElement</text>
<text text-anchor="middle" x="608.5" y="-14.8" font-family="Times,serif" font-size="14.00">(/audio/page.mp3)</text>
</g>
<!-- ms.topbar&#45;&gt;ms.audio -->
<g id="edge1" class="edge">
<title>ms.topbar&#45;&gt;ms.audio</title>
<path fill="none" stroke="black" d="M119.03,-51.85C223.22,-21.31 269.13,-19.03 517.82,-24.08"/>
<polygon fill="black" stroke="black" points="517.83,-27.58 527.9,-24.28 517.98,-20.58 517.83,-27.58"/>
<text text-anchor="middle" x="325" y="-3.8" font-family="Times,serif" font-size="14.00">new Audio()</text>
</g>
<!-- ms.sidebar -->
<g id="node3" class="node">
<title>ms.sidebar</title>
<polygon fill="none" stroke="lightyellow" points="663.5,-128 553.5,-128 553.5,-90 663.5,-90 663.5,-128"/>
<text text-anchor="middle" x="608.5" y="-112.8" font-family="Times,serif" font-size="14.00">Sidebar</text>
<text text-anchor="middle" x="608.5" y="-97.8" font-family="Times,serif" font-size="14.00">(stop button)</text>
</g>
<!-- ms.store&#45;&gt;ms.sidebar -->
<g id="edge3" class="edge">
<title>ms.store&#45;&gt;ms.sidebar</title>
<path fill="none" stroke="blue" d="M374.17,-122.82C413.37,-115.62 444.56,-113.77 543.29,-110.85"/>
<polygon fill="blue" stroke="blue" points="543.49,-114.35 553.38,-110.56 543.28,-107.35 543.49,-114.35"/>
<text text-anchor="middle" x="451" y="-151.8" font-family="Times,serif" font-size="14.00">subscribe()</text>
<text text-anchor="middle" x="451" y="-136.8" font-family="Times,serif" font-size="14.00">setMusicPlaying</text>
</g>
<!-- ms.store&#45;&gt;ms.audio -->
<g id="edge6" class="edge">
<title>ms.store&#45;&gt;ms.audio</title>
<path fill="none" stroke="black" d="M346.61,-113.88C398.92,-68.23 420,-57.35 517.65,-40.57"/>
<polygon fill="black" stroke="black" points="518.39,-44 527.66,-38.87 517.22,-37.09 518.39,-44"/>
<text text-anchor="middle" x="451" y="-73.8" font-family="Times,serif" font-size="14.00">pause() + src=&#39;&#39;</text>
</g>
<!-- ms.indicator -->
<g id="node5" class="node">
<title>ms.indicator</title>
<polygon fill="none" stroke="lightblue" points="1043,-196 870,-196 870,-158 1043,-158 1043,-196"/>
<text text-anchor="middle" x="956.5" y="-180.8" font-family="Times,serif" font-size="14.00">VolumeX button</text>
<text text-anchor="middle" x="956.5" y="-165.8" font-family="Times,serif" font-size="14.00">(visible when playing)</text>
</g>
<!-- ms.sidebar&#45;&gt;ms.indicator -->
<g id="edge4" class="edge">
<title>ms.sidebar&#45;&gt;ms.indicator</title>
<path fill="none" stroke="black" d="M663.71,-117.02C793.89,-135.99 838.66,-143.13 884.23,-155.27"/>
<polygon fill="black" stroke="black" points="883.43,-158.68 894,-157.95 885.28,-151.93 883.43,-158.68"/>
<text text-anchor="middle" x="779.5" y="-143.8" font-family="Times,serif" font-size="14.00">shows when playing</text>
</g>
<!-- ms.indicator&#45;&gt;ms.store -->
<g id="edge5" class="edge">
<title>ms.indicator&#45;&gt;ms.store</title>
<path fill="none" stroke="black" d="M374.32,-148.94C678.13,-246.96 718.36,-254.53 889.82,-199.14"/>
<polygon fill="black" stroke="black" points="890.99,-202.44 899.42,-196.02 888.83,-195.78 890.99,-202.44"/>
<text text-anchor="middle" x="608.5" y="-217.8" font-family="Times,serif" font-size="14.00">musicStore.stop()</text>
</g>
</g>
</svg>
