<?xml version="1.0" encoding="UTF-8" standalone="no"?>
<!DOCTYPE svg PUBLIC "-//W3C//DTD SVG 1.1//EN"
 "http://www.w3.org/Graphics/SVG/1.1/DTD/svg11.dtd">
<!-- Generated by graphviz version 2.43.0 (0)
 -->
<!-- Title: %3 Pages: 1 -->
<svg width="1233pt" height="503pt"
 viewBox="0.00 0.00 1233.00 503.00" xmlns="http://www.w3.org/2000/svg" xmlns:xlink="http://www.w3.org/1999/xlink">
<g id="graph0" class="graph" transform="scale(1 1) rotate(0) translate(4 499)">
<title>%3</title>
<polygon fill="white" stroke="transparent" points="-4,4 -4,-499 1229,-499 1229,4 -4,4"/>
<!-- tax.linear -->
<g id="node1" class="node">
<title>tax.linear</title>
<polygon fill="lightgreen" stroke="lightgreen" points="763,-485 650,-485 650,-447 763,-447 763,-485"/>
<text text-anchor="middle" x="706.5" y="-469.8" font-family="Helvetica,sans-Serif" font-size="14.00">Linear Workflow</text>
<text text-anchor="middle" x="706.5" y="-454.8" font-family="Helvetica,sans-Serif" font-size="14.00">Single LLM Call</text>
</g>
<!-- tax.core -->
<g id="node6" class="node">
<title>tax.core</title>
<polygon fill="lightblue" stroke="lightblue" points="1000,-347 900,-347 900,-309 1000,-309 1000,-347"/>
<text text-anchor="middle" x="950" y="-331.8" font-family="Helvetica,sans-Serif" font-size="14.00">Core Energy</text>
<text text-anchor="middle" x="950" y="-316.8" font-family="Helvetica,sans-Serif" font-size="14.00">(computation)</text>
</g>
<!-- tax.linear&#45;&gt;tax.core -->
<g id="edge1" class="edge">
<title>tax.linear&#45;&gt;tax.core</title>
<path fill="none" stroke="blue" d="M728.22,-446.94C769.87,-411 789.48,-400.09 898.09,-351.25"/>
<polygon fill="blue" stroke="blue" points="899.78,-354.33 907.46,-347.04 896.91,-347.94 899.78,-354.33"/>
<text text-anchor="middle" x="816.5" y="-441.8" font-family="Times,serif" font-size="14.00">core_energy</text>
</g>
<!-- tax.agentic -->
<g id="node2" class="node">
<title>tax.agentic</title>
<polygon fill="lightcoral" stroke="lightcoral" points="191,-203 0,-203 0,-165 191,-165 191,-203"/>
<text text-anchor="middle" x="95.5" y="-187.8" font-family="Helvetica,sans-Serif" font-size="14.00">Agentic Workflow</text>
<text text-anchor="middle" x="95.5" y="-172.8" font-family="Helvetica,sans-Serif" font-size="14.00">Planning + Tools + Synthesis</text>
</g>
<!-- tax.planning -->
<g id="node3" class="node">
<title>tax.planning</title>
<polygon fill="lightyellow" stroke="lightyellow" points="380,-202 269,-202 269,-166 380,-166 380,-202"/>
<text text-anchor="middle" x="324.5" y="-180.3" font-family="Helvetica,sans-Serif" font-size="14.00">Planning Phase</text>
</g>
<!-- tax.agentic&#45;&gt;tax.planning -->
<g id="edge3" class="edge">
<title>tax.agentic&#45;&gt;tax.planning</title>
<path fill="none" stroke="blue" d="M191.05,-174.34C208.04,-174.86 229.18,-176.28 258.51,-178.59"/>
<polygon fill="blue" stroke="blue" points="258.54,-182.1 268.78,-179.41 259.09,-175.12 258.54,-182.1"/>
<text text-anchor="middle" x="230" y="-187.8" font-family="Times,serif" font-size="14.00">phase 1</text>
</g>
<!-- tax.execution -->
<g id="node4" class="node">
<title>tax.execution</title>
<polygon fill="lightyellow" stroke="lightyellow" points="562,-202 458,-202 458,-166 562,-166 562,-202"/>
<text text-anchor="middle" x="510" y="-180.3" font-family="Helvetica,sans-Serif" font-size="14.00">Tool Execution</text>
</g>
<!-- tax.planning&#45;&gt;tax.execution -->
<g id="edge4" class="edge">
<title>tax.planning&#45;&gt;tax.execution</title>
<path fill="none" stroke="blue" d="M380.25,-169.95C396.91,-168.37 415.58,-169.88 447.94,-174.49"/>
<polygon fill="blue" stroke="blue" points="447.53,-177.97 457.93,-175.94 448.54,-171.04 447.53,-177.97"/>
<text text-anchor="middle" x="419" y="-187.8" font-family="Times,serif" font-size="14.00">phase 2</text>
</g>
<!-- tax.planning&#45;&gt;tax.core -->
<g id="edge6" class="edge">
<title>tax.planning&#45;&gt;tax.core</title>
<path fill="none" stroke="blue" d="M380.22,-182.28C713.3,-172.21 741.6,-177.92 915.52,-303.07"/>
<polygon fill="blue" stroke="blue" points="913.49,-305.92 923.65,-308.93 917.58,-300.24 913.49,-305.92"/>
<text text-anchor="middle" x="605" y="-371.8" font-family="Times,serif" font-size="14.00">core</text>
</g>
<!-- tax.uncore -->
<g id="node7" class="node">
<title>tax.uncore</title>
<polygon fill="lightcoral" stroke="lightcoral" points="1032,-163 868,-163 868,-125 1032,-125 1032,-163"/>
<text text-anchor="middle" x="950" y="-147.8" font-family="Helvetica,sans-Serif" font-size="14.00">Uncore Energy</text>
<text text-anchor="middle" x="950" y="-132.8" font-family="Helvetica,sans-Serif" font-size="14.00">(orchestration overhead)</text>
</g>
<!-- tax.planning&#45;&gt;tax.uncore -->
<g id="edge9" class="edge">
<title>tax.planning&#45;&gt;tax.uncore</title>
<path fill="none" stroke="blue" d="M366.83,-165.94C636.42,-51.17 668.81,-45.41 886.81,-121.62"/>
<polygon fill="blue" stroke="blue" points="885.72,-124.95 896.32,-124.96 888.04,-118.35 885.72,-124.95"/>
<text text-anchor="middle" x="605" y="-3.8" font-family="Times,serif" font-size="14.00">overhead</text>
</g>
<!-- tax.synthesis -->
<g id="node5" class="node">
<title>tax.synthesis</title>
<polygon fill="lightyellow" stroke="lightyellow" points="765,-202 648,-202 648,-166 765,-166 765,-202"/>
<text text-anchor="middle" x="706.5" y="-180.3" font-family="Helvetica,sans-Serif" font-size="14.00">Synthesis Phase</text>
</g>
<!-- tax.execution&#45;&gt;tax.synthesis -->
<g id="edge5" class="edge">
<title>tax.execution&#45;&gt;tax.synthesis</title>
<path fill="none" stroke="blue" d="M555.96,-165.91C594.52,-151.92 613.45,-150.84 649.84,-162.69"/>
<polygon fill="blue" stroke="blue" points="648.89,-166.07 659.49,-165.98 651.15,-159.44 648.89,-166.07"/>
<text text-anchor="middle" x="605" y="-187.8" font-family="Times,serif" font-size="14.00">phase 3</text>
</g>
<!-- tax.execution&#45;&gt;tax.core -->
<g id="edge7" class="edge">
<title>tax.execution&#45;&gt;tax.core</title>
<path fill="none" stroke="blue" d="M562.1,-190.9C793.35,-221.72 821.43,-229.42 917.32,-302.71"/>
<polygon fill="blue" stroke="blue" points="915.2,-305.49 925.26,-308.81 919.46,-299.94 915.2,-305.49"/>
<text text-anchor="middle" x="706.5" y="-291.8" font-family="Times,serif" font-size="14.00">core</text>
</g>
<!-- tax.execution&#45;&gt;tax.uncore -->
<g id="edge10" class="edge">
<title>tax.execution&#45;&gt;tax.uncore</title>
<path fill="none" stroke="blue" d="M562.28,-167.42C742.29,-110.56 784.88,-101.11 872.74,-122.46"/>
<polygon fill="blue" stroke="blue" points="871.98,-125.88 882.53,-124.92 873.68,-119.09 871.98,-125.88"/>
<text text-anchor="middle" x="706.5" y="-111.8" font-family="Times,serif" font-size="14.00">overhead</text>
</g>
<!-- tax.synthesis&#45;&gt;tax.core -->
<g id="edge8" class="edge">
<title>tax.synthesis&#45;&gt;tax.core</title>
<path fill="none" stroke="blue" d="M760.17,-202.13C867.6,-238.85 887.05,-250.15 928.63,-301.14"/>
<polygon fill="blue" stroke="blue" points="925.93,-303.38 934.93,-308.96 931.38,-298.98 925.93,-303.38"/>
<text text-anchor="middle" x="816.5" y="-248.8" font-family="Times,serif" font-size="14.00">core</text>
</g>
<!-- tax.synthesis&#45;&gt;tax.uncore -->
<g id="edge11" class="edge">
<title>tax.synthesis&#45;&gt;tax.uncore</title>
<path fill="none" stroke="blue" d="M765.22,-167.15C808.77,-154.8 836.03,-147.67 857.85,-143.98"/>
<polygon fill="blue" stroke="blue" points="858.48,-147.43 867.85,-142.48 857.44,-140.5 858.48,-147.43"/>
<text text-anchor="middle" x="816.5" y="-183.8" font-family="Times,serif" font-size="14.00">overhead</text>
</g>
<!-- tax.total -->
<g id="node8" class="node">
<title>tax.total</title>
<polygon fill="lightblue" stroke="lightblue" points="1225,-356 1077,-356 1077,-320 1225,-320 1225,-356"/>
<text text-anchor="middle" x="1151" y="-334.3" font-family="Helvetica,sans-Serif" font-size="14.00">Total Package Energy</text>
</g>
<!-- tax.core&#45;&gt;tax.total -->
<g id="edge2" class="edge">
<title>tax.core&#45;&gt;tax.total</title>
<path fill="none" stroke="blue" d="M1000.3,-324.6C1029.81,-322.7 1050.36,-321.68 1066.63,-321.79"/>
<polygon fill="blue" stroke="blue" points="1066.67,-325.29 1076.75,-322.03 1066.84,-318.3 1066.67,-325.29"/>
<text text-anchor="middle" x="1054.5" y="-310.8" font-family="Times,serif" font-size="14.00">+</text>
</g>
<!-- tax.core&#45;&gt;tax.total -->
<g id="edge12" class="edge">
<title>tax.core&#45;&gt;tax.total</title>
<path fill="none" stroke="blue" d="M1000.3,-324.6C1029.81,-322.7 1050.36,-321.68 1066.63,-321.79"/>
<polygon fill="blue" stroke="blue" points="1066.67,-325.29 1076.75,-322.03 1066.84,-318.3 1066.67,-325.29"/>
<text text-anchor="middle" x="1054.5" y="-373.8" font-family="Times,serif" font-size="14.00">+</text>
</g>
<!-- tax.uncore&#45;&gt;tax.total -->
<g id="edge13" class="edge">
<title>tax.uncore&#45;&gt;tax.total</title>
<path fill="none" stroke="blue" d="M983.37,-163.08C1093.21,-226.17 1107.29,-238.77 1138.98,-310.31"/>
<polygon fill="blue" stroke="blue" points="1135.93,-312.07 1143.15,-319.82 1142.34,-309.26 1135.93,-312.07"/>
<text text-anchor="middle" x="1054.5" y="-237.8" font-family="Times,serif" font-size="14.00">+</text>
</g>
<!-- tax.total&#45;&gt;tax.linear -->
<g id="edge14" class="edge">
<title>tax.total&#45;&gt;tax.linear</title>
<path fill="none" stroke="blue" d="M763.32,-472.97C897.43,-488.2 926.38,-476.24 1113.01,-361.42"/>
<polygon fill="blue" stroke="blue" points="1115.05,-364.28 1121.73,-356.05 1111.38,-358.32 1115.05,-364.28"/>
<text text-anchor="middle" x="950" y="-483.8" font-family="Times,serif" font-size="14.00">ratio</text>
</g>
</g>
</svg>
