<?xml version="1.0" encoding="UTF-8" standalone="no"?>
<!DOCTYPE svg PUBLIC "-//W3C//DTD SVG 1.1//EN"
 "http://www.w3.org/Graphics/SVG/1.1/DTD/svg11.dtd">
<!-- Generated by graphviz version 2.42.4 (0)
 -->
<!-- Pages: 1 -->
<svg width="1626pt" height="172pt"
 viewBox="0.00 0.00 1626.00 171.53" xmlns="http://www.w3.org/2000/svg" xmlns:xlink="http://www.w3.org/1999/xlink">
<g id="graph0" class="graph" transform="scale(1 1) rotate(0) translate(4 167.53)">
<polygon fill="white" stroke="transparent" points="-4,4 -4,-167.53 1622,-167.53 1622,4 -4,4"/>
<!-- pr.db -->
<g id="node1" class="node">
<title>pr.db</title>
<path fill="none" stroke="lightcoral" d="M116,-158.88C116,-161.51 90,-163.65 58,-163.65 26,-163.65 0,-161.51 0,-158.88 0,-158.88 0,-115.93 0,-115.93 0,-113.29 26,-111.15 58,-111.15 90,-111.15 116,-113.29 116,-115.93 116,-115.93 116,-158.88 116,-158.88"/>
<path fill="none" stroke="lightcoral" d="M116,-158.88C116,-156.25 90,-154.11 58,-154.11 26,-154.11 0,-156.25 0,-158.88"/>
<text text-anchor="middle" x="58" y="-141.2" font-family="Times,serif" font-size="14.00">SQLite</text>
<text text-anchor="middle" x="58" y="-126.2" font-family="Times,serif" font-size="14.00">page_sections</text>
</g>
<!-- pr.api -->
<g id="node2" class="node">
<title>pr.api</title>
<polygon fill="none" stroke="lightyellow" points="327,-156.4 211,-156.4 211,-118.4 327,-118.4 327,-156.4"/>
<text text-anchor="middle" x="269" y="-141.2" font-family="Times,serif" font-size="14.00">GET /pages/id</text>
<text text-anchor="middle" x="269" y="-126.2" font-family="Times,serif" font-size="14.00">FastAPI</text>
</g>
<!-- pr.db&#45;&gt;pr.api -->
<g id="edge1" class="edge">
<title>pr.db&#45;&gt;pr.api</title>
<path fill="none" stroke="blue" d="M116.14,-139.73C135.59,-140.03 158.49,-139.74 200.65,-138.88"/>
<polygon fill="blue" stroke="blue" points="200.93,-142.38 210.86,-138.67 200.79,-135.38 200.93,-142.38"/>
<text text-anchor="middle" x="163.5" y="-141.2" font-family="Times,serif" font-size="14.00">sections</text>
</g>
<!-- pr.dynamic -->
<g id="node3" class="node">
<title>pr.dynamic</title>
<polygon fill="none" stroke="lightblue" points="584,-156.4 453,-156.4 453,-118.4 584,-118.4 584,-156.4"/>
<text text-anchor="middle" x="518.5" y="-141.2" font-family="Times,serif" font-size="14.00">pageId/page.tsx</text>
<text text-anchor="middle" x="518.5" y="-126.2" font-family="Times,serif" font-size="14.00">DynamicPage</text>
</g>
<!-- pr.api&#45;&gt;pr.dynamic -->
<g id="edge2" class="edge">
<title>pr.api&#45;&gt;pr.dynamic</title>
<path fill="none" stroke="blue" d="M327.25,-141.33C353.67,-142.37 381.65,-141.91 442.67,-139.95"/>
<polygon fill="blue" stroke="blue" points="442.87,-143.45 452.75,-139.62 442.64,-136.45 442.87,-143.45"/>
<text text-anchor="middle" x="385.5" y="-141.2" font-family="Times,serif" font-size="14.00">pageConfig</text>
</g>
<!-- pr.renderer -->
<g id="node4" class="node">
<title>pr.renderer</title>
<polygon fill="none" stroke="#c8e6c9" points="859,-107.4 741,-107.4 741,-69.4 859,-69.4 859,-107.4"/>
<text text-anchor="middle" x="800" y="-92.2" font-family="Times,serif" font-size="14.00">PageRenderer</text>
<text text-anchor="middle" x="800" y="-77.2" font-family="Times,serif" font-size="14.00">universal</text>
</g>
<!-- pr.dynamic&#45;&gt;pr.renderer -->
<g id="edge3" class="edge">
<title>pr.dynamic&#45;&gt;pr.renderer</title>
<path fill="none" stroke="black" d="M584.27,-125.8C616.18,-120.2 650.38,-114.27 730.68,-100.39"/>
<polygon fill="black" stroke="black" points="731.45,-103.81 740.71,-98.65 730.26,-96.91 731.45,-103.81"/>
<text text-anchor="middle" x="667" y="-141.2" font-family="Times,serif" font-size="14.00">passes sections</text>
</g>
<!-- pr.registry -->
<g id="node5" class="node">
<title>pr.registry</title>
<polygon fill="none" stroke="#fff9c4" points="1153,-107.4 989,-107.4 989,-69.4 1153,-69.4 1153,-107.4"/>
<text text-anchor="middle" x="1071" y="-92.2" font-family="Times,serif" font-size="14.00">Component Registry</text>
<text text-anchor="middle" x="1071" y="-77.2" font-family="Times,serif" font-size="14.00">46 components</text>
</g>
<!-- pr.renderer&#45;&gt;pr.registry -->
<g id="edge5" class="edge">
<title>pr.renderer&#45;&gt;pr.registry</title>
<path fill="none" stroke="black" d="M859.31,-88.53C918.27,-88.65 952.48,-88.71 978.76,-88.7"/>
<polygon fill="black" stroke="black" points="978.84,-92.2 988.84,-88.7 978.84,-85.2 978.84,-92.2"/>
<text text-anchor="middle" x="924" y="-92.2" font-family="Times,serif" font-size="14.00">lookup Comp</text>
</g>
<!-- pr.sectioncard -->
<g id="node6" class="node">
<title>pr.sectioncard</title>
<polygon fill="none" stroke="#fff9c4" points="1412,-107.4 1276,-107.4 1276,-69.4 1412,-69.4 1412,-107.4"/>
<text text-anchor="middle" x="1344" y="-92.2" font-family="Times,serif" font-size="14.00">SectionCard</text>
<text text-anchor="middle" x="1344" y="-77.2" font-family="Times,serif" font-size="14.00">Card3D wrapper</text>
</g>
<!-- pr.registry&#45;&gt;pr.sectioncard -->
<g id="edge6" class="edge">
<title>pr.registry&#45;&gt;pr.sectioncard</title>
<path fill="none" stroke="black" d="M1153.2,-88.46C1209.35,-88.49 1240.11,-88.51 1265.54,-88.5"/>
<polygon fill="black" stroke="black" points="1265.8,-92 1275.8,-88.49 1265.8,-85 1265.8,-92"/>
<text text-anchor="middle" x="1214.5" y="-92.2" font-family="Times,serif" font-size="14.00">Comp found</text>
</g>
<!-- pr.comp -->
<g id="node7" class="node">
<title>pr.comp</title>
<polygon fill="none" stroke="#e8f5e9" points="1618,-58.4 1504,-58.4 1504,-20.4 1618,-20.4 1618,-58.4"/>
<text text-anchor="middle" x="1561" y="-43.2" font-family="Times,serif" font-size="14.00">Component</text>
<text text-anchor="middle" x="1561" y="-28.2" font-family="Times,serif" font-size="14.00">KPIStrip data</text>
</g>
<!-- pr.sectioncard&#45;&gt;pr.comp -->
<g id="edge7" class="edge">
<title>pr.sectioncard&#45;&gt;pr.comp</title>
<path fill="none" stroke="black" d="M1412.28,-76.67C1451.9,-69.76 1475.37,-65.31 1494.2,-60.72"/>
<polygon fill="black" stroke="black" points="1495.15,-64.09 1503.97,-58.22 1493.41,-57.31 1495.15,-64.09"/>
<text text-anchor="middle" x="1458" y="-85.2" font-family="Times,serif" font-size="14.00">renders</text>
</g>
<!-- pr.querydata -->
<g id="node8" class="node">
<title>pr.querydata</title>
<polygon fill="none" stroke="lightyellow" points="593,-49.4 444,-49.4 444,-11.4 593,-11.4 593,-49.4"/>
<text text-anchor="middle" x="518.5" y="-34.2" font-family="Times,serif" font-size="14.00">Query Data</text>
<text text-anchor="middle" x="518.5" y="-19.2" font-family="Times,serif" font-size="14.00">overview, sessions</text>
</g>
<!-- pr.querydata&#45;&gt;pr.renderer -->
<g id="edge4" class="edge">
<title>pr.querydata&#45;&gt;pr.renderer</title>
<path fill="none" stroke="blue" d="M593.3,-46.56C622.95,-52.79 657.93,-59.87 730.88,-74.53"/>
<polygon fill="blue" stroke="blue" points="730.44,-78.01 740.94,-76.55 731.82,-71.15 730.44,-78.01"/>
<text text-anchor="middle" x="667" y="-78.2" font-family="Times,serif" font-size="14.00">queryData</text>
</g>
<!-- pr.querydata&#45;&gt;pr.comp -->
<g id="edge8" class="edge">
<title>pr.querydata&#45;&gt;pr.comp</title>
<path fill="none" stroke="blue" d="M593.26,-26.09C1192.59,8.41 1248.76,9.63 1494.02,-28.77"/>
<polygon fill="blue" stroke="blue" points="1493.53,-32.23 1503.95,-30.33 1494.62,-25.32 1493.53,-32.23"/>
<text text-anchor="middle" x="1071" y="-8.2" font-family="Times,serif" font-size="14.00">data prop</text>
</g>
</g>
</svg>
