<?xml version="1.0" encoding="UTF-8" standalone="no"?>
<!DOCTYPE svg PUBLIC "-//W3C//DTD SVG 1.1//EN"
 "http://www.w3.org/Graphics/SVG/1.1/DTD/svg11.dtd">
<!-- Generated by graphviz version 2.42.4 (0)
 -->
<!-- Pages: 1 -->
<svg width="1233pt" height="1773pt"
 viewBox="0.00 0.00 1233.00 1773.00" xmlns="http://www.w3.org/2000/svg" xmlns:xlink="http://www.w3.org/1999/xlink">
<g id="graph0" class="graph" transform="scale(1 1) rotate(0) translate(4 1769)">
<polygon fill="white" stroke="transparent" points="-4,4 -4,-1769 1229,-1769 1229,4 -4,4"/>
<!-- experiments -->
<g id="node1" class="node">
<title>experiments</title>
<polygon fill="none" stroke="black" points="725.5,-895.5 725.5,-1125.5 887.5,-1125.5 887.5,-895.5 725.5,-895.5"/>
<text text-anchor="middle" x="806.5" y="-1110.3" font-family="Times,serif" font-size="14.00">experiments</text>
<polyline fill="none" stroke="black" points="725.5,-1102.5 887.5,-1102.5 "/>
<text text-anchor="middle" x="806.5" y="-1087.3" font-family="Times,serif" font-size="14.00">exp_id:INTEGER</text>
<polyline fill="none" stroke="black" points="725.5,-1079.5 887.5,-1079.5 "/>
<text text-anchor="middle" x="806.5" y="-1064.3" font-family="Times,serif" font-size="14.00">name:TEXT</text>
<polyline fill="none" stroke="black" points="725.5,-1056.5 887.5,-1056.5 "/>
<text text-anchor="middle" x="806.5" y="-1041.3" font-family="Times,serif" font-size="14.00">description:TEXT</text>
<polyline fill="none" stroke="black" points="725.5,-1033.5 887.5,-1033.5 "/>
<text text-anchor="middle" x="806.5" y="-1018.3" font-family="Times,serif" font-size="14.00">workflow_type:TEXT</text>
<polyline fill="none" stroke="black" points="725.5,-1010.5 887.5,-1010.5 "/>
<text text-anchor="middle" x="806.5" y="-995.3" font-family="Times,serif" font-size="14.00">model_name:TEXT</text>
<polyline fill="none" stroke="black" points="725.5,-987.5 887.5,-987.5 "/>
<text text-anchor="middle" x="806.5" y="-972.3" font-family="Times,serif" font-size="14.00">provider:TEXT</text>
<polyline fill="none" stroke="black" points="725.5,-964.5 887.5,-964.5 "/>
<text text-anchor="middle" x="806.5" y="-949.3" font-family="Times,serif" font-size="14.00">task_name:TEXT</text>
<polyline fill="none" stroke="black" points="725.5,-941.5 887.5,-941.5 "/>
<text text-anchor="middle" x="806.5" y="-926.3" font-family="Times,serif" font-size="14.00">country_code:TEXT</text>
<polyline fill="none" stroke="black" points="725.5,-918.5 887.5,-918.5 "/>
<text text-anchor="middle" x="806.5" y="-903.3" font-family="Times,serif" font-size="14.00">... +11</text>
</g>
<!-- hardware_config -->
<g id="node2" class="node">
<title>hardware_config</title>
<polygon fill="none" stroke="black" points="1015,-746.5 1015,-976.5 1207,-976.5 1207,-746.5 1015,-746.5"/>
<text text-anchor="middle" x="1111" y="-961.3" font-family="Times,serif" font-size="14.00">hardware_config</text>
<polyline fill="none" stroke="black" points="1015,-953.5 1207,-953.5 "/>
<text text-anchor="middle" x="1111" y="-938.3" font-family="Times,serif" font-size="14.00">hw_id:INTEGER</text>
<polyline fill="none" stroke="black" points="1015,-930.5 1207,-930.5 "/>
<text text-anchor="middle" x="1111" y="-915.3" font-family="Times,serif" font-size="14.00">hostname:TEXT</text>
<polyline fill="none" stroke="black" points="1015,-907.5 1207,-907.5 "/>
<text text-anchor="middle" x="1111" y="-892.3" font-family="Times,serif" font-size="14.00">cpu_model:TEXT</text>
<polyline fill="none" stroke="black" points="1015,-884.5 1207,-884.5 "/>
<text text-anchor="middle" x="1111" y="-869.3" font-family="Times,serif" font-size="14.00">cpu_cores:INTEGER</text>
<polyline fill="none" stroke="black" points="1015,-861.5 1207,-861.5 "/>
<text text-anchor="middle" x="1111" y="-846.3" font-family="Times,serif" font-size="14.00">cpu_threads:INTEGER</text>
<polyline fill="none" stroke="black" points="1015,-838.5 1207,-838.5 "/>
<text text-anchor="middle" x="1111" y="-823.3" font-family="Times,serif" font-size="14.00">ram_gb:INTEGER</text>
<polyline fill="none" stroke="black" points="1015,-815.5 1207,-815.5 "/>
<text text-anchor="middle" x="1111" y="-800.3" font-family="Times,serif" font-size="14.00">kernel_version:TEXT</text>
<polyline fill="none" stroke="black" points="1015,-792.5 1207,-792.5 "/>
<text text-anchor="middle" x="1111" y="-777.3" font-family="Times,serif" font-size="14.00">microcode_version:TEXT</text>
<polyline fill="none" stroke="black" points="1015,-769.5 1207,-769.5 "/>
<text text-anchor="middle" x="1111" y="-754.3" font-family="Times,serif" font-size="14.00">... +22</text>
</g>
<!-- experiments&#45;&gt;hardware_config -->
<g id="edge1" class="edge">
<title>experiments&#45;&gt;hardware_config</title>
<path fill="none" stroke="black" d="M887.77,-970.96C923.91,-953.16 967.03,-931.92 1005.64,-912.91"/>
<polygon fill="black" stroke="black" points="1007.4,-915.94 1014.83,-908.38 1004.31,-909.66 1007.4,-915.94"/>
<text text-anchor="middle" x="956" y="-948.3" font-family="Times,serif" font-size="14.00">hw_id</text>
</g>
<!-- environment_config -->
<g id="node13" class="node">
<title>environment_config</title>
<polygon fill="none" stroke="black" points="997,-995.5 997,-1225.5 1225,-1225.5 1225,-995.5 997,-995.5"/>
<text text-anchor="middle" x="1111" y="-1210.3" font-family="Times,serif" font-size="14.00">environment_config</text>
<polyline fill="none" stroke="black" points="997,-1202.5 1225,-1202.5 "/>
<text text-anchor="middle" x="1111" y="-1187.3" font-family="Times,serif" font-size="14.00">env_id:INTEGER</text>
<polyline fill="none" stroke="black" points="997,-1179.5 1225,-1179.5 "/>
<text text-anchor="middle" x="1111" y="-1164.3" font-family="Times,serif" font-size="14.00">python_version:TEXT</text>
<polyline fill="none" stroke="black" points="997,-1156.5 1225,-1156.5 "/>
<text text-anchor="middle" x="1111" y="-1141.3" font-family="Times,serif" font-size="14.00">python_implementation:TEXT</text>
<polyline fill="none" stroke="black" points="997,-1133.5 1225,-1133.5 "/>
<text text-anchor="middle" x="1111" y="-1118.3" font-family="Times,serif" font-size="14.00">os_name:TEXT</text>
<polyline fill="none" stroke="black" points="997,-1110.5 1225,-1110.5 "/>
<text text-anchor="middle" x="1111" y="-1095.3" font-family="Times,serif" font-size="14.00">os_version:TEXT</text>
<polyline fill="none" stroke="black" points="997,-1087.5 1225,-1087.5 "/>
<text text-anchor="middle" x="1111" y="-1072.3" font-family="Times,serif" font-size="14.00">kernel_version:TEXT</text>
<polyline fill="none" stroke="black" points="997,-1064.5 1225,-1064.5 "/>
<text text-anchor="middle" x="1111" y="-1049.3" font-family="Times,serif" font-size="14.00">llm_framework:TEXT</text>
<polyline fill="none" stroke="black" points="997,-1041.5 1225,-1041.5 "/>
<text text-anchor="middle" x="1111" y="-1026.3" font-family="Times,serif" font-size="14.00">framework_version:TEXT</text>
<polyline fill="none" stroke="black" points="997,-1018.5 1225,-1018.5 "/>
<text text-anchor="middle" x="1111" y="-1003.3" font-family="Times,serif" font-size="14.00">... +10</text>
</g>
<!-- experiments&#45;&gt;environment_config -->
<g id="edge2" class="edge">
<title>experiments&#45;&gt;environment_config</title>
<path fill="none" stroke="black" d="M887.77,-1037.04C918.2,-1047.09 953.58,-1058.79 987.05,-1069.86"/>
<polygon fill="black" stroke="black" points="986.3,-1073.3 996.9,-1073.11 988.5,-1066.65 986.3,-1073.3"/>
<text text-anchor="middle" x="956" y="-1069.3" font-family="Times,serif" font-size="14.00">env_id</text>
</g>
<!-- idle_baselines -->
<g id="node3" class="node">
<title>idle_baselines</title>
<polygon fill="none" stroke="black" points="698,-594.5 698,-824.5 915,-824.5 915,-594.5 698,-594.5"/>
<text text-anchor="middle" x="806.5" y="-809.3" font-family="Times,serif" font-size="14.00">idle_baselines</text>
<polyline fill="none" stroke="black" points="698,-801.5 915,-801.5 "/>
<text text-anchor="middle" x="806.5" y="-786.3" font-family="Times,serif" font-size="14.00">baseline_id:TEXT</text>
<polyline fill="none" stroke="black" points="698,-778.5 915,-778.5 "/>
<text text-anchor="middle" x="806.5" y="-763.3" font-family="Times,serif" font-size="14.00">timestamp:REAL</text>
<polyline fill="none" stroke="black" points="698,-755.5 915,-755.5 "/>
<text text-anchor="middle" x="806.5" y="-740.3" font-family="Times,serif" font-size="14.00">package_power_watts:REAL</text>
<polyline fill="none" stroke="black" points="698,-732.5 915,-732.5 "/>
<text text-anchor="middle" x="806.5" y="-717.3" font-family="Times,serif" font-size="14.00">core_power_watts:REAL</text>
<polyline fill="none" stroke="black" points="698,-709.5 915,-709.5 "/>
<text text-anchor="middle" x="806.5" y="-694.3" font-family="Times,serif" font-size="14.00">uncore_power_watts:REAL</text>
<polyline fill="none" stroke="black" points="698,-686.5 915,-686.5 "/>
<text text-anchor="middle" x="806.5" y="-671.3" font-family="Times,serif" font-size="14.00">dram_power_watts:REAL</text>
<polyline fill="none" stroke="black" points="698,-663.5 915,-663.5 "/>
<text text-anchor="middle" x="806.5" y="-648.3" font-family="Times,serif" font-size="14.00">duration_seconds:INTEGER</text>
<polyline fill="none" stroke="black" points="698,-640.5 915,-640.5 "/>
<text text-anchor="middle" x="806.5" y="-625.3" font-family="Times,serif" font-size="14.00">sample_count:INTEGER</text>
<polyline fill="none" stroke="black" points="698,-617.5 915,-617.5 "/>
<text text-anchor="middle" x="806.5" y="-602.3" font-family="Times,serif" font-size="14.00">... +9</text>
</g>
<!-- runs -->
<g id="node4" class="node">
<title>runs</title>
<polygon fill="none" stroke="black" points="395,-746.5 395,-976.5 582,-976.5 582,-746.5 395,-746.5"/>
<text text-anchor="middle" x="488.5" y="-961.3" font-family="Times,serif" font-size="14.00">runs</text>
<polyline fill="none" stroke="black" points="395,-953.5 582,-953.5 "/>
<text text-anchor="middle" x="488.5" y="-938.3" font-family="Times,serif" font-size="14.00">run_id:INTEGER</text>
<polyline fill="none" stroke="black" points="395,-930.5 582,-930.5 "/>
<text text-anchor="middle" x="488.5" y="-915.3" font-family="Times,serif" font-size="14.00">exp_id:INTEGER</text>
<polyline fill="none" stroke="black" points="395,-907.5 582,-907.5 "/>
<text text-anchor="middle" x="488.5" y="-892.3" font-family="Times,serif" font-size="14.00">hw_id:INTEGER</text>
<polyline fill="none" stroke="black" points="395,-884.5 582,-884.5 "/>
<text text-anchor="middle" x="488.5" y="-869.3" font-family="Times,serif" font-size="14.00">baseline_id:TEXT</text>
<polyline fill="none" stroke="black" points="395,-861.5 582,-861.5 "/>
<text text-anchor="middle" x="488.5" y="-846.3" font-family="Times,serif" font-size="14.00">run_number:INTEGER</text>
<polyline fill="none" stroke="black" points="395,-838.5 582,-838.5 "/>
<text text-anchor="middle" x="488.5" y="-823.3" font-family="Times,serif" font-size="14.00">workflow_type:TEXT</text>
<polyline fill="none" stroke="black" points="395,-815.5 582,-815.5 "/>
<text text-anchor="middle" x="488.5" y="-800.3" font-family="Times,serif" font-size="14.00">start_time_ns:INTEGER</text>
<polyline fill="none" stroke="black" points="395,-792.5 582,-792.5 "/>
<text text-anchor="middle" x="488.5" y="-777.3" font-family="Times,serif" font-size="14.00">end_time_ns:INTEGER</text>
<polyline fill="none" stroke="black" points="395,-769.5 582,-769.5 "/>
<text text-anchor="middle" x="488.5" y="-754.3" font-family="Times,serif" font-size="14.00">... +91</text>
</g>
<!-- runs&#45;&gt;experiments -->
<g id="edge5" class="edge">
<title>runs&#45;&gt;experiments</title>
<path fill="none" stroke="black" d="M582.18,-905.2C624.51,-925.16 674.43,-948.7 716.33,-968.45"/>
<polygon fill="black" stroke="black" points="714.88,-971.64 725.42,-972.74 717.86,-965.31 714.88,-971.64"/>
<text text-anchor="middle" x="640" y="-952.3" font-family="Times,serif" font-size="14.00">exp_id</text>
</g>
<!-- runs&#45;&gt;hardware_config -->
<g id="edge4" class="edge">
<title>runs&#45;&gt;hardware_config</title>
<path fill="none" stroke="black" d="M582.06,-861.5C695.15,-861.5 886.03,-861.5 1004.65,-861.5"/>
<polygon fill="black" stroke="black" points="1004.83,-865 1014.83,-861.5 1004.83,-858 1004.83,-865"/>
<text text-anchor="middle" x="806.5" y="-865.3" font-family="Times,serif" font-size="14.00">hw_id</text>
</g>
<!-- runs&#45;&gt;idle_baselines -->
<g id="edge3" class="edge">
<title>runs&#45;&gt;idle_baselines</title>
<path fill="none" stroke="black" d="M582.18,-816.92C615.44,-800.92 653.4,-782.66 688.47,-765.79"/>
<polygon fill="black" stroke="black" points="690.3,-768.8 697.79,-761.31 687.26,-762.49 690.3,-768.8"/>
<text text-anchor="middle" x="640" y="-812.3" font-family="Times,serif" font-size="14.00">baseline_id</text>
</g>
<!-- orchestration_events -->
<g id="node5" class="node">
<title>orchestration_events</title>
<polygon fill="none" stroke="black" points="33.5,-1334.5 33.5,-1564.5 220.5,-1564.5 220.5,-1334.5 33.5,-1334.5"/>
<text text-anchor="middle" x="127" y="-1549.3" font-family="Times,serif" font-size="14.00">orchestration_events</text>
<polyline fill="none" stroke="black" points="33.5,-1541.5 220.5,-1541.5 "/>
<text text-anchor="middle" x="127" y="-1526.3" font-family="Times,serif" font-size="14.00">event_id:INTEGER</text>
<polyline fill="none" stroke="black" points="33.5,-1518.5 220.5,-1518.5 "/>
<text text-anchor="middle" x="127" y="-1503.3" font-family="Times,serif" font-size="14.00">run_id:INTEGER</text>
<polyline fill="none" stroke="black" points="33.5,-1495.5 220.5,-1495.5 "/>
<text text-anchor="middle" x="127" y="-1480.3" font-family="Times,serif" font-size="14.00">step_index:INTEGER</text>
<polyline fill="none" stroke="black" points="33.5,-1472.5 220.5,-1472.5 "/>
<text text-anchor="middle" x="127" y="-1457.3" font-family="Times,serif" font-size="14.00">phase:TEXT</text>
<polyline fill="none" stroke="black" points="33.5,-1449.5 220.5,-1449.5 "/>
<text text-anchor="middle" x="127" y="-1434.3" font-family="Times,serif" font-size="14.00">event_type:TEXT</text>
<polyline fill="none" stroke="black" points="33.5,-1426.5 220.5,-1426.5 "/>
<text text-anchor="middle" x="127" y="-1411.3" font-family="Times,serif" font-size="14.00">start_time_ns:INTEGER</text>
<polyline fill="none" stroke="black" points="33.5,-1403.5 220.5,-1403.5 "/>
<text text-anchor="middle" x="127" y="-1388.3" font-family="Times,serif" font-size="14.00">end_time_ns:INTEGER</text>
<polyline fill="none" stroke="black" points="33.5,-1380.5 220.5,-1380.5 "/>
<text text-anchor="middle" x="127" y="-1365.3" font-family="Times,serif" font-size="14.00">duration_ns:INTEGER</text>
<polyline fill="none" stroke="black" points="33.5,-1357.5 220.5,-1357.5 "/>
<text text-anchor="middle" x="127" y="-1342.3" font-family="Times,serif" font-size="14.00">... +6</text>
</g>
<!-- orchestration_events&#45;&gt;runs -->
<g id="edge6" class="edge">
<title>orchestration_events&#45;&gt;runs</title>
<path fill="none" stroke="black" d="M220.6,-1361.75C232.14,-1349.84 243.55,-1337.56 254,-1325.5 314.37,-1255.84 333.17,-1239.59 377,-1158.5 406.3,-1104.28 431.12,-1040.64 449.77,-986.21"/>
<polygon fill="black" stroke="black" points="453.16,-987.1 453.06,-976.51 446.53,-984.85 453.16,-987.1"/>
<text text-anchor="middle" x="324.5" y="-1306.3" font-family="Times,serif" font-size="14.00">run_id</text>
</g>
<!-- orchestration_tax_summary -->
<g id="node6" class="node">
<title>orchestration_tax_summary</title>
<polygon fill="none" stroke="black" points="0,-1085.5 0,-1315.5 254,-1315.5 254,-1085.5 0,-1085.5"/>
<text text-anchor="middle" x="127" y="-1300.3" font-family="Times,serif" font-size="14.00">orchestration_tax_summary</text>
<polyline fill="none" stroke="black" points="0,-1292.5 254,-1292.5 "/>
<text text-anchor="middle" x="127" y="-1277.3" font-family="Times,serif" font-size="14.00">comparison_id:INTEGER</text>
<polyline fill="none" stroke="black" points="0,-1269.5 254,-1269.5 "/>
<text text-anchor="middle" x="127" y="-1254.3" font-family="Times,serif" font-size="14.00">linear_run_id:INTEGER</text>
<polyline fill="none" stroke="black" points="0,-1246.5 254,-1246.5 "/>
<text text-anchor="middle" x="127" y="-1231.3" font-family="Times,serif" font-size="14.00">agentic_run_id:INTEGER</text>
<polyline fill="none" stroke="black" points="0,-1223.5 254,-1223.5 "/>
<text text-anchor="middle" x="127" y="-1208.3" font-family="Times,serif" font-size="14.00">linear_dynamic_uj:INTEGER</text>
<polyline fill="none" stroke="black" points="0,-1200.5 254,-1200.5 "/>
<text text-anchor="middle" x="127" y="-1185.3" font-family="Times,serif" font-size="14.00">agentic_dynamic_uj:INTEGER</text>
<polyline fill="none" stroke="black" points="0,-1177.5 254,-1177.5 "/>
<text text-anchor="middle" x="127" y="-1162.3" font-family="Times,serif" font-size="14.00">orchestration_tax_uj:INTEGER</text>
<polyline fill="none" stroke="black" points="0,-1154.5 254,-1154.5 "/>
<text text-anchor="middle" x="127" y="-1139.3" font-family="Times,serif" font-size="14.00">tax_percent:REAL</text>
<polyline fill="none" stroke="black" points="0,-1131.5 254,-1131.5 "/>
<text text-anchor="middle" x="127" y="-1116.3" font-family="Times,serif" font-size="14.00">linear_orchestration_uj:INTEGER</text>
<polyline fill="none" stroke="black" points="0,-1108.5 254,-1108.5 "/>
<text text-anchor="middle" x="127" y="-1093.3" font-family="Times,serif" font-size="14.00">... +1</text>
</g>
<!-- orchestration_tax_summary&#45;&gt;runs -->
<g id="edge7" class="edge">
<title>orchestration_tax_summary&#45;&gt;runs</title>
<path fill="none" stroke="black" d="M254.14,-1152.25C296.83,-1131.5 342.39,-1103.97 377,-1069.5 401,-1045.6 421.03,-1015.39 437.16,-985.46"/>
<polygon fill="black" stroke="black" points="440.25,-987.09 441.82,-976.61 434.06,-983.83 440.25,-987.09"/>
<text text-anchor="middle" x="324.5" y="-1143.3" font-family="Times,serif" font-size="14.00">agentic_run_id</text>
</g>
<!-- orchestration_tax_summary&#45;&gt;runs -->
<g id="edge8" class="edge">
<title>orchestration_tax_summary&#45;&gt;runs</title>
<path fill="none" stroke="black" d="M246.42,-1085.33C249,-1082.38 251.53,-1079.44 254,-1076.5 263.05,-1065.75 262.65,-1060.99 272,-1050.5 306.63,-1011.66 348.92,-973.02 386.84,-940.89"/>
<polygon fill="black" stroke="black" points="389.47,-943.26 394.86,-934.14 384.96,-937.9 389.47,-943.26"/>
<text text-anchor="middle" x="324.5" y="-1054.3" font-family="Times,serif" font-size="14.00">linear_run_id</text>
</g>
<!-- energy_samples -->
<g id="node7" class="node">
<title>energy_samples</title>
<polygon fill="none" stroke="black" points="19.5,-882.5 19.5,-1066.5 234.5,-1066.5 234.5,-882.5 19.5,-882.5"/>
<text text-anchor="middle" x="127" y="-1051.3" font-family="Times,serif" font-size="14.00">energy_samples</text>
<polyline fill="none" stroke="black" points="19.5,-1043.5 234.5,-1043.5 "/>
<text text-anchor="middle" x="127" y="-1028.3" font-family="Times,serif" font-size="14.00">sample_id:INTEGER</text>
<polyline fill="none" stroke="black" points="19.5,-1020.5 234.5,-1020.5 "/>
<text text-anchor="middle" x="127" y="-1005.3" font-family="Times,serif" font-size="14.00">run_id:INTEGER</text>
<polyline fill="none" stroke="black" points="19.5,-997.5 234.5,-997.5 "/>
<text text-anchor="middle" x="127" y="-982.3" font-family="Times,serif" font-size="14.00">timestamp_ns:INTEGER</text>
<polyline fill="none" stroke="black" points="19.5,-974.5 234.5,-974.5 "/>
<text text-anchor="middle" x="127" y="-959.3" font-family="Times,serif" font-size="14.00">pkg_energy_uj:INTEGER</text>
<polyline fill="none" stroke="black" points="19.5,-951.5 234.5,-951.5 "/>
<text text-anchor="middle" x="127" y="-936.3" font-family="Times,serif" font-size="14.00">core_energy_uj:INTEGER</text>
<polyline fill="none" stroke="black" points="19.5,-928.5 234.5,-928.5 "/>
<text text-anchor="middle" x="127" y="-913.3" font-family="Times,serif" font-size="14.00">uncore_energy_uj:INTEGER</text>
<polyline fill="none" stroke="black" points="19.5,-905.5 234.5,-905.5 "/>
<text text-anchor="middle" x="127" y="-890.3" font-family="Times,serif" font-size="14.00">dram_energy_uj:INTEGER</text>
</g>
<!-- energy_samples&#45;&gt;runs -->
<g id="edge9" class="edge">
<title>energy_samples&#45;&gt;runs</title>
<path fill="none" stroke="black" d="M234.89,-940.9C282.43,-925.96 338.15,-908.45 385.14,-893.67"/>
<polygon fill="black" stroke="black" points="386.24,-897 394.73,-890.66 384.14,-890.32 386.24,-897"/>
<text text-anchor="middle" x="324.5" y="-931.3" font-family="Times,serif" font-size="14.00">run_id</text>
</g>
<!-- cpu_samples -->
<g id="node8" class="node">
<title>cpu_samples</title>
<polygon fill="none" stroke="black" points="32,-633.5 32,-863.5 222,-863.5 222,-633.5 32,-633.5"/>
<text text-anchor="middle" x="127" y="-848.3" font-family="Times,serif" font-size="14.00">cpu_samples</text>
<polyline fill="none" stroke="black" points="32,-840.5 222,-840.5 "/>
<text text-anchor="middle" x="127" y="-825.3" font-family="Times,serif" font-size="14.00">sample_id:INTEGER</text>
<polyline fill="none" stroke="black" points="32,-817.5 222,-817.5 "/>
<text text-anchor="middle" x="127" y="-802.3" font-family="Times,serif" font-size="14.00">run_id:INTEGER</text>
<polyline fill="none" stroke="black" points="32,-794.5 222,-794.5 "/>
<text text-anchor="middle" x="127" y="-779.3" font-family="Times,serif" font-size="14.00">timestamp_ns:INTEGER</text>
<polyline fill="none" stroke="black" points="32,-771.5 222,-771.5 "/>
<text text-anchor="middle" x="127" y="-756.3" font-family="Times,serif" font-size="14.00">cpu_util_percent:REAL</text>
<polyline fill="none" stroke="black" points="32,-748.5 222,-748.5 "/>
<text text-anchor="middle" x="127" y="-733.3" font-family="Times,serif" font-size="14.00">cpu_busy_mhz:REAL</text>
<polyline fill="none" stroke="black" points="32,-725.5 222,-725.5 "/>
<text text-anchor="middle" x="127" y="-710.3" font-family="Times,serif" font-size="14.00">cpu_avg_mhz:REAL</text>
<polyline fill="none" stroke="black" points="32,-702.5 222,-702.5 "/>
<text text-anchor="middle" x="127" y="-687.3" font-family="Times,serif" font-size="14.00">c1_residency:REAL</text>
<polyline fill="none" stroke="black" points="32,-679.5 222,-679.5 "/>
<text text-anchor="middle" x="127" y="-664.3" font-family="Times,serif" font-size="14.00">c2_residency:REAL</text>
<polyline fill="none" stroke="black" points="32,-656.5 222,-656.5 "/>
<text text-anchor="middle" x="127" y="-641.3" font-family="Times,serif" font-size="14.00">... +12</text>
</g>
<!-- cpu_samples&#45;&gt;runs -->
<g id="edge10" class="edge">
<title>cpu_samples&#45;&gt;runs</title>
<path fill="none" stroke="black" d="M222.45,-778.19C272.49,-793.92 334,-813.25 385.16,-829.33"/>
<polygon fill="black" stroke="black" points="384.33,-832.74 394.92,-832.4 386.43,-826.06 384.33,-832.74"/>
<text text-anchor="middle" x="324.5" y="-829.3" font-family="Times,serif" font-size="14.00">run_id</text>
</g>
<!-- interrupt_samples -->
<g id="node9" class="node">
<title>interrupt_samples</title>
<polygon fill="none" stroke="black" points="30,-499 30,-614 224,-614 224,-499 30,-499"/>
<text text-anchor="middle" x="127" y="-598.8" font-family="Times,serif" font-size="14.00">interrupt_samples</text>
<polyline fill="none" stroke="black" points="30,-591 224,-591 "/>
<text text-anchor="middle" x="127" y="-575.8" font-family="Times,serif" font-size="14.00">sample_id:INTEGER</text>
<polyline fill="none" stroke="black" points="30,-568 224,-568 "/>
<text text-anchor="middle" x="127" y="-552.8" font-family="Times,serif" font-size="14.00">run_id:INTEGER</text>
<polyline fill="none" stroke="black" points="30,-545 224,-545 "/>
<text text-anchor="middle" x="127" y="-529.8" font-family="Times,serif" font-size="14.00">timestamp_ns:INTEGER</text>
<polyline fill="none" stroke="black" points="30,-522 224,-522 "/>
<text text-anchor="middle" x="127" y="-506.8" font-family="Times,serif" font-size="14.00">interrupts_per_sec:REAL</text>
</g>
<!-- interrupt_samples&#45;&gt;runs -->
<g id="edge11" class="edge">
<title>interrupt_samples&#45;&gt;runs</title>
<path fill="none" stroke="black" d="M224.17,-603.62C234.52,-609.86 244.67,-616.53 254,-623.5 301.68,-659.13 348.72,-704.54 387.96,-746.12"/>
<polygon fill="black" stroke="black" points="385.54,-748.66 394.94,-753.56 390.65,-743.87 385.54,-748.66"/>
<text text-anchor="middle" x="324.5" y="-737.3" font-family="Times,serif" font-size="14.00">run_id</text>
</g>
<!-- task_categories -->
<g id="node10" class="node">
<title>task_categories</title>
<polygon fill="none" stroke="black" points="63,-1584 63,-1653 191,-1653 191,-1584 63,-1584"/>
<text text-anchor="middle" x="127" y="-1637.8" font-family="Times,serif" font-size="14.00">task_categories</text>
<polyline fill="none" stroke="black" points="63,-1630 191,-1630 "/>
<text text-anchor="middle" x="127" y="-1614.8" font-family="Times,serif" font-size="14.00">task_id:TEXT</text>
<polyline fill="none" stroke="black" points="63,-1607 191,-1607 "/>
<text text-anchor="middle" x="127" y="-1591.8" font-family="Times,serif" font-size="14.00">category:TEXT</text>
</g>
<!-- thermal_samples -->
<g id="node11" class="node">
<title>thermal_samples</title>
<polygon fill="none" stroke="black" points="31.5,-249.5 31.5,-479.5 222.5,-479.5 222.5,-249.5 31.5,-249.5"/>
<text text-anchor="middle" x="127" y="-464.3" font-family="Times,serif" font-size="14.00">thermal_samples</text>
<polyline fill="none" stroke="black" points="31.5,-456.5 222.5,-456.5 "/>
<text text-anchor="middle" x="127" y="-441.3" font-family="Times,serif" font-size="14.00">sample_id:INTEGER</text>
<polyline fill="none" stroke="black" points="31.5,-433.5 222.5,-433.5 "/>
<text text-anchor="middle" x="127" y="-418.3" font-family="Times,serif" font-size="14.00">run_id:INTEGER</text>
<polyline fill="none" stroke="black" points="31.5,-410.5 222.5,-410.5 "/>
<text text-anchor="middle" x="127" y="-395.3" font-family="Times,serif" font-size="14.00">timestamp_ns:INTEGER</text>
<polyline fill="none" stroke="black" points="31.5,-387.5 222.5,-387.5 "/>
<text text-anchor="middle" x="127" y="-372.3" font-family="Times,serif" font-size="14.00">sample_time_s:REAL</text>
<polyline fill="none" stroke="black" points="31.5,-364.5 222.5,-364.5 "/>
<text text-anchor="middle" x="127" y="-349.3" font-family="Times,serif" font-size="14.00">cpu_temp:REAL</text>
<polyline fill="none" stroke="black" points="31.5,-341.5 222.5,-341.5 "/>
<text text-anchor="middle" x="127" y="-326.3" font-family="Times,serif" font-size="14.00">system_temp:REAL</text>
<polyline fill="none" stroke="black" points="31.5,-318.5 222.5,-318.5 "/>
<text text-anchor="middle" x="127" y="-303.3" font-family="Times,serif" font-size="14.00">wifi_temp:REAL</text>
<polyline fill="none" stroke="black" points="31.5,-295.5 222.5,-295.5 "/>
<text text-anchor="middle" x="127" y="-280.3" font-family="Times,serif" font-size="14.00">throttle_event:INTEGER</text>
<polyline fill="none" stroke="black" points="31.5,-272.5 222.5,-272.5 "/>
<text text-anchor="middle" x="127" y="-257.3" font-family="Times,serif" font-size="14.00">... +2</text>
</g>
<!-- thermal_samples&#45;&gt;runs -->
<g id="edge12" class="edge">
<title>thermal_samples&#45;&gt;runs</title>
<path fill="none" stroke="black" d="M222.66,-457.61C233.3,-468.31 243.92,-479.1 254,-489.5 309.81,-547.08 332.33,-554.9 377,-621.5 400.89,-657.12 422.07,-698.74 439.33,-737.22"/>
<polygon fill="black" stroke="black" points="436.16,-738.69 443.41,-746.41 442.55,-735.85 436.16,-738.69"/>
<text text-anchor="middle" x="324.5" y="-625.3" font-family="Times,serif" font-size="14.00">run_id</text>
</g>
<!-- schema_version -->
<g id="node12" class="node">
<title>schema_version</title>
<polygon fill="none" stroke="black" points="34.5,-1672.5 34.5,-1764.5 219.5,-1764.5 219.5,-1672.5 34.5,-1672.5"/>
<text text-anchor="middle" x="127" y="-1749.3" font-family="Times,serif" font-size="14.00">schema_version</text>
<polyline fill="none" stroke="black" points="34.5,-1741.5 219.5,-1741.5 "/>
<text text-anchor="middle" x="127" y="-1726.3" font-family="Times,serif" font-size="14.00">version:INTEGER</text>
<polyline fill="none" stroke="black" points="34.5,-1718.5 219.5,-1718.5 "/>
<text text-anchor="middle" x="127" y="-1703.3" font-family="Times,serif" font-size="14.00">applied_at:TIMESTAMP</text>
<polyline fill="none" stroke="black" points="34.5,-1695.5 219.5,-1695.5 "/>
<text text-anchor="middle" x="127" y="-1680.3" font-family="Times,serif" font-size="14.00">description:TEXT</text>
</g>
<!-- llm_interactions -->
<g id="node14" class="node">
<title>llm_interactions</title>
<polygon fill="none" stroke="black" points="33,-0.5 33,-230.5 221,-230.5 221,-0.5 33,-0.5"/>
<text text-anchor="middle" x="127" y="-215.3" font-family="Times,serif" font-size="14.00">llm_interactions</text>
<polyline fill="none" stroke="black" points="33,-207.5 221,-207.5 "/>
<text text-anchor="middle" x="127" y="-192.3" font-family="Times,serif" font-size="14.00">interaction_id:INTEGER</text>
<polyline fill="none" stroke="black" points="33,-184.5 221,-184.5 "/>
<text text-anchor="middle" x="127" y="-169.3" font-family="Times,serif" font-size="14.00">run_id:INTEGER</text>
<polyline fill="none" stroke="black" points="33,-161.5 221,-161.5 "/>
<text text-anchor="middle" x="127" y="-146.3" font-family="Times,serif" font-size="14.00">step_index:INTEGER</text>
<polyline fill="none" stroke="black" points="33,-138.5 221,-138.5 "/>
<text text-anchor="middle" x="127" y="-123.3" font-family="Times,serif" font-size="14.00">workflow_type:TEXT</text>
<polyline fill="none" stroke="black" points="33,-115.5 221,-115.5 "/>
<text text-anchor="middle" x="127" y="-100.3" font-family="Times,serif" font-size="14.00">prompt:TEXT</text>
<polyline fill="none" stroke="black" points="33,-92.5 221,-92.5 "/>
<text text-anchor="middle" x="127" y="-77.3" font-family="Times,serif" font-size="14.00">response:TEXT</text>
<polyline fill="none" stroke="black" points="33,-69.5 221,-69.5 "/>
<text text-anchor="middle" x="127" y="-54.3" font-family="Times,serif" font-size="14.00">model_name:TEXT</text>
<polyline fill="none" stroke="black" points="33,-46.5 221,-46.5 "/>
<text text-anchor="middle" x="127" y="-31.3" font-family="Times,serif" font-size="14.00">provider:TEXT</text>
<polyline fill="none" stroke="black" points="33,-23.5 221,-23.5 "/>
<text text-anchor="middle" x="127" y="-8.3" font-family="Times,serif" font-size="14.00">... +7</text>
</g>
<!-- llm_interactions&#45;&gt;runs -->
<g id="edge13" class="edge">
<title>llm_interactions&#45;&gt;runs</title>
<path fill="none" stroke="black" d="M221.1,-199.83C232.88,-212.53 244.21,-225.94 254,-239.5 364.41,-392.43 429.05,-603.8 461.33,-736.53"/>
<polygon fill="black" stroke="black" points="457.95,-737.44 463.69,-746.35 464.76,-735.81 457.95,-737.44"/>
<text text-anchor="middle" x="324.5" y="-467.3" font-family="Times,serif" font-size="14.00">run_id</text>
</g>
</g>
</svg>
