<?xml version="1.0" encoding="UTF-8" standalone="no"?>
<!DOCTYPE svg PUBLIC "-//W3C//DTD SVG 1.1//EN"
 "http://www.w3.org/Graphics/SVG/1.1/DTD/svg11.dtd">
<!-- Generated by graphviz version 2.42.4 (0)
 -->
<!-- Pages: 1 -->
<svg width="416pt" height="742pt"
 viewBox="0.00 0.00 415.50 742.00" xmlns="http://www.w3.org/2000/svg" xmlns:xlink="http://www.w3.org/1999/xlink">
<g id="graph0" class="graph" transform="scale(1 1) rotate(0) translate(4 738)">
<polygon fill="white" stroke="transparent" points="-4,4 -4,-738 411.5,-738 411.5,4 -4,4"/>
<!-- sn.landing -->
<g id="node1" class="node">
<title>sn.landing</title>
<polygon fill="none" stroke="#1a237e" points="275,-734 128,-734 128,-696 275,-696 275,-734"/>
<text text-anchor="middle" x="201.5" y="-718.8" font-family="Times,serif" font-size="14.00">Universe Landing</text>
<text text-anchor="middle" x="201.5" y="-703.8" font-family="Times,serif" font-size="14.00">(3D Solar System)</text>
</g>
<!-- sn.click -->
<g id="node2" class="node">
<title>sn.click</title>
<polygon fill="none" stroke="#fff9c4" points="201.5,-637 72.5,-599 201.5,-561 330.5,-599 201.5,-637"/>
<text text-anchor="middle" x="201.5" y="-602.8" font-family="Times,serif" font-size="14.00">Click Planet</text>
<text text-anchor="middle" x="201.5" y="-587.8" font-family="Times,serif" font-size="14.00">or Bottom Strip</text>
</g>
<!-- sn.landing&#45;&gt;sn.click -->
<g id="edge1" class="edge">
<title>sn.landing&#45;&gt;sn.click</title>
<path fill="none" stroke="black" d="M201.5,-695.94C201.5,-682.94 201.5,-664.77 201.5,-647.73"/>
<polygon fill="black" stroke="black" points="205,-647.32 201.5,-637.32 198,-647.32 205,-647.32"/>
<text text-anchor="middle" x="239.5" y="-662.8" font-family="Times,serif" font-size="14.00">scroll/click</text>
</g>
<!-- sn.focus -->
<g id="node3" class="node">
<title>sn.focus</title>
<polygon fill="none" stroke="#e3f2fd" points="181,-483 0,-483 0,-445 181,-445 181,-483"/>
<text text-anchor="middle" x="90.5" y="-467.8" font-family="Times,serif" font-size="14.00">setFocusIdx(i)</text>
<text text-anchor="middle" x="90.5" y="-452.8" font-family="Times,serif" font-size="14.00">Camera lerps to planet</text>
</g>
<!-- sn.click&#45;&gt;sn.focus -->
<g id="edge4" class="edge">
<title>sn.click&#45;&gt;sn.focus</title>
<path fill="none" stroke="black" d="M176.59,-568.15C157.23,-544.96 130.66,-513.12 112.18,-490.97"/>
<polygon fill="black" stroke="black" points="114.86,-488.72 105.76,-483.29 109.48,-493.21 114.86,-488.72"/>
<text text-anchor="middle" x="171" y="-527.8" font-family="Times,serif" font-size="14.00">idx&gt;0</text>
</g>
<!-- sn.sun -->
<g id="node8" class="node">
<title>sn.sun</title>
<polygon fill="none" stroke="#fff9c4" points="312.5,-502 217.5,-464 312.5,-426 407.5,-464 312.5,-502"/>
<text text-anchor="middle" x="312.5" y="-467.8" font-family="Times,serif" font-size="14.00">Click Sun</text>
<text text-anchor="middle" x="312.5" y="-452.8" font-family="Times,serif" font-size="14.00">(Overview)</text>
</g>
<!-- sn.click&#45;&gt;sn.sun -->
<g id="edge2" class="edge">
<title>sn.click&#45;&gt;sn.sun</title>
<path fill="none" stroke="black" d="M226.41,-568.15C243.07,-548.19 265.09,-521.81 282.68,-500.73"/>
<polygon fill="black" stroke="black" points="285.47,-502.85 289.19,-492.93 280.09,-498.37 285.47,-502.85"/>
<text text-anchor="middle" x="282" y="-527.8" font-family="Times,serif" font-size="14.00">idx=0</text>
</g>
<!-- sn.ticket -->
<g id="node4" class="node">
<title>sn.ticket</title>
<polygon fill="none" stroke="#1a237e" points="265,-367 136,-367 136,-329 265,-329 265,-367"/>
<text text-anchor="middle" x="200.5" y="-351.8" font-family="Times,serif" font-size="14.00">SpaceTicket</text>
<text text-anchor="middle" x="200.5" y="-336.8" font-family="Times,serif" font-size="14.00">(Boarding Pass)</text>
</g>
<!-- sn.focus&#45;&gt;sn.ticket -->
<g id="edge5" class="edge">
<title>sn.focus&#45;&gt;sn.ticket</title>
<path fill="none" stroke="black" d="M91.12,-444.85C92.58,-428.49 97.08,-404.67 110.5,-389 116.18,-382.37 123.17,-376.8 130.72,-372.12"/>
<polygon fill="black" stroke="black" points="132.79,-374.97 139.8,-367.03 129.37,-368.87 132.79,-374.97"/>
<text text-anchor="middle" x="184.5" y="-392.8" font-family="Times,serif" font-size="14.00">SpaceTicket appears</text>
</g>
<!-- sn.launch -->
<g id="node5" class="node">
<title>sn.launch</title>
<polygon fill="none" stroke="#fff9c4" points="200.5,-270 78.5,-232 200.5,-194 322.5,-232 200.5,-270"/>
<text text-anchor="middle" x="200.5" y="-235.8" font-family="Times,serif" font-size="14.00">Click LAUNCH</text>
<text text-anchor="middle" x="200.5" y="-220.8" font-family="Times,serif" font-size="14.00">or Enter key</text>
</g>
<!-- sn.ticket&#45;&gt;sn.launch -->
<g id="edge6" class="edge">
<title>sn.ticket&#45;&gt;sn.launch</title>
<path fill="none" stroke="black" d="M200.5,-328.94C200.5,-315.94 200.5,-297.77 200.5,-280.73"/>
<polygon fill="black" stroke="black" points="204,-280.32 200.5,-270.32 197,-280.32 204,-280.32"/>
<text text-anchor="middle" x="250.5" y="-295.8" font-family="Times,serif" font-size="14.00">5s countdown</text>
</g>
<!-- sn.wormhole -->
<g id="node6" class="node">
<title>sn.wormhole</title>
<polygon fill="none" stroke="#4a148c" points="269,-135 132,-135 132,-97 269,-97 269,-135"/>
<text text-anchor="middle" x="200.5" y="-119.8" font-family="Times,serif" font-size="14.00">WormholeTunnel</text>
<text text-anchor="middle" x="200.5" y="-104.8" font-family="Times,serif" font-size="14.00">(~2s animation)</text>
</g>
<!-- sn.launch&#45;&gt;sn.wormhole -->
<g id="edge7" class="edge">
<title>sn.launch&#45;&gt;sn.wormhole</title>
<path fill="none" stroke="black" d="M200.5,-193.99C200.5,-178.08 200.5,-159.8 200.5,-145.05"/>
<polygon fill="black" stroke="black" points="204,-145.01 200.5,-135.01 197,-145.01 204,-145.01"/>
<text text-anchor="middle" x="262" y="-160.8" font-family="Times,serif" font-size="14.00">setWarping(true)</text>
</g>
<!-- sn.page -->
<g id="node7" class="node">
<title>sn.page</title>
<polygon fill="none" stroke="#e8f5e9" points="255.5,-38 145.5,-38 145.5,0 255.5,0 255.5,-38"/>
<text text-anchor="middle" x="200.5" y="-22.8" font-family="Times,serif" font-size="14.00">Target Page</text>
<text text-anchor="middle" x="200.5" y="-7.8" font-family="Times,serif" font-size="14.00">(router.push)</text>
</g>
<!-- sn.wormhole&#45;&gt;sn.page -->
<g id="edge8" class="edge">
<title>sn.wormhole&#45;&gt;sn.page</title>
<path fill="none" stroke="black" d="M200.5,-96.68C200.5,-83.01 200.5,-64.08 200.5,-48.45"/>
<polygon fill="black" stroke="black" points="204,-48.26 200.5,-38.26 197,-48.26 204,-48.26"/>
<text text-anchor="middle" x="243.5" y="-63.8" font-family="Times,serif" font-size="14.00">onComplete</text>
</g>
<!-- sn.sun&#45;&gt;sn.ticket -->
<g id="edge3" class="edge">
<title>sn.sun&#45;&gt;sn.ticket</title>
<path fill="none" stroke="black" d="M296.23,-432.41C287.71,-418.17 276.37,-401.62 263.5,-389 257.45,-383.07 250.38,-377.55 243.21,-372.63"/>
<polygon fill="black" stroke="black" points="245.08,-369.67 234.79,-367.14 241.25,-375.54 245.08,-369.67"/>
<text text-anchor="middle" x="321.5" y="-392.8" font-family="Times,serif" font-size="14.00">shows ticket</text>
</g>
</g>
</svg>
