<?xml version="1.0" encoding="UTF-8" standalone="no"?>
<!DOCTYPE svg PUBLIC "-//W3C//DTD SVG 1.1//EN"
 "http://www.w3.org/Graphics/SVG/1.1/DTD/svg11.dtd">
<!-- Generated by graphviz version 2.42.4 (0)
 -->
<!-- Pages: 1 -->
<svg width="449pt" height="741pt"
 viewBox="0.00 0.00 449.00 740.50" xmlns="http://www.w3.org/2000/svg" xmlns:xlink="http://www.w3.org/1999/xlink">
<g id="graph0" class="graph" transform="scale(1 1) rotate(0) translate(4 736.5)">
<polygon fill="white" stroke="transparent" points="-4,4 -4,-736.5 445,-736.5 445,4 -4,4"/>
<!-- sync.directus -->
<g id="node1" class="node">
<title>sync.directus</title>
<polygon fill="none" stroke="#e8f5e9" points="121,-732.5 5,-732.5 5,-694.5 121,-694.5 121,-732.5"/>
<text text-anchor="middle" x="63" y="-717.3" font-family="Times,serif" font-size="14.00">Directus CMS</text>
<text text-anchor="middle" x="63" y="-702.3" font-family="Times,serif" font-size="14.00">(:8055)</text>
</g>
<!-- sync.pg -->
<g id="node2" class="node">
<title>sync.pg</title>
<path fill="none" stroke="lightcoral" d="M126,-47.6C126,-50.24 97.76,-52.38 63,-52.38 28.24,-52.38 0,-50.24 0,-47.6 0,-47.6 0,-4.65 0,-4.65 0,-2.01 28.24,0.13 63,0.13 97.76,0.13 126,-2.01 126,-4.65 126,-4.65 126,-47.6 126,-47.6"/>
<path fill="none" stroke="lightcoral" d="M126,-47.6C126,-44.97 97.76,-42.83 63,-42.83 28.24,-42.83 0,-44.97 0,-47.6"/>
<text text-anchor="middle" x="63" y="-29.93" font-family="Times,serif" font-size="14.00">PostgreSQL</text>
<text text-anchor="middle" x="63" y="-14.93" font-family="Times,serif" font-size="14.00">(alems_central)</text>
</g>
<!-- sync.directus&#45;&gt;sync.pg -->
<g id="edge1" class="edge">
<title>sync.directus&#45;&gt;sync.pg</title>
<path fill="none" stroke="blue" d="M46.75,-694.4C46.75,-694.4 46.75,-62.5 46.75,-62.5"/>
<polygon fill="blue" stroke="blue" points="50.25,-62.5 46.75,-52.5 43.25,-62.5 50.25,-62.5"/>
<text text-anchor="middle" x="101.5" y="-376.8" font-family="Times,serif" font-size="14.00">reads/writes config</text>
</g>
<!-- sync.webhook -->
<g id="node4" class="node">
<title>sync.webhook</title>
<polygon fill="none" stroke="#fff9c4" points="259.5,-621.5 88.5,-621.5 88.5,-583.5 259.5,-583.5 259.5,-621.5"/>
<text text-anchor="middle" x="174" y="-606.3" font-family="Times,serif" font-size="14.00">Webhook</text>
<text text-anchor="middle" x="174" y="-591.3" font-family="Times,serif" font-size="14.00">POST /internal/reload</text>
</g>
<!-- sync.directus&#45;&gt;sync.webhook -->
<g id="edge2" class="edge">
<title>sync.directus&#45;&gt;sync.webhook</title>
<path fill="none" stroke="black" stroke-dasharray="5,2" d="M104.75,-694.42C104.75,-694.42 104.75,-631.7 104.75,-631.7"/>
<polygon fill="black" stroke="black" points="108.25,-631.7 104.75,-621.7 101.25,-631.7 108.25,-631.7"/>
<text text-anchor="middle" x="193.5" y="-654.3" font-family="Times,serif" font-size="14.00">on config change</text>
</g>
<!-- sync.oracleapi -->
<g id="node3" class="node">
<title>sync.oracleapi</title>
<polygon fill="none" stroke="#fff9c4" points="384.5,-510.5 265.5,-510.5 265.5,-472.5 384.5,-472.5 384.5,-510.5"/>
<text text-anchor="middle" x="325" y="-495.3" font-family="Times,serif" font-size="14.00">FastAPI</text>
<text text-anchor="middle" x="325" y="-480.3" font-family="Times,serif" font-size="14.00">(:8765 Oracle)</text>
</g>
<!-- sync.metadown -->
<g id="node7" class="node">
<title>sync.metadown</title>
<polygon fill="none" stroke="#e3f2fd" points="385.5,-399.5 206.5,-399.5 206.5,-361.5 385.5,-361.5 385.5,-399.5"/>
<text text-anchor="middle" x="296" y="-384.3" font-family="Times,serif" font-size="14.00">sync_metadata_down()</text>
<text text-anchor="middle" x="296" y="-369.3" font-family="Times,serif" font-size="14.00">On startup</text>
</g>
<!-- sync.oracleapi&#45;&gt;sync.metadown -->
<g id="edge5" class="edge">
<title>sync.oracleapi&#45;&gt;sync.metadown</title>
<path fill="none" stroke="blue" d="M325,-472.42C325,-472.42 325,-409.7 325,-409.7"/>
<polygon fill="blue" stroke="blue" points="328.5,-409.7 325,-399.7 321.5,-409.7 328.5,-409.7"/>
<text text-anchor="middle" x="359" y="-432.3" font-family="Times,serif" font-size="14.00">metadata</text>
</g>
<!-- sync.localapi -->
<g id="node5" class="node">
<title>sync.localapi</title>
<polygon fill="none" stroke="#fff9c4" points="229,-510.5 119,-510.5 119,-472.5 229,-472.5 229,-510.5"/>
<text text-anchor="middle" x="174" y="-495.3" font-family="Times,serif" font-size="14.00">FastAPI</text>
<text text-anchor="middle" x="174" y="-480.3" font-family="Times,serif" font-size="14.00">(:8765 Local)</text>
</g>
<!-- sync.webhook&#45;&gt;sync.localapi -->
<g id="edge3" class="edge">
<title>sync.webhook&#45;&gt;sync.localapi</title>
<path fill="none" stroke="black" stroke-dasharray="5,2" d="M174,-583.42C174,-583.42 174,-520.7 174,-520.7"/>
<polygon fill="black" stroke="black" points="177.5,-520.7 174,-510.7 170.5,-520.7 177.5,-520.7"/>
<text text-anchor="middle" x="251.5" y="-543.3" font-family="Times,serif" font-size="14.00">POST /internal/reload</text>
</g>
<!-- sync.localapi&#45;&gt;sync.metadown -->
<g id="edge4" class="edge">
<title>sync.localapi&#45;&gt;sync.metadown</title>
<path fill="none" stroke="black" stroke-dasharray="5,2" d="M217.75,-472.42C217.75,-472.42 217.75,-409.7 217.75,-409.7"/>
<polygon fill="black" stroke="black" points="221.25,-409.7 217.75,-399.7 214.25,-409.7 221.25,-409.7"/>
<text text-anchor="middle" x="229" y="-432.3" font-family="Times,serif" font-size="14.00">triggers</text>
</g>
<!-- sync.sqlite -->
<g id="node6" class="node">
<title>sync.sqlite</title>
<path fill="none" stroke="lightcoral" d="M349.5,-283.85C349.5,-286.49 318.35,-288.63 280,-288.63 241.65,-288.63 210.5,-286.49 210.5,-283.85 210.5,-283.85 210.5,-240.9 210.5,-240.9 210.5,-238.26 241.65,-236.12 280,-236.12 318.35,-236.12 349.5,-238.26 349.5,-240.9 349.5,-240.9 349.5,-283.85 349.5,-283.85"/>
<path fill="none" stroke="lightcoral" d="M349.5,-283.85C349.5,-281.22 318.35,-279.08 280,-279.08 241.65,-279.08 210.5,-281.22 210.5,-283.85"/>
<text text-anchor="middle" x="280" y="-266.18" font-family="Times,serif" font-size="14.00">SQLite</text>
<text text-anchor="middle" x="280" y="-251.18" font-family="Times,serif" font-size="14.00">(experiments.db)</text>
</g>
<!-- sync.dataup -->
<g id="node8" class="node">
<title>sync.dataup</title>
<polygon fill="none" stroke="#e3f2fd" points="286.5,-163.25 119.5,-163.25 119.5,-125.25 286.5,-125.25 286.5,-163.25"/>
<text text-anchor="middle" x="203" y="-148.05" font-family="Times,serif" font-size="14.00">sync data up</text>
<text text-anchor="middle" x="203" y="-133.05" font-family="Times,serif" font-size="14.00">Runs, measurements</text>
</g>
<!-- sync.sqlite&#45;&gt;sync.dataup -->
<g id="edge7" class="edge">
<title>sync.sqlite&#45;&gt;sync.dataup</title>
<path fill="none" stroke="blue" d="M248.5,-236.16C248.5,-236.16 248.5,-173.42 248.5,-173.42"/>
<polygon fill="blue" stroke="blue" points="252,-173.42 248.5,-163.42 245,-173.42 252,-173.42"/>
<text text-anchor="middle" x="274" y="-196.05" font-family="Times,serif" font-size="14.00">completed runs</text>
</g>
<!-- sync.metadown&#45;&gt;sync.sqlite -->
<g id="edge6" class="edge">
<title>sync.metadown&#45;&gt;sync.sqlite</title>
<path fill="none" stroke="blue" d="M280,-361.26C280,-361.26 280,-298.67 280,-298.67"/>
<polygon fill="blue" stroke="blue" points="283.5,-298.67 280,-288.67 276.5,-298.67 283.5,-298.67"/>
<text text-anchor="middle" x="364.5" y="-321.3" font-family="Times,serif" font-size="14.00">updates config tables</text>
</g>
<!-- sync.dataup&#45;&gt;sync.pg -->
<g id="edge8" class="edge">
<title>sync.dataup&#45;&gt;sync.pg</title>
<path fill="none" stroke="blue" d="M119.26,-144C109.95,-144 103.75,-144 103.75,-144 103.75,-144 103.75,-61.99 103.75,-61.99"/>
<polygon fill="blue" stroke="blue" points="107.25,-61.99 103.75,-51.99 100.25,-61.99 107.25,-61.99"/>
<text text-anchor="middle" x="220.5" y="-85.05" font-family="Times,serif" font-size="14.00">push measurements</text>
</g>
</g>
</svg>
