<?xml version="1.0" encoding="UTF-8" standalone="no"?>
<!DOCTYPE svg PUBLIC "-//W3C//DTD SVG 1.1//EN"
 "http://www.w3.org/Graphics/SVG/1.1/DTD/svg11.dtd">
<!-- Generated by graphviz version 2.42.4 (0)
 -->
<!-- Pages: 1 -->
<svg width="1660pt" height="185pt"
 viewBox="0.00 0.00 1660.00 185.00" xmlns="http://www.w3.org/2000/svg" xmlns:xlink="http://www.w3.org/1999/xlink">
<g id="graph0" class="graph" transform="scale(1 1) rotate(0) translate(4 181)">
<polygon fill="white" stroke="transparent" points="-4,4 -4,-181 1656,-181 1656,4 -4,4"/>
<!-- ts.topbar -->
<g id="node1" class="node">
<title>ts.topbar</title>
<polygon fill="none" stroke="lightyellow" points="142,-137 4,-137 4,-99 142,-99 142,-137"/>
<text text-anchor="middle" x="73" y="-121.8" font-family="Times,serif" font-size="14.00">TopBar</text>
<text text-anchor="middle" x="73" y="-106.8" font-family="Times,serif" font-size="14.00">(theme switcher)</text>
</g>
<!-- ts.zustand -->
<g id="node2" class="node">
<title>ts.zustand</title>
<polygon fill="none" stroke="#c8e6c9" points="416,-96 288,-96 288,-58 416,-58 416,-96"/>
<text text-anchor="middle" x="352" y="-80.8" font-family="Times,serif" font-size="14.00">useThemeStore</text>
<text text-anchor="middle" x="352" y="-65.8" font-family="Times,serif" font-size="14.00">(Zustand)</text>
</g>
<!-- ts.topbar&#45;&gt;ts.zustand -->
<g id="edge1" class="edge">
<title>ts.topbar&#45;&gt;ts.zustand</title>
<path fill="none" stroke="black" d="M142.3,-102.12C171.93,-96.55 205.44,-92.48 277.77,-84.8"/>
<polygon fill="black" stroke="black" points="278.17,-88.27 287.75,-83.74 277.43,-81.31 278.17,-88.27"/>
<text text-anchor="middle" x="217" y="-121.8" font-family="Times,serif" font-size="14.00">setTheme(key)</text>
</g>
<!-- ts.t -->
<g id="node4" class="node">
<title>ts.t</title>
<polygon fill="none" stroke="#e8f5e9" points="567,-59 567,-95 857,-95 857,-59 567,-59"/>
<text text-anchor="middle" x="712" y="-73.3" font-family="Times,serif" font-size="14.00">Theme object (t)t.bg, t.text, t.accent...</text>
</g>
<!-- ts.zustand&#45;&gt;ts.t -->
<g id="edge3" class="edge">
<title>ts.zustand&#45;&gt;ts.t</title>
<path fill="none" stroke="blue" d="M416.23,-74.22C454.03,-72.93 486.6,-72.86 556.57,-74.01"/>
<polygon fill="blue" stroke="blue" points="556.64,-77.51 566.7,-74.18 556.76,-70.51 556.64,-77.51"/>
<text text-anchor="middle" x="491.5" y="-80.8" font-family="Times,serif" font-size="14.00">t = themes[key]</text>
</g>
<!-- ts.themes -->
<g id="node3" class="node">
<title>ts.themes</title>
<polygon fill="none" stroke="#fff9c4" points="0,-19 0,-55 146,-55 146,-19 0,-19"/>
<text text-anchor="middle" x="73" y="-33.3" font-family="Times,serif" font-size="14.00">theme.ts7 themes</text>
</g>
<!-- ts.themes&#45;&gt;ts.zustand -->
<g id="edge2" class="edge">
<title>ts.themes&#45;&gt;ts.zustand</title>
<path fill="none" stroke="blue" d="M146.25,-50.54C174.99,-55.18 208.62,-59.53 277.73,-67.98"/>
<polygon fill="blue" stroke="blue" points="277.37,-71.46 287.72,-69.19 278.22,-64.51 277.37,-71.46"/>
<text text-anchor="middle" x="217" y="-40.8" font-family="Times,serif" font-size="14.00">theme lookup</text>
</g>
<!-- ts.prov -->
<g id="node5" class="node">
<title>ts.prov</title>
<polygon fill="none" stroke="#e3f2fd" points="1293,-177 998,-177 998,-139 1293,-139 1293,-177"/>
<text text-anchor="middle" x="1145.5" y="-161.8" font-family="Times,serif" font-size="14.00">t.provenance</text>
<text text-anchor="middle" x="1145.5" y="-146.8" font-family="Times,serif" font-size="14.00">MEASURED/CALCULATED/INFERRED</text>
</g>
<!-- ts.t&#45;&gt;ts.prov -->
<g id="edge4" class="edge">
<title>ts.t&#45;&gt;ts.prov</title>
<path fill="none" stroke="blue" d="M807.9,-95.06C928.88,-117.85 984.48,-128.3 1032.01,-137.12"/>
<polygon fill="blue" stroke="blue" points="1031.58,-140.6 1042.05,-138.98 1032.85,-133.72 1031.58,-140.6"/>
<text text-anchor="middle" x="927.5" y="-152.8" font-family="Times,serif" font-size="14.00">t.provenance.*</text>
</g>
<!-- ts.glass -->
<g id="node6" class="node">
<title>ts.glass</title>
<polygon fill="none" stroke="#fff9c4" points="1229,-96 1062,-96 1062,-58 1229,-58 1229,-96"/>
<text text-anchor="middle" x="1145.5" y="-80.8" font-family="Times,serif" font-size="14.00">glassColor(t, alpha)</text>
<text text-anchor="middle" x="1145.5" y="-65.8" font-family="Times,serif" font-size="14.00">CSS var &#45;&#45;glass&#45;alpha</text>
</g>
<!-- ts.t&#45;&gt;ts.glass -->
<g id="edge5" class="edge">
<title>ts.t&#45;&gt;ts.glass</title>
<path fill="none" stroke="blue" d="M857.2,-68.92C959.41,-63.59 1005.22,-62.7 1051.96,-66.28"/>
<polygon fill="blue" stroke="blue" points="1051.71,-69.77 1061.97,-67.11 1052.29,-62.79 1051.71,-69.77"/>
<text text-anchor="middle" x="927.5" y="-80.8" font-family="Times,serif" font-size="14.00">t.bg.*</text>
</g>
<!-- ts.comp -->
<g id="node7" class="node">
<title>ts.comp</title>
<polygon fill="none" stroke="#e8f5e9" points="1602.5,-58 1465.5,-58 1465.5,-20 1602.5,-20 1602.5,-58"/>
<text text-anchor="middle" x="1534" y="-42.8" font-family="Times,serif" font-size="14.00">All Components</text>
<text text-anchor="middle" x="1534" y="-27.8" font-family="Times,serif" font-size="14.00">receive t as prop</text>
</g>
<!-- ts.t&#45;&gt;ts.comp -->
<g id="edge6" class="edge">
<title>ts.t&#45;&gt;ts.comp</title>
<path fill="none" stroke="blue" d="M857.27,-66.68C1232.2,-40.16 1296.71,-36.89 1455.26,-38.18"/>
<polygon fill="blue" stroke="blue" points="1455.31,-41.68 1465.34,-38.27 1455.37,-34.68 1455.31,-41.68"/>
<text text-anchor="middle" x="1145.5" y="-3.8" font-family="Times,serif" font-size="14.00">prop drilling</text>
</g>
<!-- ts.card3d -->
<g id="node8" class="node">
<title>ts.card3d</title>
<polygon fill="none" stroke="#e8f5e9" points="1652,-177 1416,-177 1416,-139 1652,-139 1652,-177"/>
<text text-anchor="middle" x="1534" y="-161.8" font-family="Times,serif" font-size="14.00">Card3D</text>
<text text-anchor="middle" x="1534" y="-146.8" font-family="Times,serif" font-size="14.00">borderLeft = provenance color</text>
</g>
<!-- ts.prov&#45;&gt;ts.card3d -->
<g id="edge7" class="edge">
<title>ts.prov&#45;&gt;ts.card3d</title>
<path fill="none" stroke="blue" d="M1293.2,-162.77C1343.77,-164.26 1377.76,-164.92 1405.76,-164.77"/>
<polygon fill="blue" stroke="blue" points="1405.86,-168.26 1415.83,-164.67 1405.79,-161.27 1405.86,-168.26"/>
<text text-anchor="middle" x="1354.5" y="-161.8" font-family="Times,serif" font-size="14.00">accent color</text>
</g>
<!-- ts.glass&#45;&gt;ts.comp -->
<g id="edge8" class="edge">
<title>ts.glass&#45;&gt;ts.comp</title>
<path fill="none" stroke="blue" d="M1229,-69.32C1359.2,-57.33 1405.78,-52.93 1455.31,-47.66"/>
<polygon fill="blue" stroke="blue" points="1455.71,-51.13 1465.28,-46.59 1454.96,-44.17 1455.71,-51.13"/>
<text text-anchor="middle" x="1354.5" y="-77.8" font-family="Times,serif" font-size="14.00">background</text>
</g>
</g>
</svg>
