<?xml version="1.0" encoding="UTF-8" standalone="no"?>
<!DOCTYPE svg PUBLIC "-//W3C//DTD SVG 1.1//EN"
 "http://www.w3.org/Graphics/SVG/1.1/DTD/svg11.dtd">
<!-- Generated by graphviz version 2.42.4 (0)
 -->
<!-- Pages: 1 -->
<svg width="523pt" height="519pt"
 viewBox="0.00 0.00 523.00 519.25" xmlns="http://www.w3.org/2000/svg" xmlns:xlink="http://www.w3.org/1999/xlink">
<g id="graph0" class="graph" transform="scale(1 1) rotate(0) translate(4 515.25)">
<polygon fill="white" stroke="transparent" points="-4,4 -4,-515.25 519,-515.25 519,4 -4,4"/>
<!-- p1.comp -->
<g id="node1" class="node">
<title>p1.comp</title>
<polygon fill="none" stroke="#c8e6c9" points="229,-511.25 41,-511.25 41,-473.25 229,-473.25 229,-511.25"/>
<text text-anchor="middle" x="135" y="-496.05" font-family="Times,serif" font-size="14.00">Dashboard Components</text>
<text text-anchor="middle" x="135" y="-481.05" font-family="Times,serif" font-size="14.00">(KPIStrip, Charts)</text>
</g>
<!-- p1.hook -->
<g id="node2" class="node">
<title>p1.hook</title>
<polygon fill="none" stroke="#c8e6c9" points="200.5,-400.25 69.5,-400.25 69.5,-362.25 200.5,-362.25 200.5,-400.25"/>
<text text-anchor="middle" x="135" y="-385.05" font-family="Times,serif" font-size="14.00">useOverview()</text>
<text text-anchor="middle" x="135" y="-370.05" font-family="Times,serif" font-size="14.00">useQuery hooks</text>
</g>
<!-- p1.comp&#45;&gt;p1.hook -->
<g id="edge1" class="edge">
<title>p1.comp&#45;&gt;p1.hook</title>
<path fill="none" stroke="black" stroke-dasharray="5,2" d="M135,-473.17C135,-473.17 135,-410.45 135,-410.45"/>
<polygon fill="black" stroke="black" points="138.5,-410.45 135,-400.45 131.5,-410.45 138.5,-410.45"/>
<text text-anchor="middle" x="159" y="-433.05" font-family="Times,serif" font-size="14.00">PATH1</text>
</g>
<!-- p1.fastapi -->
<g id="node3" class="node">
<title>p1.fastapi</title>
<polygon fill="none" stroke="#fff9c4" points="209.5,-289.25 62.5,-289.25 62.5,-251.25 209.5,-251.25 209.5,-289.25"/>
<text text-anchor="middle" x="136" y="-274.05" font-family="Times,serif" font-size="14.00">GET /analytics/*</text>
<text text-anchor="middle" x="136" y="-259.05" font-family="Times,serif" font-size="14.00">FastAPI endpoints</text>
</g>
<!-- p1.hook&#45;&gt;p1.fastapi -->
<g id="edge2" class="edge">
<title>p1.hook&#45;&gt;p1.fastapi</title>
<path fill="none" stroke="blue" d="M135,-362.17C135,-362.17 135,-299.45 135,-299.45"/>
<polygon fill="blue" stroke="blue" points="138.5,-299.45 135,-289.45 131.5,-299.45 138.5,-299.45"/>
<text text-anchor="middle" x="180.5" y="-322.05" font-family="Times,serif" font-size="14.00">GET request</text>
</g>
<!-- p1.sql -->
<g id="node4" class="node">
<title>p1.sql</title>
<polygon fill="none" stroke="lightyellow" points="0,-141.25 0,-177.25 278,-177.25 278,-141.25 0,-141.25"/>
<text text-anchor="middle" x="139" y="-155.55" font-family="Times,serif" font-size="14.00">Pre&#45;aggregated SQL(query_registry)</text>
</g>
<!-- p1.fastapi&#45;&gt;p1.sql -->
<g id="edge3" class="edge">
<title>p1.fastapi&#45;&gt;p1.sql</title>
<path fill="none" stroke="black" stroke-dasharray="5,2" d="M136,-251.17C136,-251.17 136,-187.35 136,-187.35"/>
<polygon fill="black" stroke="black" points="139.5,-187.35 136,-177.35 132.5,-187.35 139.5,-187.35"/>
<text text-anchor="middle" x="154.5" y="-211.05" font-family="Times,serif" font-size="14.00">runs</text>
</g>
<!-- shared.db -->
<g id="node9" class="node">
<title>shared.db</title>
<path fill="none" stroke="lightcoral" d="M317,-47.6C317,-50.24 288.31,-52.38 253,-52.38 217.69,-52.38 189,-50.24 189,-47.6 189,-47.6 189,-4.65 189,-4.65 189,-2.01 217.69,0.13 253,0.13 288.31,0.13 317,-2.01 317,-4.65 317,-4.65 317,-47.6 317,-47.6"/>
<path fill="none" stroke="lightcoral" d="M317,-47.6C317,-44.97 288.31,-42.83 253,-42.83 217.69,-42.83 189,-44.97 189,-47.6"/>
<text text-anchor="middle" x="253" y="-29.93" font-family="Times,serif" font-size="14.00">SQLite</text>
<text text-anchor="middle" x="253" y="-14.93" font-family="Times,serif" font-size="14.00">experiments.db</text>
</g>
<!-- p1.sql&#45;&gt;shared.db -->
<g id="edge4" class="edge">
<title>p1.sql&#45;&gt;shared.db</title>
<path fill="none" stroke="blue" d="M233.5,-141.02C233.5,-141.02 233.5,-62.38 233.5,-62.38"/>
<polygon fill="blue" stroke="blue" points="237,-62.38 233.5,-52.38 230,-62.38 237,-62.38"/>
<text text-anchor="middle" x="233" y="-92.55" font-family="Times,serif" font-size="14.00">query</text>
</g>
<!-- p2.comp -->
<g id="node5" class="node">
<title>p2.comp</title>
<polygon fill="none" stroke="#e3f2fd" points="472.5,-511.25 265.5,-511.25 265.5,-473.25 472.5,-473.25 472.5,-511.25"/>
<text text-anchor="middle" x="369" y="-496.05" font-family="Times,serif" font-size="14.00">Research Instruments</text>
<text text-anchor="middle" x="369" y="-481.05" font-family="Times,serif" font-size="14.00">(LensExplorer, AgentFlow)</text>
</g>
<!-- p2.hook -->
<g id="node6" class="node">
<title>p2.hook</title>
<polygon fill="none" stroke="#e3f2fd" points="460,-400.25 278,-400.25 278,-362.25 460,-362.25 460,-400.25"/>
<text text-anchor="middle" x="369" y="-385.05" font-family="Times,serif" font-size="14.00">useResearchQuery(sql)</text>
<text text-anchor="middle" x="369" y="-370.05" font-family="Times,serif" font-size="14.00">POST /api/db</text>
</g>
<!-- p2.comp&#45;&gt;p2.hook -->
<g id="edge5" class="edge">
<title>p2.comp&#45;&gt;p2.hook</title>
<path fill="none" stroke="black" stroke-dasharray="5,2" d="M369,-473.17C369,-473.17 369,-410.45 369,-410.45"/>
<polygon fill="black" stroke="black" points="372.5,-410.45 369,-400.45 365.5,-410.45 372.5,-410.45"/>
<text text-anchor="middle" x="393" y="-433.05" font-family="Times,serif" font-size="14.00">PATH2</text>
</g>
<!-- p2.route -->
<g id="node7" class="node">
<title>p2.route</title>
<polygon fill="none" stroke="#fff9c4" points="429.5,-289.25 308.5,-289.25 308.5,-251.25 429.5,-251.25 429.5,-289.25"/>
<text text-anchor="middle" x="369" y="-274.05" font-family="Times,serif" font-size="14.00">Next.js /api/db</text>
<text text-anchor="middle" x="369" y="-259.05" font-family="Times,serif" font-size="14.00">(route.ts)</text>
</g>
<!-- p2.hook&#45;&gt;p2.route -->
<g id="edge6" class="edge">
<title>p2.hook&#45;&gt;p2.route</title>
<path fill="none" stroke="blue" d="M369,-362.17C369,-362.17 369,-299.45 369,-299.45"/>
<polygon fill="blue" stroke="blue" points="372.5,-299.45 369,-289.45 365.5,-299.45 372.5,-299.45"/>
<text text-anchor="middle" x="442" y="-322.05" font-family="Times,serif" font-size="14.00">POST {sql, params}</text>
</g>
<!-- p2.fastapi -->
<g id="node8" class="node">
<title>p2.fastapi</title>
<polygon fill="none" stroke="#fff9c4" points="424,-178.25 314,-178.25 314,-140.25 424,-140.25 424,-178.25"/>
<text text-anchor="middle" x="369" y="-163.05" font-family="Times,serif" font-size="14.00">POST /api/db</text>
<text text-anchor="middle" x="369" y="-148.05" font-family="Times,serif" font-size="14.00">FastAPI</text>
</g>
<!-- p2.route&#45;&gt;p2.fastapi -->
<g id="edge7" class="edge">
<title>p2.route&#45;&gt;p2.fastapi</title>
<path fill="none" stroke="blue" d="M369,-251.17C369,-251.17 369,-188.45 369,-188.45"/>
<polygon fill="blue" stroke="blue" points="372.5,-188.45 369,-178.45 365.5,-188.45 372.5,-188.45"/>
<text text-anchor="middle" x="389.5" y="-211.05" font-family="Times,serif" font-size="14.00">proxy</text>
</g>
<!-- p2.fastapi&#45;&gt;shared.db -->
<g id="edge8" class="edge">
<title>p2.fastapi&#45;&gt;shared.db</title>
<path fill="none" stroke="blue" d="M313.95,-159C302.2,-159 293.25,-159 293.25,-159 293.25,-159 293.25,-62.06 293.25,-62.06"/>
<polygon fill="blue" stroke="blue" points="296.75,-62.06 293.25,-52.06 289.75,-62.06 296.75,-62.06"/>
<text text-anchor="middle" x="374" y="-100.05" font-family="Times,serif" font-size="14.00">raw query</text>
<text text-anchor="middle" x="374" y="-85.05" font-family="Times,serif" font-size="14.00">LIMIT 2000</text>
</g>
</g>
</svg>
