<?xml version="1.0" encoding="UTF-8" standalone="no"?>
<!DOCTYPE svg PUBLIC "-//W3C//DTD SVG 1.1//EN"
 "http://www.w3.org/Graphics/SVG/1.1/DTD/svg11.dtd">
<!-- Generated by graphviz version 2.42.4 (0)
 -->
<!-- Pages: 1 -->
<svg width="796pt" height="653pt"
 viewBox="0.00 0.00 795.50 652.50" xmlns="http://www.w3.org/2000/svg" xmlns:xlink="http://www.w3.org/1999/xlink">
<g id="graph0" class="graph" transform="scale(1 1) rotate(0) translate(4 648.5)">
<polygon fill="white" stroke="transparent" points="-4,4 -4,-648.5 791.5,-648.5 791.5,4 -4,4"/>
<!-- wb.universe -->
<g id="node1" class="node">
<title>wb.universe</title>
<polygon fill="none" stroke="#e8f5e9" points="279,-466.5 136,-466.5 136,-428.5 279,-428.5 279,-466.5"/>
<text text-anchor="middle" x="207.5" y="-451.3" font-family="Times,serif" font-size="14.00">Universe Landing</text>
<text text-anchor="middle" x="207.5" y="-436.3" font-family="Times,serif" font-size="14.00">(page.tsx)</text>
</g>
<!-- wb.fastapi -->
<g id="node10" class="node">
<title>wb.fastapi</title>
<polygon fill="none" stroke="#ffe0b2" points="325.5,-288.5 253.5,-288.5 253.5,-250.5 325.5,-250.5 325.5,-288.5"/>
<text text-anchor="middle" x="289.5" y="-273.3" font-family="Times,serif" font-size="14.00">FastAPI</text>
<text text-anchor="middle" x="289.5" y="-258.3" font-family="Times,serif" font-size="14.00">(:8765)</text>
</g>
<!-- wb.universe&#45;&gt;wb.fastapi -->
<g id="edge7" class="edge">
<title>wb.universe&#45;&gt;wb.fastapi</title>
<path fill="none" stroke="blue" d="M270.5,-428.45C270.5,-428.45 270.5,-298.68 270.5,-298.68"/>
<polygon fill="blue" stroke="blue" points="274,-298.68 270.5,-288.68 267,-298.68 274,-298.68"/>
<text text-anchor="middle" x="242.5" y="-376.8" font-family="Times,serif" font-size="14.00">GET /pages</text>
</g>
<!-- wb.dynamic -->
<g id="node2" class="node">
<title>wb.dynamic</title>
<polygon fill="none" stroke="#e8f5e9" points="448.5,-533.5 296.5,-533.5 296.5,-495.5 448.5,-495.5 448.5,-533.5"/>
<text text-anchor="middle" x="372.5" y="-518.3" font-family="Times,serif" font-size="14.00">Dynamic Pages</text>
<text text-anchor="middle" x="372.5" y="-503.3" font-family="Times,serif" font-size="14.00">([pageId]/page.tsx)</text>
</g>
<!-- wb.renderer -->
<g id="node5" class="node">
<title>wb.renderer</title>
<polygon fill="none" stroke="#fff9c4" points="437.5,-399.5 319.5,-399.5 319.5,-361.5 437.5,-361.5 437.5,-399.5"/>
<text text-anchor="middle" x="378.5" y="-384.3" font-family="Times,serif" font-size="14.00">PageRenderer</text>
<text text-anchor="middle" x="378.5" y="-369.3" font-family="Times,serif" font-size="14.00">(REGISTRY)</text>
</g>
<!-- wb.dynamic&#45;&gt;wb.renderer -->
<g id="edge3" class="edge">
<title>wb.dynamic&#45;&gt;wb.renderer</title>
<path fill="none" stroke="black" stroke-dasharray="5,2" d="M378.5,-495.3C378.5,-495.3 378.5,-409.66 378.5,-409.66"/>
<polygon fill="black" stroke="black" points="382,-409.66 378.5,-399.66 375,-409.66 382,-409.66"/>
<text text-anchor="middle" x="392" y="-443.8" font-family="Times,serif" font-size="14.00">uses</text>
</g>
<!-- wb.sidebar -->
<g id="node3" class="node">
<title>wb.sidebar</title>
<polygon fill="none" stroke="#e8f5e9" points="129,-399.5 0,-399.5 0,-361.5 129,-361.5 129,-399.5"/>
<text text-anchor="middle" x="64.5" y="-384.3" font-family="Times,serif" font-size="14.00">Sidebar</text>
<text text-anchor="middle" x="64.5" y="-369.3" font-family="Times,serif" font-size="14.00">(DB&#45;driven nav)</text>
</g>
<!-- wb.sidebar&#45;&gt;wb.fastapi -->
<g id="edge8" class="edge">
<title>wb.sidebar&#45;&gt;wb.fastapi</title>
<path fill="none" stroke="blue" d="M129.17,-386C186.77,-386 262,-386 262,-386 262,-386 262,-298.74 262,-298.74"/>
<polygon fill="blue" stroke="blue" points="265.5,-298.74 262,-288.74 258.5,-298.74 265.5,-298.74"/>
<text text-anchor="middle" x="105.5" y="-321.3" font-family="Times,serif" font-size="14.00">GET /pages</text>
</g>
<!-- wb.topbar -->
<g id="node4" class="node">
<title>wb.topbar</title>
<polygon fill="none" stroke="#e8f5e9" points="704,-644.5 535,-644.5 535,-606.5 704,-606.5 704,-644.5"/>
<text text-anchor="middle" x="619.5" y="-629.3" font-family="Times,serif" font-size="14.00">TopBar</text>
<text text-anchor="middle" x="619.5" y="-614.3" font-family="Times,serif" font-size="14.00">(theme, music, glass)</text>
</g>
<!-- wb.renderer&#45;&gt;wb.fastapi -->
<g id="edge4" class="edge">
<title>wb.renderer&#45;&gt;wb.fastapi</title>
<path fill="none" stroke="blue" d="M319.33,-374C312.55,-374 308,-374 308,-374 308,-374 308,-298.67 308,-298.67"/>
<polygon fill="blue" stroke="blue" points="311.5,-298.67 308,-288.67 304.5,-298.67 311.5,-298.67"/>
<text text-anchor="middle" x="376" y="-321.3" font-family="Times,serif" font-size="14.00">PATH1 GET</text>
</g>
<!-- wb.workbench -->
<g id="node6" class="node">
<title>wb.workbench</title>
<polygon fill="none" stroke="#fff9c4" points="498.5,-644.5 402.5,-644.5 402.5,-606.5 498.5,-606.5 498.5,-644.5"/>
<text text-anchor="middle" x="450.5" y="-629.3" font-family="Times,serif" font-size="14.00">Workbench</text>
<text text-anchor="middle" x="450.5" y="-614.3" font-family="Times,serif" font-size="14.00">(:3000)</text>
</g>
<!-- wb.workbench&#45;&gt;wb.universe -->
<g id="edge1" class="edge">
<title>wb.workbench&#45;&gt;wb.universe</title>
<path fill="none" stroke="black" stroke-dasharray="5,2" d="M461.25,-606.4C461.25,-560.35 461.25,-447 461.25,-447 461.25,-447 289.2,-447 289.2,-447"/>
<polygon fill="black" stroke="black" points="289.2,-443.5 279.2,-447 289.2,-450.5 289.2,-443.5"/>
<text text-anchor="middle" x="258.5" y="-566.3" font-family="Times,serif" font-size="14.00">serves /</text>
</g>
<!-- wb.workbench&#45;&gt;wb.dynamic -->
<g id="edge2" class="edge">
<title>wb.workbench&#45;&gt;wb.dynamic</title>
<path fill="none" stroke="black" stroke-dasharray="5,2" d="M425.5,-606.42C425.5,-606.42 425.5,-543.7 425.5,-543.7"/>
<polygon fill="black" stroke="black" points="429,-543.7 425.5,-533.7 422,-543.7 429,-543.7"/>
<text text-anchor="middle" x="430" y="-566.3" font-family="Times,serif" font-size="14.00">serves /[pageId]</text>
</g>
<!-- wb.showcase -->
<g id="node7" class="node">
<title>wb.showcase</title>
<polygon fill="none" stroke="#fff9c4" points="572,-533.5 485,-533.5 485,-495.5 572,-495.5 572,-533.5"/>
<text text-anchor="middle" x="528.5" y="-518.3" font-family="Times,serif" font-size="14.00">Showcase</text>
<text text-anchor="middle" x="528.5" y="-503.3" font-family="Times,serif" font-size="14.00">(:3001)</text>
</g>
<!-- wb.workbench&#45;&gt;wb.showcase -->
<g id="edge9" class="edge">
<title>wb.workbench&#45;&gt;wb.showcase</title>
<path fill="none" stroke="black" stroke-dasharray="5,2" d="M489.5,-606.42C489.5,-606.42 489.5,-543.7 489.5,-543.7"/>
<polygon fill="black" stroke="black" points="493,-543.7 489.5,-533.7 486,-543.7 493,-543.7"/>
<text text-anchor="middle" x="583" y="-566.3" font-family="Times,serif" font-size="14.00">same codebase</text>
</g>
<!-- wb.commons -->
<g id="node8" class="node">
<title>wb.commons</title>
<polygon fill="none" stroke="#fff9c4" points="722,-533.5 635,-533.5 635,-495.5 722,-495.5 722,-533.5"/>
<text text-anchor="middle" x="678.5" y="-518.3" font-family="Times,serif" font-size="14.00">Commons</text>
<text text-anchor="middle" x="678.5" y="-503.3" font-family="Times,serif" font-size="14.00">(:3002)</text>
</g>
<!-- wb.workbench&#45;&gt;wb.commons -->
<g id="edge10" class="edge">
<title>wb.workbench&#45;&gt;wb.commons</title>
<path fill="none" stroke="black" stroke-dasharray="5,2" d="M494,-606.4C494,-590.35 494,-570 494,-570 494,-570 669.5,-570 669.5,-570 669.5,-570 669.5,-543.6 669.5,-543.6"/>
<polygon fill="black" stroke="black" points="673,-543.6 669.5,-533.6 666,-543.6 673,-543.6"/>
<text text-anchor="middle" x="733" y="-566.3" font-family="Times,serif" font-size="14.00">same codebase</text>
</g>
<!-- wb.apidb -->
<g id="node9" class="node">
<title>wb.apidb</title>
<polygon fill="none" stroke="#fff9c4" points="595,-399.5 474,-399.5 474,-361.5 595,-361.5 595,-399.5"/>
<text text-anchor="middle" x="534.5" y="-384.3" font-family="Times,serif" font-size="14.00">/api/db</text>
<text text-anchor="middle" x="534.5" y="-369.3" font-family="Times,serif" font-size="14.00">(Next.js route)</text>
</g>
<!-- wb.apidb&#45;&gt;wb.fastapi -->
<g id="edge5" class="edge">
<title>wb.apidb&#45;&gt;wb.fastapi</title>
<path fill="none" stroke="blue" d="M534.5,-361.33C534.5,-329.45 534.5,-269 534.5,-269 534.5,-269 335.65,-269 335.65,-269"/>
<polygon fill="blue" stroke="blue" points="335.65,-265.5 325.65,-269 335.65,-272.5 335.65,-265.5"/>
<text text-anchor="middle" x="581.5" y="-321.3" font-family="Times,serif" font-size="14.00">POST /api/db</text>
</g>
<!-- wb.sqlite -->
<g id="node11" class="node">
<title>wb.sqlite</title>
<path fill="none" stroke="lightcoral" d="M359,-172.85C359,-175.49 327.85,-177.63 289.5,-177.63 251.15,-177.63 220,-175.49 220,-172.85 220,-172.85 220,-129.9 220,-129.9 220,-127.26 251.15,-125.12 289.5,-125.12 327.85,-125.12 359,-127.26 359,-129.9 359,-129.9 359,-172.85 359,-172.85"/>
<path fill="none" stroke="lightcoral" d="M359,-172.85C359,-170.22 327.85,-168.08 289.5,-168.08 251.15,-168.08 220,-170.22 220,-172.85"/>
<text text-anchor="middle" x="289.5" y="-155.18" font-family="Times,serif" font-size="14.00">SQLite</text>
<text text-anchor="middle" x="289.5" y="-140.18" font-family="Times,serif" font-size="14.00">(experiments.db)</text>
</g>
<!-- wb.fastapi&#45;&gt;wb.sqlite -->
<g id="edge6" class="edge">
<title>wb.fastapi&#45;&gt;wb.sqlite</title>
<path fill="none" stroke="blue" d="M289.5,-250.26C289.5,-250.26 289.5,-187.67 289.5,-187.67"/>
<polygon fill="blue" stroke="blue" points="293,-187.67 289.5,-177.67 286,-187.67 293,-187.67"/>
<text text-anchor="middle" x="316.5" y="-210.3" font-family="Times,serif" font-size="14.00">queries</text>
</g>
<!-- wb.pg -->
<g id="node12" class="node">
<title>wb.pg</title>
<path fill="none" stroke="lightcoral" d="M340.5,-47.6C340.5,-50.24 317.64,-52.38 289.5,-52.38 261.36,-52.38 238.5,-50.24 238.5,-47.6 238.5,-47.6 238.5,-4.65 238.5,-4.65 238.5,-2.01 261.36,0.13 289.5,0.13 317.64,0.13 340.5,-2.01 340.5,-4.65 340.5,-4.65 340.5,-47.6 340.5,-47.6"/>
<path fill="none" stroke="lightcoral" d="M340.5,-47.6C340.5,-44.97 317.64,-42.83 289.5,-42.83 261.36,-42.83 238.5,-44.97 238.5,-47.6"/>
<text text-anchor="middle" x="289.5" y="-29.93" font-family="Times,serif" font-size="14.00">PostgreSQL</text>
<text text-anchor="middle" x="289.5" y="-14.93" font-family="Times,serif" font-size="14.00">(Oracle VM)</text>
</g>
<!-- wb.sqlite&#45;&gt;wb.pg -->
<g id="edge11" class="edge">
<title>wb.sqlite&#45;&gt;wb.pg</title>
<path fill="none" stroke="blue" d="M289.5,-125.12C289.5,-125.12 289.5,-62.35 289.5,-62.35"/>
<polygon fill="blue" stroke="blue" points="293,-62.35 289.5,-52.35 286,-62.35 293,-62.35"/>
<text text-anchor="middle" x="317" y="-85.05" font-family="Times,serif" font-size="14.00">sync up</text>
</g>
</g>
</svg>
