<?xml version="1.0" encoding="UTF-8" standalone="no"?>
<!DOCTYPE svg PUBLIC "-//W3C//DTD SVG 1.1//EN"
 "http://www.w3.org/Graphics/SVG/1.1/DTD/svg11.dtd">
<!-- Generated by graphviz version 2.42.4 (0)
 -->
<!-- Title: G Pages: 1 -->
<svg width="272pt" height="404pt"
 viewBox="0.00 0.00 272.00 404.00" xmlns="http://www.w3.org/2000/svg" xmlns:xlink="http://www.w3.org/1999/xlink">
<g id="graph0" class="graph" transform="scale(1 1) rotate(0) translate(4 400)">
<title>G</title>
<polygon fill="white" stroke="transparent" points="-4,4 -4,-400 268,-400 268,4 -4,4"/>
<!-- User -->
<g id="node1" class="node">
<title>User</title>
<polygon fill="lightblue" stroke="lightblue" points="134,-396 80,-396 80,-360 134,-360 134,-396"/>
<text text-anchor="middle" x="107" y="-374.3" font-family="Times,serif" font-size="14.00">User</text>
</g>
<!-- Dashboard -->
<g id="node2" class="node">
<title>Dashboard</title>
<polygon fill="lightblue" stroke="lightblue" points="154,-324 60,-324 60,-288 154,-288 154,-324"/>
<text text-anchor="middle" x="107" y="-302.3" font-family="Times,serif" font-size="14.00">Dashboard</text>
</g>
<!-- User&#45;&gt;Dashboard -->
<g id="edge1" class="edge">
<title>User&#45;&gt;Dashboard</title>
<path fill="none" stroke="black" d="M107,-359.7C107,-351.98 107,-342.71 107,-334.11"/>
<polygon fill="black" stroke="black" points="110.5,-334.1 107,-324.1 103.5,-334.1 110.5,-334.1"/>
</g>
<!-- ExperimentRunner -->
<g id="node3" class="node">
<title>ExperimentRunner</title>
<polygon fill="lightblue" stroke="lightblue" points="183.5,-252 30.5,-252 30.5,-216 183.5,-216 183.5,-252"/>
<text text-anchor="middle" x="107" y="-230.3" font-family="Times,serif" font-size="14.00">ExperimentRunner</text>
</g>
<!-- Dashboard&#45;&gt;ExperimentRunner -->
<g id="edge2" class="edge">
<title>Dashboard&#45;&gt;ExperimentRunner</title>
<path fill="none" stroke="black" d="M107,-287.7C107,-279.98 107,-270.71 107,-262.11"/>
<polygon fill="black" stroke="black" points="110.5,-262.1 107,-252.1 103.5,-262.1 110.5,-262.1"/>
</g>
<!-- Optimizer -->
<g id="node4" class="node">
<title>Optimizer</title>
<polygon fill="lightblue" stroke="lightblue" points="88,-180 0,-180 0,-144 88,-144 88,-180"/>
<text text-anchor="middle" x="44" y="-158.3" font-family="Times,serif" font-size="14.00">Optimizer</text>
</g>
<!-- ExperimentRunner&#45;&gt;Optimizer -->
<g id="edge3" class="edge">
<title>ExperimentRunner&#45;&gt;Optimizer</title>
<path fill="none" stroke="black" d="M91.43,-215.7C83.8,-207.22 74.48,-196.86 66.12,-187.58"/>
<polygon fill="black" stroke="black" points="68.69,-185.2 59.39,-180.1 63.48,-189.88 68.69,-185.2"/>
</g>
<!-- EnergyReaders -->
<g id="node5" class="node">
<title>EnergyReaders</title>
<polygon fill="lightblue" stroke="lightblue" points="233.5,-180 106.5,-180 106.5,-144 233.5,-144 233.5,-180"/>
<text text-anchor="middle" x="170" y="-158.3" font-family="Times,serif" font-size="14.00">EnergyReaders</text>
</g>
<!-- ExperimentRunner&#45;&gt;EnergyReaders -->
<g id="edge4" class="edge">
<title>ExperimentRunner&#45;&gt;EnergyReaders</title>
<path fill="none" stroke="black" d="M122.57,-215.7C130.2,-207.22 139.52,-196.86 147.88,-187.58"/>
<polygon fill="black" stroke="black" points="150.52,-189.88 154.61,-180.1 145.31,-185.2 150.52,-189.88"/>
</g>
<!-- Database -->
<g id="node6" class="node">
<title>Database</title>
<polygon fill="lightblue" stroke="lightblue" points="211.5,-108 128.5,-108 128.5,-72 211.5,-72 211.5,-108"/>
<text text-anchor="middle" x="170" y="-86.3" font-family="Times,serif" font-size="14.00">Database</text>
</g>
<!-- EnergyReaders&#45;&gt;Database -->
<g id="edge5" class="edge">
<title>EnergyReaders&#45;&gt;Database</title>
<path fill="none" stroke="black" d="M170,-143.7C170,-135.98 170,-126.71 170,-118.11"/>
<polygon fill="black" stroke="black" points="173.5,-118.1 170,-108.1 166.5,-118.1 173.5,-118.1"/>
</g>
<!-- Sustainability -->
<g id="node7" class="node">
<title>Sustainability</title>
<polygon fill="lightblue" stroke="lightblue" points="172,-36 56,-36 56,0 172,0 172,-36"/>
<text text-anchor="middle" x="114" y="-14.3" font-family="Times,serif" font-size="14.00">Sustainability</text>
</g>
<!-- Database&#45;&gt;Sustainability -->
<g id="edge6" class="edge">
<title>Database&#45;&gt;Sustainability</title>
<path fill="none" stroke="black" d="M156.16,-71.7C149.51,-63.39 141.42,-53.28 134.11,-44.14"/>
<polygon fill="black" stroke="black" points="136.66,-41.73 127.68,-36.1 131.2,-46.1 136.66,-41.73"/>
</g>
<!-- Insights -->
<g id="node8" class="node">
<title>Insights</title>
<polygon fill="lightblue" stroke="lightblue" points="264,-36 190,-36 190,0 264,0 264,-36"/>
<text text-anchor="middle" x="227" y="-14.3" font-family="Times,serif" font-size="14.00">Insights</text>
</g>
<!-- Database&#45;&gt;Insights -->
<g id="edge7" class="edge">
<title>Database&#45;&gt;Insights</title>
<path fill="none" stroke="black" d="M184.09,-71.7C190.92,-63.3 199.26,-53.07 206.76,-43.86"/>
<polygon fill="black" stroke="black" points="209.47,-46.07 213.07,-36.1 204.04,-41.65 209.47,-46.07"/>
</g>
</g>
</svg>
