<?xml version="1.0" encoding="UTF-8" standalone="no"?>
<!DOCTYPE svg PUBLIC "-//W3C//DTD SVG 1.1//EN"
 "http://www.w3.org/Graphics/SVG/1.1/DTD/svg11.dtd">
<!-- Generated by graphviz version 2.43.0 (0)
 -->
<!-- Title: %3 Pages: 1 -->
<svg width="475pt" height="427pt"
 viewBox="0.00 0.00 475.00 427.25" xmlns="http://www.w3.org/2000/svg" xmlns:xlink="http://www.w3.org/1999/xlink">
<g id="graph0" class="graph" transform="scale(1 1) rotate(0) translate(4 423.25)">
<title>%3</title>
<polygon fill="white" stroke="transparent" points="-4,4 -4,-423.25 471,-423.25 471,4 -4,4"/>
<g id="clust1" class="cluster">
<title>cluster_user_space</title>
<polygon fill="none" stroke="lightblue" stroke-dasharray="5,2" points="8,-211.25 8,-411.25 366,-411.25 366,-211.25 8,-211.25"/>
<text text-anchor="middle" x="187" y="-397.65" font-family="Helvetica,sans-Serif" font-size="12.00">User Space</text>
</g>
<g id="clust2" class="cluster">
<title>cluster_kernel___hardware</title>
<polygon fill="none" stroke="lightgreen" points="129,-88.25 129,-185.25 459,-185.25 459,-88.25 129,-88.25"/>
<text text-anchor="middle" x="294" y="-171.65" font-family="Helvetica,sans-Serif" font-size="12.00">Kernel / Hardware</text>
</g>
<!-- config.loader -->
<g id="node1" class="node">
<title>config.loader</title>
<polygon fill="lightblue" stroke="lightblue" points="346,-370.25 272,-370.25 272,-334.25 346,-334.25 346,-370.25"/>
<text text-anchor="middle" x="309" y="-349.75" font-family="Helvetica,sans-Serif" font-size="10.00">ConfigLoader</text>
</g>
<!-- exec.harness -->
<g id="node2" class="node">
<title>exec.harness</title>
<polygon fill="lightyellow" stroke="lightyellow" points="345.5,-267.25 242.5,-267.25 242.5,-231.25 345.5,-231.25 345.5,-267.25"/>
<text text-anchor="middle" x="294" y="-246.75" font-family="Helvetica,sans-Serif" font-size="10.00">ExperimentHarness</text>
</g>
<!-- config.loader&#45;&gt;exec.harness -->
<g id="edge1" class="edge">
<title>config.loader&#45;&gt;exec.harness</title>
<path fill="none" stroke="black" stroke-dasharray="5,2" d="M311.3,-334.19C312.73,-318.48 310.94,-308.18 302.11,-277.17"/>
<polygon fill="black" stroke="black" points="305.41,-276 299.28,-267.36 298.69,-277.93 305.41,-276"/>
<text text-anchor="middle" x="319.5" y="-298.85" font-family="Helvetica,sans-Serif" font-size="8.00">loads config</text>
</g>
<!-- hw.perf -->
<g id="node5" class="node">
<title>hw.perf</title>
<polygon fill="lightgreen" stroke="lightgreen" points="221,-144.25 149,-144.25 149,-108.25 221,-108.25 221,-144.25"/>
<text text-anchor="middle" x="185" y="-129.25" font-family="Helvetica,sans-Serif" font-size="10.00">PerfReader</text>
<text text-anchor="middle" x="185" y="-118.25" font-family="Helvetica,sans-Serif" font-size="10.00">(IPC, cache)</text>
</g>
<!-- exec.harness&#45;&gt;hw.perf -->
<g id="edge4" class="edge">
<title>exec.harness&#45;&gt;hw.perf</title>
<path fill="none" stroke="black" stroke-dasharray="5,2" d="M284.98,-230.93C260.57,-181.55 250.43,-163.83 229.61,-149.58"/>
<polygon fill="black" stroke="black" points="231.38,-146.57 221.05,-144.24 227.67,-152.5 231.38,-146.57"/>
</g>
<!-- hw.rapl -->
<g id="node6" class="node">
<title>hw.rapl</title>
<polygon fill="lightgreen" stroke="lightgreen" points="331,-144.25 257,-144.25 257,-108.25 331,-108.25 331,-144.25"/>
<text text-anchor="middle" x="294" y="-129.25" font-family="Helvetica,sans-Serif" font-size="10.00">RAPLReader</text>
<text text-anchor="middle" x="294" y="-118.25" font-family="Helvetica,sans-Serif" font-size="10.00">(energy µJ)</text>
</g>
<!-- exec.harness&#45;&gt;hw.rapl -->
<g id="edge2" class="edge">
<title>exec.harness&#45;&gt;hw.rapl</title>
<path fill="none" stroke="black" stroke-dasharray="5,2" d="M300.01,-231C312.95,-191.13 314.82,-179.08 305.61,-154.08"/>
<polygon fill="black" stroke="black" points="308.81,-152.66 301.89,-144.64 302.29,-155.22 308.81,-152.66"/>
<text text-anchor="middle" x="304" y="-195.85" font-family="Helvetica,sans-Serif" font-size="8.00">starts</text>
</g>
<!-- hw.msr -->
<g id="node7" class="node">
<title>hw.msr</title>
<polygon fill="lightgreen" stroke="lightgreen" points="438.5,-144.25 367.5,-144.25 367.5,-108.25 438.5,-108.25 438.5,-144.25"/>
<text text-anchor="middle" x="403" y="-129.25" font-family="Helvetica,sans-Serif" font-size="10.00">MSRReader</text>
<text text-anchor="middle" x="403" y="-118.25" font-family="Helvetica,sans-Serif" font-size="10.00">(C&#45;states)</text>
</g>
<!-- exec.harness&#45;&gt;hw.msr -->
<g id="edge3" class="edge">
<title>exec.harness&#45;&gt;hw.msr</title>
<path fill="none" stroke="black" stroke-dasharray="5,2" d="M317.46,-230.93C366.96,-192.08 379.11,-180.48 391.52,-153.69"/>
<polygon fill="black" stroke="black" points="394.78,-154.97 395.6,-144.41 388.37,-152.15 394.78,-154.97"/>
</g>
<!-- exec.agentic -->
<g id="node3" class="node">
<title>exec.agentic</title>
<polygon fill="lightyellow" stroke="lightyellow" points="235.5,-370.25 146.5,-370.25 146.5,-334.25 235.5,-334.25 235.5,-370.25"/>
<text text-anchor="middle" x="191" y="-349.75" font-family="Helvetica,sans-Serif" font-size="10.00">AgenticExecutor</text>
</g>
<!-- exec.linear -->
<g id="node4" class="node">
<title>exec.linear</title>
<polygon fill="lightyellow" stroke="lightyellow" points="110,-370.25 28,-370.25 28,-334.25 110,-334.25 110,-370.25"/>
<text text-anchor="middle" x="69" y="-349.75" font-family="Helvetica,sans-Serif" font-size="10.00">LinearExecutor</text>
</g>
<!-- db.main -->
<g id="node8" class="node">
<title>db.main</title>
<path fill="lightcoral" stroke="lightcoral" d="M323.5,-37.6C323.5,-39.68 310.28,-41.38 294,-41.38 277.72,-41.38 264.5,-39.68 264.5,-37.6 264.5,-37.6 264.5,-3.65 264.5,-3.65 264.5,-1.57 277.72,0.13 294,0.13 310.28,0.13 323.5,-1.57 323.5,-3.65 323.5,-3.65 323.5,-37.6 323.5,-37.6"/>
<path fill="none" stroke="lightcoral" d="M323.5,-37.6C323.5,-35.52 310.28,-33.83 294,-33.83 277.72,-33.83 264.5,-35.52 264.5,-37.6"/>
<text text-anchor="middle" x="294" y="-23.62" font-family="Helvetica,sans-Serif" font-size="10.00">Database</text>
<text text-anchor="middle" x="294" y="-12.62" font-family="Helvetica,sans-Serif" font-size="10.00">(SQLite)</text>
</g>
<!-- hw.perf&#45;&gt;db.main -->
<g id="edge7" class="edge">
<title>hw.perf&#45;&gt;db.main</title>
<path fill="none" stroke="blue" d="M197.12,-108.24C225.76,-65.79 237.4,-50.27 255.51,-38.9"/>
<polygon fill="blue" stroke="blue" points="257.4,-41.85 264.38,-33.88 253.95,-35.76 257.4,-41.85"/>
<text text-anchor="middle" x="219" y="-72.85" font-family="Helvetica,sans-Serif" font-size="8.00">IPC, cache</text>
</g>
<!-- hw.rapl&#45;&gt;db.main -->
<g id="edge5" class="edge">
<title>hw.rapl&#45;&gt;db.main</title>
<path fill="none" stroke="blue" d="M296.15,-108.13C299.68,-77.96 301.03,-63.69 300.19,-51.75"/>
<polygon fill="blue" stroke="blue" points="303.62,-50.98 298.89,-41.5 296.68,-51.86 303.62,-50.98"/>
<text text-anchor="middle" x="322.5" y="-72.85" font-family="Helvetica,sans-Serif" font-size="8.00">energy samples</text>
</g>
<!-- hw.msr&#45;&gt;db.main -->
<g id="edge6" class="edge">
<title>hw.msr&#45;&gt;db.main</title>
<path fill="none" stroke="blue" d="M394.53,-107.9C373.94,-63.79 365.59,-51.92 332.89,-36.81"/>
<polygon fill="blue" stroke="blue" points="334.07,-33.5 323.51,-32.66 331.24,-39.91 334.07,-33.5"/>
<text text-anchor="middle" x="412.5" y="-72.85" font-family="Helvetica,sans-Serif" font-size="8.00">C&#45;states</text>
</g>
</g>
</svg>
