<?xml version="1.0" encoding="UTF-8" standalone="no"?>
<!DOCTYPE svg PUBLIC "-//W3C//DTD SVG 1.1//EN"
 "http://www.w3.org/Graphics/SVG/1.1/DTD/svg11.dtd">
<!-- Generated by graphviz version 2.42.4 (0)
 -->
<!-- Title: G Pages: 1 -->
<svg width="493pt" height="152pt"
 viewBox="0.00 0.00 493.00 152.00" xmlns="http://www.w3.org/2000/svg" xmlns:xlink="http://www.w3.org/1999/xlink">
<g id="graph0" class="graph" transform="scale(1 1) rotate(0) translate(4 148)">
<title>G</title>
<polygon fill="white" stroke="transparent" points="-4,4 -4,-148 489,-148 489,4 -4,4"/>
<!-- RAPL -->
<g id="node1" class="node">
<title>RAPL</title>
<polygon fill="orange" stroke="orange" points="71,-144 15,-144 15,-108 71,-108 71,-144"/>
<text text-anchor="middle" x="43" y="-122.3" font-family="Times,serif" font-size="14.00">RAPL</text>
</g>
<!-- Telemetry -->
<g id="node4" class="node">
<title>Telemetry</title>
<polygon fill="orange" stroke="orange" points="211,-90 122,-90 122,-54 211,-54 211,-90"/>
<text text-anchor="middle" x="166.5" y="-68.3" font-family="Times,serif" font-size="14.00">Telemetry</text>
</g>
<!-- RAPL&#45;&gt;Telemetry -->
<g id="edge1" class="edge">
<title>RAPL&#45;&gt;Telemetry</title>
<path fill="none" stroke="black" d="M71.27,-113.88C84.36,-108.06 100.47,-100.9 115.65,-94.16"/>
<polygon fill="black" stroke="black" points="117.22,-97.29 124.94,-90.03 114.38,-90.89 117.22,-97.29"/>
</g>
<!-- Perf -->
<g id="node2" class="node">
<title>Perf</title>
<polygon fill="orange" stroke="orange" points="70,-90 16,-90 16,-54 70,-54 70,-90"/>
<text text-anchor="middle" x="43" y="-68.3" font-family="Times,serif" font-size="14.00">Perf</text>
</g>
<!-- Perf&#45;&gt;Telemetry -->
<g id="edge2" class="edge">
<title>Perf&#45;&gt;Telemetry</title>
<path fill="none" stroke="black" d="M70.06,-72C82.18,-72 97.07,-72 111.46,-72"/>
<polygon fill="black" stroke="black" points="111.79,-75.5 121.79,-72 111.79,-68.5 111.79,-75.5"/>
</g>
<!-- Turbostat -->
<g id="node3" class="node">
<title>Turbostat</title>
<polygon fill="orange" stroke="orange" points="86,-36 0,-36 0,0 86,0 86,-36"/>
<text text-anchor="middle" x="43" y="-14.3" font-family="Times,serif" font-size="14.00">Turbostat</text>
</g>
<!-- Turbostat&#45;&gt;Telemetry -->
<g id="edge3" class="edge">
<title>Turbostat&#45;&gt;Telemetry</title>
<path fill="none" stroke="black" d="M84.8,-36.13C94.61,-40.49 105.21,-45.21 115.4,-49.73"/>
<polygon fill="black" stroke="black" points="114.05,-52.96 124.61,-53.82 116.89,-46.56 114.05,-52.96"/>
</g>
<!-- EnergyEngine -->
<g id="node5" class="node">
<title>EnergyEngine</title>
<polygon fill="orange" stroke="orange" points="366,-90 247,-90 247,-54 366,-54 366,-90"/>
<text text-anchor="middle" x="306.5" y="-68.3" font-family="Times,serif" font-size="14.00">EnergyEngine</text>
</g>
<!-- Telemetry&#45;&gt;EnergyEngine -->
<g id="edge4" class="edge">
<title>Telemetry&#45;&gt;EnergyEngine</title>
<path fill="none" stroke="black" d="M211.16,-72C219.34,-72 228.06,-72 236.78,-72"/>
<polygon fill="black" stroke="black" points="236.98,-75.5 246.98,-72 236.98,-68.5 236.98,-75.5"/>
</g>
<!-- Database -->
<g id="node6" class="node">
<title>Database</title>
<polygon fill="orange" stroke="orange" points="485,-90 402,-90 402,-54 485,-54 485,-90"/>
<text text-anchor="middle" x="443.5" y="-68.3" font-family="Times,serif" font-size="14.00">Database</text>
</g>
<!-- EnergyEngine&#45;&gt;Database -->
<g id="edge5" class="edge">
<title>EnergyEngine&#45;&gt;Database</title>
<path fill="none" stroke="black" d="M366.32,-72C374.71,-72 383.29,-72 391.52,-72"/>
<polygon fill="black" stroke="black" points="391.71,-75.5 401.71,-72 391.71,-68.5 391.71,-75.5"/>
</g>
</g>
</svg>
