<?xml version="1.0" encoding="UTF-8" standalone="no"?>
<!DOCTYPE svg PUBLIC "-//W3C//DTD SVG 1.1//EN"
 "http://www.w3.org/Graphics/SVG/1.1/DTD/svg11.dtd">
<!-- Generated by graphviz version 2.42.4 (0)
 -->
<!-- Title: G Pages: 1 -->
<svg width="687pt" height="44pt"
 viewBox="0.00 0.00 687.00 44.00" xmlns="http://www.w3.org/2000/svg" xmlns:xlink="http://www.w3.org/1999/xlink">
<g id="graph0" class="graph" transform="scale(1 1) rotate(0) translate(4 40)">
<title>G</title>
<polygon fill="white" stroke="transparent" points="-4,4 -4,-40 683,-40 683,4 -4,4"/>
<!-- Query -->
<g id="node1" class="node">
<title>Query</title>
<polygon fill="lightgreen" stroke="lightgreen" points="60,-36 0,-36 0,0 60,0 60,-36"/>
<text text-anchor="middle" x="30" y="-14.3" font-family="Times,serif" font-size="14.00">Query</text>
</g>
<!-- Optimizer -->
<g id="node2" class="node">
<title>Optimizer</title>
<polygon fill="lightgreen" stroke="lightgreen" points="184,-36 96,-36 96,0 184,0 184,-36"/>
<text text-anchor="middle" x="140" y="-14.3" font-family="Times,serif" font-size="14.00">Optimizer</text>
</g>
<!-- Query&#45;&gt;Optimizer -->
<g id="edge1" class="edge">
<title>Query&#45;&gt;Optimizer</title>
<path fill="none" stroke="black" d="M60.23,-18C68.13,-18 76.93,-18 85.72,-18"/>
<polygon fill="black" stroke="black" points="85.96,-21.5 95.96,-18 85.96,-14.5 85.96,-21.5"/>
</g>
<!-- Executor -->
<g id="node3" class="node">
<title>Executor</title>
<polygon fill="lightgreen" stroke="lightgreen" points="301,-36 220,-36 220,0 301,0 301,-36"/>
<text text-anchor="middle" x="260.5" y="-14.3" font-family="Times,serif" font-size="14.00">Executor</text>
</g>
<!-- Optimizer&#45;&gt;Executor -->
<g id="edge2" class="edge">
<title>Optimizer&#45;&gt;Executor</title>
<path fill="none" stroke="black" d="M184.12,-18C192.4,-18 201.13,-18 209.61,-18"/>
<polygon fill="black" stroke="black" points="209.76,-21.5 219.76,-18 209.76,-14.5 209.76,-21.5"/>
</g>
<!-- Measurement -->
<g id="node4" class="node">
<title>Measurement</title>
<polygon fill="lightgreen" stroke="lightgreen" points="453,-36 337,-36 337,0 453,0 453,-36"/>
<text text-anchor="middle" x="395" y="-14.3" font-family="Times,serif" font-size="14.00">Measurement</text>
</g>
<!-- Executor&#45;&gt;Measurement -->
<g id="edge3" class="edge">
<title>Executor&#45;&gt;Measurement</title>
<path fill="none" stroke="black" d="M301.25,-18C309.25,-18 317.87,-18 326.51,-18"/>
<polygon fill="black" stroke="black" points="326.64,-21.5 336.64,-18 326.64,-14.5 326.64,-21.5"/>
</g>
<!-- Metrics -->
<g id="node5" class="node">
<title>Metrics</title>
<polygon fill="lightgreen" stroke="lightgreen" points="560,-36 489,-36 489,0 560,0 560,-36"/>
<text text-anchor="middle" x="524.5" y="-14.3" font-family="Times,serif" font-size="14.00">Metrics</text>
</g>
<!-- Measurement&#45;&gt;Metrics -->
<g id="edge4" class="edge">
<title>Measurement&#45;&gt;Metrics</title>
<path fill="none" stroke="black" d="M453.04,-18C461.62,-18 470.36,-18 478.63,-18"/>
<polygon fill="black" stroke="black" points="478.82,-21.5 488.82,-18 478.82,-14.5 478.82,-21.5"/>
</g>
<!-- Database -->
<g id="node6" class="node">
<title>Database</title>
<polygon fill="lightgreen" stroke="lightgreen" points="679,-36 596,-36 596,0 679,0 679,-36"/>
<text text-anchor="middle" x="637.5" y="-14.3" font-family="Times,serif" font-size="14.00">Database</text>
</g>
<!-- Metrics&#45;&gt;Database -->
<g id="edge5" class="edge">
<title>Metrics&#45;&gt;Database</title>
<path fill="none" stroke="black" d="M560.01,-18C568.15,-18 577,-18 585.7,-18"/>
<polygon fill="black" stroke="black" points="585.78,-21.5 595.78,-18 585.78,-14.5 585.78,-21.5"/>
</g>
</g>
</svg>
